<svg xmlns="http://www.w3.org/2000/svg" viewBox="0 0 222.45 170.97"><defs><style>.cls-1,.cls-4{fill:none;}.cls-1,.cls-2{stroke:#fff;stroke-miterlimit:10;}.cls-2,.cls-3{fill:#fff;}</style></defs><title>scone_logo</title><g id="Layer_2" data-name="Layer 2"><g id="Layer_1-2" data-name="Layer 1"><g id="ppw29E"><path class="cls-1" d="M207.11,137.78c1.56.93,3.93,2.37,6.31,3.78,7.06,4.18,9.61,9.53,8.11,17.05-1.29,6.51-6.65,11.44-14.23,11.79-6.73.31-13.52-.42-20.27-.82a5.87,5.87,0,0,1-3.7-1.3c-6.59-7.28-14.74-4.24-22.53-3.62-15.91,1.27-31.81,3-47.75,3.68-16.11.65-32.29.84-48.38,0-17.05-.88-33.51-5-47.84-14.94C0,141.71-4.22,121.94,6.08,104.22-2,92.08-.74,88.08,12.46,82.31l2-11.64,2.22-.55c-3.3,19.66,9,26.6,24,31.13,1.37.42,3-.14,4.56-.86,8.42,5.43,17.2,10,28.32,4.89l-2.59,4.45c4.54.43,8.95,1,13.39,1.23,7.84.39,14.39-2.08,18.65-9.14a14.1,14.1,0,0,1,3.09-3.72c0,8.05-6,11.49-11.91,14.77,4.35,1.15,8.55,2.39,12.83,3.28.83.17,1.93-1.5,2.93-1.53,4.86-.12,9.74,0,14.61.07,1.86,0,3.72,0,6,0L128.23,112a6.23,6.23,0,0,1,1.61-.4c5.87.59,10.22-2.23,12.78-7,3.22-6,8-7.25,13.82-5.74,4.64,1.21,8.49.83,11.86-3.07-.11,4.67-2.7,6.83-7.39,6.44-1.31-.12-2.61-.51-3.92-.71-7.92-1.26-9.79-.3-14.49,8,5.52-6.49,12.05-4.57,18.79-3.17,7.2,1.49,15.11-3.59,19.38-11.35,1.05-1.91,2.82-3.43,4.59-5.53l-2.09-1.21C192.82,80.39,193.62,70,193.44,59c-.89.15-1.41.14-1.43.25-2.42,10.57-9,16.67-19.35,19.91-7.47,2.34-14.48,6.14-22.94,9.84,6.5-7.28,14.76-8.52,21.64-12.26,3.19-1.73,6.79-2.91,9.58-5.13,12.64-10.08,10.22-33.37-6.75-37.82,0,4.84.37,9.93-.07,15-1,11.39-7.29,19.44-17.2,24.61-8.38,4.37-17,8.26-25.5,12.4-1.91.92-3.74,2-5.61,3l-.7-1c3.86-2.38,7.62-4.93,11.59-7.1,7.56-4.11,15.72-7.3,22.76-12.14,11.89-8.17,15.51-24.68,9-36.84a22.89,22.89,0,0,0-1.95-2.53c2.12,12.23.32,22.87-9.36,29.9-5.14,3.73-12,5.16-18.14,7.44-6.74,2.49-13.56,4.76-19.49,6.82.57-.53,1.94-2.69,3.89-3.54a180.13,180.13,0,0,1,18.46-7.1c16.78-5.26,25-17.72,21.46-34.51-.84-4-4.29-7.63-7.14-10.91-2.13-2.44-5.22-4-7.47-6.84,2.61,1.58,5.52,2.82,7.75,4.82,4.55,4.11,8.66,8.72,13.12,12.94a25.28,25.28,0,0,0,6.06,4.18c15.14,7.56,24,25.64,20.28,42.22-.64,2.89-.69,5,2,6.9a8.68,8.68,0,0,1,3.1,3.83c2.29,6.48,5.08,12.92,6.22,19.63,1.25,7.33,1.06,14.93,1.16,22.41C208.47,130.49,207.65,133.69,207.11,137.78ZM56,158.64c5.86,2.08,11,5,16.46,5.59a243.55,243.55,0,0,0,29.61.87c8.64-.12,17.27-1,25.9-1.54,3.1-.18,6.08.2,8-3.54,1.07-2.1,3.91-3.3,6.35-5.22.17,2.68.33,5.15.49,7.61H144q1.65-5.62,3.32-11.27l2.08.53-.84,9.74,2,.46q1.3-6.4,2.62-12.81l1.8.07.78,11.48c3.18-5.94,0-13.18,3.93-18.79l1.5.07v17.73h1.31l1.38-20,1.72.07q.69,9.47,1.37,18.94l1.14,0V133.89l2.29-.11L172,159.39a3.62,3.62,0,0,0,2.66-2.76c.72-5.9,1.7-11.84,1.64-17.75,0-4.31-.18-9.88-2.72-12.58-3.45-3.66-9-1.87-13.41.71-.71.42-1.39.91-2.12,1.3-2.77,1.49-5.43,3.84-8.35,4.22-5.31.68-7.06,3.73-8.62,8.23-2.12,6.13-6.54,9.64-10.85,8.42s-8.27-3.85-12.29-6.05c-5.12-2.79-9.87-7.4-15.28-8.35a101,101,0,0,0-46.36,2.34c-10,2.92-15.82.75-22-7.6-1.69-2.27-3.07-4.76-4.75-7-.74-1-1.88-2.35-2.88-2.39-8.8-.29-14.5-7-21.86-10-2.57,9.86-1.6,20.76,2.43,26.11-1.75-12.77-1.33-16.79,2-19.29,1.49,10.47-.11,21.53,5.6,31.21-1.63-7.8-3.26-15.54-1.23-23.6,3.49,9.54,2.92,20.3,9.29,28.88-2.81-7.17-4-14.51-2.44-22.28l8.76,25.74,1.48-.43c-1-5.61-3.43-11.18-.52-17,2.72,7,3.63,14.64,9,21.36-.62-4.35-1.1-7.69-1.58-11l1.66-.46c1.81,3.67,3.63,7.34,6,12.19l.57-6.55c2.35,1.88,3.14,4.32,4.76,5.92s4.1,2.41,7.15,4.08C56.88,162,56.5,160.6,56,158.64Zm132.33-50.26-20.08,5.88-1.74-4.19c-2.13,3.09-3.4,6.66-5.88,8-2.27,1.24-5.85.08-9,0,.2-1.49.38-3,.64-4.93-5.37,4.59-8.55,12.92-18,6.53l1.61,5.17-1,.86L124,117.29l-.33.28,6.7,8.25-.95.82L119,117.05l-.61.65,5.31,6.24-.77.66-4.43-2.88,3.66,8.16-1.45.85-10.35-9.66c-.17,1-.29,1.68-.49,2.81l-7.06-5.56c.84,1.81,1.35,2.89,1.64,3.51-7.87,6.23-11.32-.29-16.06-6.13.51,2.59.77,3.9.91,4.63l-10,1.33-3.4-2.83-.34.46c1.32,2,2.63,4.11,4.26,6.68-4.3-1.22-4.6-6.82-9.68-5.68-2.9.64-6.06.11-9.43.11,1,2,1.76,3.44,2.47,4.85l-.77.49L51.41,114,49.7,115,56,125.08a22.78,22.78,0,0,1-6.36-5.57c-1.71-1.94-3.39-3.91-5.09-5.87l-1,.8L49.73,124c-3.28-1.55-15.63-14-17.09-16.27a23.08,23.08,0,0,0-1.6-2l-.65.4q2.16,3.9,4.3,7.81l-.9.52L26.66,103.5l-1.19.77L37,124.48l2.14-3.7,4.2,8.81,1.23-.51c-.15-1.89-.29-3.78-.5-6.58,3.86,2.8,1.71,8.71,7.14,9-.58-2.11-1.08-3.92-1.59-5.72l1.13-.4,4.56,6.44L56.87,129l6,3.17-.42-2.59c5.7,0,11.2.12,16.69-.09,1.32,0,2.6-1.21,4.83-2.33,10.37-.09,22.63-2,31.1,9.32.45-1.77.81-3.16,1.19-4.68,1.76,3.64,3.3,6.86,4.85,10.09l1-.44-.39-6.76,1.48-.26,1.84,6.24,1,1.05,1.11-4.66c1.66,3.89,2.6,6.12,3.5,8.22,3.73-1-.09-7.63,5.66-6.67.24-1.51.49-3,.89-5.55l1.78,3.25c1.18-2,2.45-5.48,3.27-5.38,5,.64,6.42-3.06,8.51-6.57l2.36,3c2.21-3.84,4.29-7.31,9.34-5.26,4.77-5.92,8.93,1,13.48,1.11s6.43,5.53,5.33,10.46c-.46,2.08-1.23,4.08-1.86,6.12l1.21,1.07c.47-1.37.95-2.73,1.42-4.1.07,3.55-.76,6.25-.58,8.88s1.38,5,2.49,8.71c.54-2.16.79-3.13,1.24-4.91,2.7,4.28,4.92,7.92,7.27,11.48,2.06,3.11,7.33,5.51,10.64,5-3.38-5.1-3.38-5.1,4.86-6l-5.38,2.83,8.76,2.67.29-1.23-3.41-2.65c1.11-.83,1.76-.87,2.34-.7,5.28,1.54,7.15.24,7.44-5.23s-3.05-9.58-10-12.06c-4.67-1.67-9.16-3.33-9.84-9.27-1,.87-1.54,1.37-2.26,2-.2-1.88-.35-3.3-.49-4.73l-1.27,1c-1.08-1.08-2.54-2-3.14-3.29s-.34-3-.46-4.54l.55,0,.89,2.65,1.61-.52C191.93,121.09,190.29,115.3,188.32,108.38Zm13.78,23.53,2.07.05V104.73c-.66.54-2,1.12-2,1.71C202.05,114.93,202.1,123.42,202.1,131.91ZM8.51,105.46c.46,4.76,4.74,7.33,9.77,6.3Z"/><path class="cls-2" d="M71.44,28.46c6.65-3.63,12.93-8.59,20-10.56,8.43-2.33,17.61-1.91,26.41-3.07,2-.26,4.74-1.75,5.31-3.33s-.7-4.31-1.87-6.06c-1-1.49-3-2.32-5.25-4,6.48-2.41,11.29,0,15.5,2.91,7.45,5.08,8.8,12.82,7.46,21.41-2.54-7.7-2.45-17-13-20.49,1.9,6.78-1.16,11-6.12,14.21-3.15,2.06-4.17,4.94-3.61,8.6a32.58,32.58,0,0,1,0,4.74l-1.7.26L112.78,21C103.63,20,93.75,17,84.1,23.69L89.26,26,71.73,28.77Z"/><path class="cls-1" d="M107.9,45.29a54.41,54.41,0,0,1-6.33,2.18c-9.41,2-17.08,7-24,13.47C71,67.16,63.44,71.87,53.87,72.21,64.52,69.8,72.39,63.05,80.19,56S97.4,45.72,107.9,45.29Z"/><path class="cls-2" d="M139.51,8.08c8.91,3,16.54,17.18,13.85,25.43-.89,2.74-3.55,4.91-6.09,7C157,26.54,146.25,17.82,139.51,8.08Z"/><path class="cls-2" d="M71.73,28.77c-5.36,1.92-10.61,4.36-16.13,5.62-7.76,1.77-15.27,3.42-19.12,11.83-1.63-4.12-1.68-6.13,2.09-8C44.05,35.41,50.1,33.66,56,31.91c5-1.48,10.26-2.32,15.4-3.45Z"/><path class="cls-1" d="M86.19,78.89c4.17-11.54,18.09-21.71,42.46-28.83-7.94,3.83-16.46,6.82-23.66,11.73S91.9,73.58,86.19,78.89Z"/><path class="cls-1" d="M37.12,51.8c10.94,7.06,21.33,3.56,32.51-2C61.38,59.47,44.18,60.17,37.12,51.8Z"/><path class="cls-1" d="M119.25,98.54c.71,7.24-6.47,14.84-12.77,14.69Z"/><path class="cls-1" d="M19.82,67.74c-2.42-5.43-1.4-9.57,3.89-13.38C22.28,59.26,21.06,63.47,19.82,67.74Z"/><path class="cls-1" d="M56,158.64c.51,2,.89,3.38,1.66,6.29-3-1.67-5.51-2.46-7.15-4.08s-2.41-4-4.76-5.92l-.57,6.55c-2.39-4.85-4.21-8.52-6-12.19l-1.66.46c.48,3.34,1,6.68,1.58,11-5.35-6.72-6.26-14.38-9-21.36-2.91,5.86-.49,11.43.52,17l-1.48.43-8.76-25.74c-1.52,7.77-.37,15.11,2.44,22.28-6.37-8.58-5.8-19.34-9.29-28.88-2,8.06-.4,15.8,1.23,23.6-5.71-9.68-4.11-20.74-5.6-31.21-3.33,2.5-3.75,6.52-2,19.29-4-5.35-5-16.25-2.43-26.11,7.36,3,13.06,9.71,21.86,10,1,0,2.14,1.39,2.88,2.39,1.68,2.25,3.06,4.74,4.75,7,6.22,8.35,12.08,10.52,22,7.6a101,101,0,0,1,46.36-2.34c5.41.95,10.16,5.56,15.28,8.35,4,2.2,8,4.83,12.29,6.05s8.73-2.29,10.85-8.42c1.56-4.5,3.31-7.55,8.62-8.23,2.92-.38,5.58-2.73,8.35-4.22.73-.39,1.41-.88,2.12-1.3,4.41-2.58,10-4.37,13.41-.71,2.54,2.7,2.68,8.27,2.72,12.58.06,5.91-.92,11.85-1.64,17.75a3.62,3.62,0,0,1-2.66,2.76l-1.56-25.61-2.29.11v24.75l-1.14,0q-.69-9.47-1.37-18.94l-1.72-.07-1.38,20h-1.31V141.9l-1.5-.07c-4,5.61-.75,12.85-3.93,18.79L155,149.14l-1.8-.07q-1.3,6.41-2.62,12.81l-2-.46.84-9.74-2.08-.53q-1.66,5.64-3.32,11.27h-1.21c-.16-2.46-.32-4.93-.49-7.61-2.44,1.92-5.28,3.12-6.35,5.22-1.91,3.74-4.89,3.36-8,3.54-8.63.53-17.26,1.42-25.9,1.54a243.55,243.55,0,0,1-29.61-.87C67,163.65,61.85,160.72,56,158.64Zm15.41-11.2c.79,2.27,1,5,2.06,5.43,3.08,1.26,5.85,4.86,10.57,2.67Zm40,8.23c-4.2-4.44-6.93,1.27-11.44.48C105.09,163.51,107.52,153.42,111.37,155.67Z"/><path class="cls-3" d="M188.32,108.38c2,6.92,3.61,12.71,5.25,18.51l-1.61.52-.89-2.65-.55,0c.12,1.53-.13,3.23.46,4.54s2.06,2.21,3.14,3.29l1.27-1c.14,1.43.29,2.85.49,4.73.72-.66,1.29-1.16,2.26-2,.68,5.94,5.17,7.6,9.84,9.27,7,2.48,10.31,6.67,10,12.06s-2.16,6.77-7.44,5.23c-.58-.17-1.23-.13-2.34.7l3.41,2.65-.29,1.23-8.76-2.67L208,160c-8.24.89-8.24.89-4.86,6-3.31.5-8.58-1.9-10.64-5-2.35-3.56-4.57-7.2-7.27-11.48-.45,1.78-.7,2.75-1.24,4.91-1.11-3.67-2.31-6.16-2.49-8.71s.65-5.33.58-8.88c-.47,1.37-.95,2.73-1.42,4.1l-1.21-1.07c.63-2,1.4-4,1.86-6.12,1.1-4.93-.66-10.35-5.33-10.46s-8.71-7-13.48-1.11c-5.05-2-7.13,1.42-9.34,5.26l-2.36-3c-2.09,3.51-3.51,7.21-8.51,6.57-.82-.1-2.09,3.36-3.27,5.38l-1.78-3.25c-.4,2.51-.65,4-.89,5.55-5.75-1-1.93,5.7-5.66,6.67-.9-2.1-1.84-4.33-3.5-8.22L126,141.74l-1-1.05-1.84-6.24-1.48.26.39,6.76-1,.44c-1.55-3.23-3.09-6.45-4.85-10.09-.38,1.52-.74,2.91-1.19,4.68-8.47-11.28-20.73-9.41-31.1-9.32-2.23,1.12-3.51,2.28-4.83,2.33-5.49.21-11,.09-16.69.09l.42,2.59-6-3.17-1.61,2.83-4.56-6.44-1.13.4c.51,1.8,1,3.61,1.59,5.72-5.43-.32-3.28-6.23-7.14-9,.21,2.8.35,4.69.5,6.58l-1.23.51-4.2-8.81L37,124.48,25.47,104.27l1.19-.77,7.13,10.93.9-.52q-2.14-3.9-4.3-7.81l.65-.4a23.08,23.08,0,0,1,1.6,2C34.1,110,46.45,122.4,49.73,124l-6.19-9.51,1-.8c1.7,2,3.38,3.93,5.09,5.87A22.78,22.78,0,0,0,56,125.08L49.7,115,51.41,114l10.94,11.79.77-.49c-.71-1.41-1.43-2.81-2.47-4.85,3.37,0,6.53.53,9.43-.11,5.08-1.14,5.38,4.46,9.68,5.68-1.63-2.57-2.94-4.63-4.26-6.68l.34-.46,3.4,2.83,10-1.33c-.14-.73-.4-2-.91-4.63,4.74,5.84,8.19,12.36,16.06,6.13-.29-.62-.8-1.7-1.64-3.51l7.06,5.56c.2-1.13.32-1.84.49-2.81l10.35,9.66,1.45-.85-3.66-8.16,4.43,2.88.77-.66-5.31-6.24.61-.65,10.46,9.59.95-.82-6.7-8.25.33-.28,10.89,8.4,1-.86-1.61-5.17c9.43,6.39,12.61-1.94,18-6.53-.26,2-.44,3.44-.64,4.93,3.18.11,6.76,1.27,9,0,2.48-1.36,3.75-4.93,5.88-8l1.74,4.19Z"/><path class="cls-3" d="M202.1,131.91c0-8.49,0-17,.09-25.47,0-.59,1.32-1.17,2-1.71V132Z"/><path class="cls-3" d="M8.51,105.46l9.77,6.3C13.25,112.79,9,110.22,8.51,105.46Z"/><path class="cls-4" d="M71.4,147.44,84,155.54c-4.72,2.19-7.49-1.41-10.57-2.67C72.36,152.42,72.19,149.71,71.4,147.44Z"/><path class="cls-4" d="M111.37,155.67c-3.85-2.25-6.28,7.84-11.44.48C104.44,156.94,107.17,151.23,111.37,155.67Z"/></g></g></g></svg>