<svg xmlns="http://www.w3.org/2000/svg" xmlns:xlink="http://www.w3.org/1999/xlink" viewBox="0 0 645.77 653.66"><defs><style>.cls-1{fill:none;}.cls-2{clip-path:url(#clip-path);}.cls-3{fill:#fff;}.cls-4{fill:#6c55ff;opacity:0.5;}</style><clipPath id="clip-path" transform="translate(0 0)"><circle class="cls-1" cx="322.99" cy="330.75" r="322.5"/></clipPath></defs><title>arya</title><g id="Layer_2" data-name="Layer 2"><g id="Layer_1-2" data-name="Layer 1"><g class="cls-2"><g id="fnYfhg.tif"><path d="M645.77,1.14V653.66H483.48c5.3-3.46,10.43-7.2,15.91-10.32q21.33-12.11,42.93-23.73c4.33-2.33,4.84-5.71,4.17-9.93s-3.1-6.22-7.24-6.41c-3-.14-6-.28-9-.39-8.6-.31-17.24-.22-25.78-1.12-2.82-.29-5.65-2.79-8-4.85-2.91-2.6-5.07-6-8-8.65-3.42-3.1-5.57-2.14-7.05,2.48-.7,2.2-1.74,4.29-3.18,7.79-7.36-8.29-13.92-15.56-20.3-23-.89-1-.92-2.82-1.31-4.27-1.12-4.14-2-8.37-3.43-12.41-.51-1.42-2.3-2.38-4-4.08.28-3.79.63-8.69,1-13.59l-1.93-.33-3.1,4.59-1-.43,1.46-9.51c-6.91-2.58-10.66,2.64-15.49,6-9.38,6.49-18.51,14.27-29,18-15.56,5.59-32.18,8.29-48.4,12-9.06,2.07-18.54,1.19-26.38-2.91-14-7.33-29.2-12.78-41-24.08-1.85-1.77-6.83-2.91-8.42-1.73-2.84,2.11-5.83,6.18-5.88,9.48A193,193,0,0,0,273,582c3.31,23.79,6.14,47.59,5.37,71.67h-4.51c-.57-12.51-1.16-25-6.27-36.76a50.32,50.32,0,0,0-3.13-5.34c-1.81,1.87-4.28,3.44-5.29,5.67-2.38,5.25-3.83,10.92-6.1,16.23a17,17,0,0,1-7.92,8.78c-4.65,2.54-8,7.51-11.86,11.42H0V1.14c1.3.11,2.61.31,3.91.31q147.24,0,294.49-.07,128.64,0,257.3,0C585.73,1.39,615.75,1.23,645.77,1.14ZM198.39,206.49c-1.41,2.07-2.21,3.07-2.8,4.18a34.86,34.86,0,0,0-2.14,4.85c0,.13,1.8,1.31,2.1,1.1a30.22,30.22,0,0,0,4.77-4.34c.5-.58,0-2,.43-2.71,4.06-6.55,7.1-14.35,12.68-19.21,6.75-5.89,15.51-9.63,23.75-13.58a26.87,26.87,0,0,1,12.41-2.43c10,.47,20,1.91,30.06,2.74,13,1.08,26.06,2.4,39.11,2.77,8.93.25,15.54,5.74,23.3,8.55,1.09.39,1.91,2.25,2.34,3.6,1.14,3.57,2.06,7.21,2.93,10.85,1.35,5.62-.78,8-6.85,7.88-4.26-.09-8.54-.26-12.8-.14-17.69.48-34.17-5.1-50.81-9.95a35,35,0,0,0-9.84-1.49,168.11,168.11,0,0,0-18.77,1A143.38,143.38,0,0,0,227,203.82c-3.93,1.08-7.3,4.2-11.32,6.65,1.14,2.19,2.92,4.32,3.31,6.67.71,4.2,3.14,6.06,6.84,7.2,1.74.53,3.23,1.86,5,2.43,3.08,1,6.35,2.72,9.38,2.43,12.12-1.14,24.14-3.38,36.26-4.36a215.05,215.05,0,0,1,29.71-.37c7.83.45,13.67,5.11,18.51,12.87a16.68,16.68,0,0,1-3-1.18c-12.76-10-27.46-10.94-42.76-9.39-3.08.31-4.45,1.18-2.57,5l3.32-3.67c2,3,4,5.36,8.26,3.38,2.22-1,5.14-1.05,7.67-.8,2.87.29,5.65,1.4,9.77,2.5,7.44,7.45,20.07,11.29,27.74,21.1l-.95,1.39-26.7-12.89c-2.16,5.29-3.13,10.49-6.09,14-2.75,3.3-7.62,4.83-11.56,7.14l.35,1.54,7.09-.88c-1,4.54-1.9,8.83-2.94,13.68,1.61-.33,4-.37,4.19-.95.77-3.33,1-6.78,1.6-11.69,1.54,5.32,2.72,9.35,4.06,14-1.72.67-4.06,2.11-6.55,2.45a176.57,176.57,0,0,1-20,1.84c-6.65.15-12.51-1-16.7-7.89-2.24-3.7-8-5.3-12.22-7.73-.45-.26-1.44.6-2.06.45a71.69,71.69,0,0,1-7.15-2.16c-.84-.31-1.38-1.45-2.22-1.72-10.28-3.39-19.52-8.11-25.15-18.06a9.33,9.33,0,0,0-4.25-3.46c-4.34-1.88-8.85-3.4-13.52-5.16-.13.41-.64,1.13-.53,1.75,2.06,11.89,2.67,24.31,6.67,35.52,6.27,17.52,14.92,34.19,22.4,51.29,3.28,7.49,6.13,15.18,9.25,22.74,1.64,3.95,3.52,7.8,5.16,11.75,1.32,3.19,2.58,6.42,3.65,9.71,1.53,4.72,2.85,9.5,4.26,14.25,1.21,4.09,3,8.1,3.5,12.28.71,5.49-1.11,11.79,1,16.51,3.61,8.25,9.19,15.67,14.28,23.2,2.92,4.33,7.1,7.86,9.68,12.34,6.73,11.64,13.4,22.89,23.37,32.55,12.08,11.7,24.29,22.55,39.26,30.47a90.27,90.27,0,0,0,56,10.13c18.68-2.52,33.28-13,48.21-22.95,5.54-3.67,10.11-8.87,14.9-13.59q10.15-10,20-20.4c4.8-5.11,7.95-11.45,14.52-15.26,11.59-6.72,15.88-19,20.1-30.76,1.81-5,2.77-10.81.29-16.42a10.55,10.55,0,0,1-.16-6.06c1.36-6.21,2.86-12.41,4.63-18.53,2.5-8.68,4.83-17.46,8.08-25.88,4.15-10.76,9.59-21,13.66-31.83,3.43-9.1,3.26-18.61.35-28-1.65-5.34-2.77-10.84-4.32-16.21a83.9,83.9,0,0,0-4.07-11.6,4.9,4.9,0,0,0-4.08-2.1c-1.25.16-2.52,1.85-3.36,3.14s-.85,3.57-2,4.46c-5.44,4.33-11.17,8.15-18.61,8.14-1.85,0-5.17.62-5.32,1.42-.77,4.11-3.69,3.79-6.45,3.81-6.1,0-12.39.84-18.25-.38-6.17-1.3-11.93-4.59-17.87-7l.42-1.46c3.86.75,7.48,1.73,8.76-3.87.31-1.38,5-3.36,6.25-2.62,3.61,2.12,6.42.58,9.58-.37,3.93-1.17,8-1.92,11.84-3.3,4.29-1.53,8.41-3.56,12.67-5.4-3-3.41-4.88-5.67-6.84-7.9-2.66-3-5-3.4-6.53,1-3.36,9.62-12.33,15-22.77,11.2-5.55-2-8.24-5.37-10.29-10-2.81-6.31-4.61-7.43-10.88-4.92-5.62,2.25-11.07,4.94-17.16,7.69.55-1.22.67-2.09,1.17-2.51,10.65-9.17,21.23-18.1,36.3-19.57,4.45-.44,11.46,1.92,13-4.91.67.85,1.6,3.15,2.72,3.24,5.83.51,11.71.45,17.57.59l.36-1.86c-4.29-6-11.4-6.21-17.77-7s-13.12-.18-19.69-.18c5.58-1.31,11.3-1.51,16.94-2.29,12.07-1.67,24,5.09,36.1.63.9-.33,2.22.22,3.25.6,3.82,1.39,5.51-.23,5.19-3.92-.64-7.09-1.23-14.22-2.56-21.2-.33-1.73-3.62-4.4-5.18-4.16a252.46,252.46,0,0,0-29,5.78c-10.09,2.79-19.68,7.43-29.82,9.89-7.87,1.9-16.27,1.48-24.38,2.47-9.31,1.13-9.55,1.16-12.68-6.49,2.77-5.23,5.3-10,8.28-15.6,3.84,5.12,5.74,3.24,8.3,0,3.2-4,6.81-8,12.9-7.74a27.58,27.58,0,0,0,7.69-1c1.77-.44,3.29-1.87,5.06-2.33,10-2.62,20.12-5,30.17-7.61,3.24-.83,6.38-2.39,9.66-2.76,12.87-1.46,13.25-1.88,9.54-14.27-.11-.35-.22-.71-.34-1.07C498.5,125.51,486.77,98.56,470.07,74c-2.74-4-7.1-7.54-8.28-11.94-1.34-5-4.89-6.31-8.07-9-6.78-5.75-17.35-.42-23.09-8.44a.67.67,0,0,0-.52-.19c-4.76.29-9.52.62-14.28.9a35,35,0,0,1-4.91.06,82.09,82.09,0,0,1-8.72-1.09C396.09,43.08,390,41.82,384,40.24c-4.55-1.2-8.92-3-13.43-4.36-2.63-.78-6.18-.3-7.92-1.9a17.45,17.45,0,0,0-14-4.75c-3.7.41-5.43-.9-8.25-2.43s-6.9-3.81-11.17-.95c-1.65,1.1-4.81-.07-7.28-.21l-.15-1.86-3.34,5c3.08-5.8-5.59-1.21-4.51-5.2C311.08,33,303.44,25,298.66,27.7c-.51.29-2.24-1.59-3.45-2.5-3.27,4.2-8.9-.76-13.29,3.65-3.59,3.59-10.19,4.15-15.38,6.23-.64.25-1,1.57-1.2,2.46-1.73,9.36-1.72,9.35-11.61,11.22A36.84,36.84,0,0,0,249.38,50a5.89,5.89,0,0,0-1.35,1c.86,1.47,1.66,2.84,2.69,4.62a56.59,56.59,0,0,0-5.94,2.66c-1.53.9-4,2.25-4,3.34.19,6.57-4.28,9.56-8.72,12.77-.65.47-.94,1.44-1.38,2.15l3.88,3c-.4.78-.49,1.22-.76,1.41a2.83,2.83,0,0,1-1.48.64c-6.24,0-10,2.32-10,9.23,0,1.9-1.49,3.78-2.17,5.71a64.2,64.2,0,0,0-3,9.33c-1.27,6.67,2.59,14.5-4.71,19.8-1,.75-1.64,2.1-3.44,4.51l8.65-3.74c-6.11,7.6-12.59,15.66-19.21,23.91,1.15.79,1.56,1.1,2,1.36s1.1.61,2,1.09c-14,15.39-18,32.51-11,51.93ZM169.83,308.35c-3.35-11.57-6.72-23.06-10-34.58-1.37-4.83-2.23-9.81-3.83-14.56-.6-1.76-2.65-3-4-4.53-1.28,2.09-3.61,4.17-3.64,6.29-.14,9,.41,17.93.69,26.89.24,7.43,3.69,12.86,10.33,16.1C162.83,305.66,166.5,307,169.83,308.35Zm8.93,34.76,2-.67c-.78-3.84-.58-8.29-2.53-11.4-4.22-6.75-9.39-13-14.52-19.08-1.19-1.42-3.78-1.67-5.72-2.46,0,2.07-.77,4.68.19,6.14,5.85,8.84,12.07,17.43,18.24,26.06C176.94,342.37,178,342.65,178.76,343.11Zm78.77-85.75,17.32,5.37,1-1.54c-1-1.44-1.94-2.91-3-4.3-1.94-2.56-3.94-5.08-5.91-7.62Z" transform="translate(0 0)"/><path class="cls-3" d="M278.37,653.66c.77-24.08-2.06-47.88-5.37-71.67a193,193,0,0,1-1.88-29.7c.05-3.3,3-7.37,5.88-9.48,1.59-1.18,6.57,0,8.42,1.73,11.78,11.3,27,16.75,41,24.08,7.84,4.1,17.32,5,26.38,2.91,16.22-3.71,32.84-6.41,48.4-12,10.48-3.77,19.61-11.55,29-18,4.83-3.34,8.58-8.56,15.49-6L444.2,545l1,.43,3.1-4.59,1.93.33c-.36,4.9-.71,9.8-1,13.59,1.74,1.7,3.53,2.66,4,4.08,1.42,4,2.31,8.27,3.43,12.41.39,1.45.42,3.23,1.31,4.27,6.38,7.43,12.94,14.7,20.3,23,1.44-3.5,2.48-5.59,3.18-7.79,1.48-4.62,3.63-5.58,7.05-2.48,2.89,2.62,5.05,6,8,8.65,2.32,2.06,5.15,4.56,8,4.85,8.54.9,17.18.81,25.78,1.12,3,.11,6,.25,9,.39,4.14.19,6.58,2.21,7.24,6.41s.16,7.6-4.17,9.93q-21.59,11.64-42.93,23.73c-5.48,3.12-10.61,6.86-15.91,10.32Z" transform="translate(0 0)"/><path class="cls-3" d="M233.29,653.66c3.89-3.91,7.21-8.88,11.86-11.42a17,17,0,0,0,7.92-8.78c2.27-5.31,3.72-11,6.1-16.23,1-2.23,3.48-3.8,5.29-5.67a50.32,50.32,0,0,1,3.13,5.34c5.11,11.72,5.7,24.25,6.27,36.76Z" transform="translate(0 0)"/><path class="cls-3" d="M645.77,1.14c-30,.09-60,.25-90.07.26q-128.66,0-257.3,0-147.25,0-294.49.07c-1.3,0-2.61-.2-3.91-.31C.19.76.36.07.57.06c1.49-.09,3,0,4.5,0Q322.89,0,640.7.06A24.17,24.17,0,0,1,645.77,1.14Z" transform="translate(0 0)"/><path class="cls-3" d="M198.39,206.49l-7.06-1.87c-7-19.42-3-36.54,11-51.93-.87-.48-1.43-.77-2-1.09s-.84-.57-2-1.36c6.62-8.25,13.1-16.31,19.21-23.91L209,130.07c1.8-2.41,2.4-3.76,3.44-4.51,7.3-5.3,3.44-13.13,4.71-19.8a64.2,64.2,0,0,1,3-9.33c.68-1.93,2.17-3.81,2.17-5.71,0-6.91,3.76-9.28,10-9.23a2.83,2.83,0,0,0,1.48-.64c.27-.19.36-.63.76-1.41l-3.88-3c.44-.71.73-1.68,1.38-2.15,4.44-3.21,8.91-6.2,8.72-12.77,0-1.09,2.47-2.44,4-3.34a56.59,56.59,0,0,1,5.94-2.66c-1-1.78-1.83-3.15-2.69-4.62a5.89,5.89,0,0,1,1.35-1,36.84,36.84,0,0,1,4.35-1.19c9.89-1.87,9.88-1.86,11.61-11.22.17-.89.56-2.21,1.2-2.46,5.19-2.08,11.79-2.64,15.38-6.23,4.39-4.41,10,.55,13.29-3.65,1.21.91,2.94,2.79,3.45,2.5,4.78-2.7,12.42,5.27,15.28-4.14-1.08,4,7.59-.6,4.51,5.2l3.34-5,.15,1.86c2.47.14,5.63,1.31,7.28.21,4.27-2.86,8.24-.65,11.17.95s4.55,2.84,8.25,2.43a17.45,17.45,0,0,1,14,4.75c1.74,1.6,5.29,1.12,7.92,1.9C375,37.22,379.4,39,384,40.24c6,1.58,12.14,2.84,18.25,4.07a82.09,82.09,0,0,0,8.72,1.09,35,35,0,0,0,4.91-.06c4.76-.28,9.52-.61,14.28-.9a.67.67,0,0,1,.52.19c5.74,8,16.31,2.69,23.09,8.44,3.18,2.69,6.73,4,8.07,9,1.18,4.4,5.54,7.9,8.28,11.94,16.7,24.55,28.43,51.5,38.14,79.41.12.36.23.72.34,1.07,3.71,12.39,3.33,12.81-9.54,14.27-3.28.37-6.42,1.93-9.66,2.76-10.05,2.56-20.13,5-30.17,7.61-1.77.46-3.29,1.89-5.06,2.33a27.58,27.58,0,0,1-7.69,1c-6.09-.24-9.7,3.72-12.9,7.74-2.56,3.21-4.46,5.09-8.3,0-3,5.61-5.51,10.37-8.28,15.6,3.13,7.65,3.37,7.62,12.68,6.49,8.11-1,16.51-.57,24.38-2.47,10.14-2.46,19.73-7.1,29.82-9.89a252.46,252.46,0,0,1,29-5.78c1.56-.24,4.85,2.43,5.18,4.16,1.33,7,1.92,14.11,2.56,21.2.32,3.69-1.37,5.31-5.19,3.92-1-.38-2.35-.93-3.25-.6-12.12,4.46-24-2.3-36.1-.63-5.64.78-11.36,1-16.94,2.29,6.57,0,13.23-.63,19.69.18s13.48,1,17.77,7l-.36,1.86c-5.86-.14-11.74-.08-17.57-.59-1.12-.09-2.05-2.39-2.72-3.24-1.55,6.83-8.56,4.47-13,4.91-15.07,1.47-25.65,10.4-36.3,19.57-.5.42-.62,1.29-1.17,2.51,6.09-2.75,11.54-5.44,17.16-7.69,6.27-2.51,8.07-1.39,10.88,4.92,2,4.59,4.74,7.93,10.29,10,10.44,3.82,19.41-1.58,22.77-11.2,1.53-4.37,3.87-4,6.53-1,2,2.23,3.89,4.49,6.84,7.9-4.26,1.84-8.38,3.87-12.67,5.4-3.85,1.38-7.91,2.13-11.84,3.3-3.16.95-6,2.49-9.58.37-1.25-.74-5.94,1.24-6.25,2.62-1.28,5.6-4.9,4.62-8.76,3.87l-.42,1.46c5.94,2.41,11.7,5.7,17.87,7,5.86,1.22,12.15.42,18.25.38,2.76,0,5.68.3,6.45-3.81.15-.8,3.47-1.42,5.32-1.42,7.44,0,13.17-3.81,18.61-8.14,1.12-.89,1.08-3.11,2-4.46s2.11-3,3.36-3.14a4.9,4.9,0,0,1,4.08,2.1,83.9,83.9,0,0,1,4.07,11.6c1.55,5.37,2.67,10.87,4.32,16.21,2.91,9.43,3.08,18.94-.35,28-4.07,10.8-9.51,21.07-13.66,31.83-3.25,8.42-5.58,17.2-8.08,25.88-1.77,6.12-3.27,12.32-4.63,18.53a10.55,10.55,0,0,0,.16,6.06c2.48,5.61,1.52,11.38-.29,16.42-4.22,11.74-8.51,24-20.1,30.76-6.57,3.81-9.72,10.15-14.52,15.26q-9.78,10.39-20,20.4c-4.79,4.72-9.36,9.92-14.9,13.59-14.93,9.9-29.53,20.43-48.21,22.95a90.27,90.27,0,0,1-56-10.13c-15-7.92-27.18-18.77-39.26-30.47-10-9.66-16.64-20.91-23.37-32.55-2.58-4.48-6.76-8-9.68-12.34-5.09-7.53-10.67-14.95-14.28-23.2-2.07-4.72-.25-11-1-16.51-.53-4.18-2.29-8.19-3.5-12.28-1.41-4.75-2.73-9.53-4.26-14.25-1.07-3.29-2.33-6.52-3.65-9.71-1.64-4-3.52-7.8-5.16-11.75-3.12-7.56-6-15.25-9.25-22.74-7.48-17.1-16.13-33.77-22.4-51.29-4-11.21-4.61-23.63-6.67-35.52-.11-.62.4-1.34.53-1.75,4.67,1.76,9.18,3.28,13.52,5.16a9.33,9.33,0,0,1,4.25,3.46c5.63,10,14.87,14.67,25.15,18.06.84.27,1.38,1.41,2.22,1.72a71.69,71.69,0,0,0,7.15,2.16c.62.15,1.61-.71,2.06-.45,4.23,2.43,10,4,12.22,7.73,4.19,6.91,10.05,8,16.7,7.89a176.57,176.57,0,0,0,20-1.84c2.49-.34,4.83-1.78,6.55-2.45-1.34-4.65-2.52-8.68-4.06-14-.6,4.91-.83,8.36-1.6,11.69-.14.58-2.58.62-4.19.95,1-4.85,2-9.14,2.94-13.68l-7.09.88-.35-1.54c3.94-2.31,8.81-3.84,11.56-7.14,3-3.54,3.93-8.74,6.09-14l26.7,12.89.95-1.39c-7.67-9.81-20.3-13.65-27.74-21.1-4.12-1.1-6.9-2.21-9.77-2.5-2.53-.25-5.45-.24-7.67.8-4.23,2-6.25-.36-8.26-3.38l-3.32,3.67c-1.88-3.78-.51-4.65,2.57-5,15.3-1.55,30-.58,42.76,9.39a16.68,16.68,0,0,0,3,1.18c-4.84-7.76-10.68-12.42-18.51-12.87a215.05,215.05,0,0,0-29.71.37c-12.12,1-24.14,3.22-36.26,4.36-3,.29-6.3-1.41-9.38-2.43-1.73-.57-3.22-1.9-5-2.43-3.7-1.14-6.13-3-6.84-7.2-.39-2.35-2.17-4.48-3.31-6.67,4-2.45,7.39-5.57,11.32-6.65a143.38,143.38,0,0,1,21.28-3.65,168.11,168.11,0,0,1,18.77-1,35,35,0,0,1,9.84,1.49c16.64,4.85,33.12,10.43,50.81,9.95,4.26-.12,8.54.05,12.8.14,6.07.13,8.2-2.26,6.85-7.88-.87-3.64-1.79-7.28-2.93-10.85-.43-1.35-1.25-3.21-2.34-3.6-7.76-2.81-14.37-8.3-23.3-8.55-13.05-.37-26.09-1.69-39.11-2.77-10-.83-20-2.27-30.06-2.74a26.87,26.87,0,0,0-12.41,2.43c-8.24,3.95-17,7.69-23.75,13.58-5.58,4.86-8.62,12.66-12.68,19.21-.45.72.07,2.13-.43,2.71a30.22,30.22,0,0,1-4.77,4.34c-.3.21-2.14-1-2.1-1.1a34.86,34.86,0,0,1,2.14-4.85C196.18,209.56,197,208.56,198.39,206.49ZM333.83,347.61c-.42,12.92,5.53,19,17.53,18.51,6.93-.28,13.77-.75,20.05,3.43a11.68,11.68,0,0,0,7,1.37c12.41-1.1,24.9-1.93,37.12-4.16,3.54-.65,6.86-5.25,9.23-8.75,1.78-2.63,0-5.63-3.57-4.6-4.67,1.35-6.58-1.47-8.61-4.41-4-5.79-4.54-5.93-10.1-1.35-1.59,1.31-3,2.83-4.52,4.22-5.21,4.74-19.84,5.88-25.74,1.89-2.63-1.78-5-3.95-7.61-5.79-5.53-3.93-11.72-1.21-13.63,7.57l-11.56-10.35a19.7,19.7,0,0,1-.29,2.83,34.43,34.43,0,0,1-1.39,3.72Zm-25.18,63.1.11,1.86c12.73,8.89,27.4,5.44,41.4,6.15,5.9.3,11.82.06,17.73.17,9.87.19,19.74.54,29.62.68,6.06.08,12.15-.48,18.19-.12,7.87.47,15.43.06,22.66-4.25a30.58,30.58,0,0,0-8.66-2.82c-4.88-1.05-10-1.5-14.59-3.29-7.48-2.92-14.86-4.84-23-3.87-5.54.67-11.39,1.43-16.76.38-14.65-2.86-28.64-.58-42.78,3-5.12,1.31-10.71.69-16.08,1.08C313.87,409.9,311.26,410.37,308.65,410.71Zm52.37,42,28,1.42C379.68,446,367.31,445.45,361,452.71Z" transform="translate(0 0)"/><path class="cls-3" d="M169.83,308.35c-3.33-1.38-7-2.69-10.47-4.39-6.64-3.24-10.09-8.67-10.33-16.1-.28-9-.83-17.93-.69-26.89,0-2.12,2.36-4.2,3.64-6.29,1.39,1.5,3.44,2.77,4,4.53,1.6,4.75,2.46,9.73,3.83,14.56C163.11,285.29,166.48,296.78,169.83,308.35Z" transform="translate(0 0)"/><path class="cls-3" d="M178.76,343.11c-.78-.46-1.82-.74-2.3-1.41-6.17-8.63-12.39-17.22-18.24-26.06-1-1.46-.17-4.07-.19-6.14,1.94.79,4.53,1,5.72,2.46,5.13,6.13,10.3,12.33,14.52,19.08,1.95,3.11,1.75,7.56,2.53,11.4Z" transform="translate(0 0)"/><path class="cls-3" d="M257.53,257.36l9.39-8.09c2,2.54,4,5.06,5.91,7.62,1.05,1.39,2,2.86,3,4.3l-1,1.54Z" transform="translate(0 0)"/><path d="M333.83,347.61l3.95,4.13a34.43,34.43,0,0,0,1.39-3.72,19.7,19.7,0,0,0,.29-2.83L351,355.54c1.91-8.78,8.1-11.5,13.63-7.57,2.6,1.84,5,4,7.61,5.79,5.9,4,20.53,2.85,25.74-1.89,1.52-1.39,2.93-2.91,4.52-4.22,5.56-4.58,6.11-4.44,10.1,1.35,2,2.94,3.94,5.76,8.61,4.41,3.59-1,5.35,2,3.57,4.6-2.37,3.5-5.69,8.1-9.23,8.75-12.22,2.23-24.71,3.06-37.12,4.16a11.68,11.68,0,0,1-7-1.37c-6.28-4.18-13.12-3.71-20.05-3.43C339.36,366.61,333.41,360.53,333.83,347.61Z" transform="translate(0 0)"/><path d="M308.65,410.71c2.61-.34,5.22-.81,7.84-1,5.37-.39,11,.23,16.08-1.08,14.14-3.61,28.13-5.89,42.78-3,5.37,1,11.22.29,16.76-.38,8.14-1,15.52.95,23,3.87,4.59,1.79,9.71,2.24,14.59,3.29a30.58,30.58,0,0,1,8.66,2.82c-7.23,4.31-14.79,4.72-22.66,4.25-6-.36-12.13.2-18.19.12-9.88-.14-19.75-.49-29.62-.68-5.91-.11-11.83.13-17.73-.17-14-.71-28.67,2.74-41.4-6.15Z" transform="translate(0 0)"/><path d="M361,452.71c6.29-7.26,18.66-6.69,28,1.42Z" transform="translate(0 0)"/></g></g><circle class="cls-4" cx="322.99" cy="330.75" r="322.5"/></g></g></svg>