<svg xmlns="http://www.w3.org/2000/svg" xmlns:xlink="http://www.w3.org/1999/xlink" viewBox="0 0 646 645.42"><defs><style>.cls-1{fill:none;}.cls-2{clip-path:url(#clip-path);}.cls-3{fill:#fff;}.cls-4{fill:#3e7400;opacity:0.5;}</style><clipPath id="clip-path"><circle class="cls-1" cx="323.5" cy="322.96" r="322.5"/></clipPath></defs><title>gilly</title><g id="Layer_2" data-name="Layer 2"><g id="Layer_1-2" data-name="Layer 1"><g class="cls-2"><g id="kI6QOd"><path d="M98.12,645.42H0V0H645.42V645.42H585.54c-.61-3.16-2.13-5.27-5.83-5.48.39,2.17.68,3.83,1,5.48H342.24c2.11-4,4.69-7.55,2.95-12.77-1-3.13-.21-6.94.06-10.42.16-2,1.2-4-1.95-4.69a3,3,0,0,1-1.93-1.77c-1.09-4.1-2-8.25-2.87-12.15,3.83,2.68,5.24,2.08,5.76-2.84a24.05,24.05,0,0,0-.12-4.32c-.44-5.5-.92-11-1.38-16.48l-4.14-1.14,1.66-5.15-8.38-2.76c-1-4.55-5.74-3.15-9.88-5.27,2.44,4.84,4.32,8.59,6.26,12.46l2.49-1.89a23.92,23.92,0,0,0-.43,4.16,14.85,14.85,0,0,0,.94,3.85,68.28,68.28,0,0,1,2.84,37.52c-.8,4,.12,9.35-6.6,9.65h4.18l-7.3,14h-4.06A31.48,31.48,0,0,0,324,623.88c-3.43,6.13-6.46,11.41-9.33,16.78a29.28,29.28,0,0,0-1.61,4.76h-4.86a16.5,16.5,0,0,0,1.71-2.23c1.17-2.17,3.81-3.29,2.32-7.13-1-2.55,1.1-6.55,2.39-9.67,1.6-3.86,4.1-7.36,5.62-11.24.91-2.34.7-5.12,1.06-8.22a19.4,19.4,0,0,0-9.38,10.72c-.36,1.22.72,2.88,1.17,4.45-3.16,1.71-5.15,4.09-3.75,8.06-4.17-.69-8.35,4-7.3,7.63.73,2.53,1.4,5.09,2.1,7.63H107a25.46,25.46,0,0,0-1.28-4.89c-4.45-9.23-9.05-18.39-13.54-27.61-1.1-2.26-2-4.64-3.17-7.51-2.22,3.14-.09,15.05,2.09,16.51.08.05.35-.09.38,0,.25.39.78,1,.66,1.19-1.47,2.46.45,2.92,2,3.66,2.65,1.23,6.17,7.25,5.7,11.46l-6.42-7-.72.19c.78,2.85,1.55,5.7,2.38,8.73l5.22-1L103.5,644l-6.71-2.85ZM303.11,254c.65-1.94.18-5,3.91-3.79-1.27-3.4-1.84-3.24-7,2l3.17,1.69c.09,1.81.19,3.62.29,5.43l-12.76-4.39c-1.07,2.68-5.41,4.7-.68,7.67.17.1.16.94-.05,1.13-2,1.77-4.38,5.23-6,4.91-6.73-1.33-12.62,1.41-18.16,2.4a29.82,29.82,0,0,0,.38,4c.36,1.57.53,3.79,1.6,4.49,2.27,1.48,3,2.88,1.72,5.27a4.84,4.84,0,0,0-.16,1.58l2.84-.7c.4,4.13,1,8,1.08,11.85,0,2.58.9,3.79,3.38,3.91.34,4.17,1.24,8.32.8,12.32-.27,2.49,1.35,4.66.18,7.31-.94,2.13,2.35,4.79,4.83,4.64s5.27,0,7,0l12-6.67c.33-1.52,1-3.89,1.33-6.29a5.23,5.23,0,0,0-.37-3.45c-2.78-3.92-2.64-8-1.57-12.43,1.14-4.78,3-9.73-.35-14.47.7-1.05,1.39-2.09,2.42-3.62-1.47.36-2.82,1-3,.71a53.81,53.81,0,0,1-4.29-6.58c-.18-.31,1-2,1.35-1.89,3.8.86,4.51-2.24,5.31-4.46s.73-4.9,1-7.38l5.45-1.78c-.3-.81-.37-1.92-.95-2.38C306.49,253.94,305.17,251.91,303.11,254ZM296.7,579.11l-3.82-8.43-4,5.23,7.89,3.1c.86,2.17,1.71,4.35,2.62,6.64l4.3-1.3c-1.16-2.51-2.18-4.7-3.17-6.83Zm7-124.54a.32.32,0,0,1,.38-.25c0-1.08,0-2.17,0-3.25l-.19-.2L295,439.65c-.29.77-.59,1.53-.93,2.41L291,439.41v9.07c2.29-2.56,3.61-2.43,4.78-.32,1.55,2.81,3.19,5.57,4.78,8.34Zm257.16,45.72c-2.74-.4-5,.19-6.3,3.21h4.16l-2.09,1.2c.7,8.85,8.59,3.4,12.38,6.71-1.12-2.83-1.9-5.62-3.31-8.05-.76-1.32-2.6-2-4-3,1.47.26,2.78.06,1.49-1.72s-6.26-1.6-8.38.19ZM420.6,143a70.36,70.36,0,0,1-7.71-2.56,51.94,51.94,0,0,1-7.07-4.16c-1.8-1.19-3.25-3.22-5.18-3.82A87.54,87.54,0,0,0,387,129.44c-3-.43-6.24.35-9.28-.08-5.51-.76-10.94-2.08-16.42-3.06-4.07-.73-7.6.17-10.32,3.63-.6.77-2.6,1.57-2.95,1.25-2.67-2.42-5.38-2.18-8.65-1.35-4.92,1.25-10,1.86-15,2.68-2.95.49-6.13.36-8.82,1.44-2.48,1-4.55,3.15-6.54,5.07-.37.36.89,2.11.65,3-.37,1.39-1.47,2.56-2.13,3.89-1,2-2.83,4.2-2.69,6.2.29,4.12-3,7.84-1.07,12,0,.12-.56.5-.81.79-1.48,1.7-3.26,3.24-4.33,5.17-1.22,2.17-1.62,4.79-2.71,7.05s-2.49,4.5,2.41,6.34l-9.15,4.75A16.77,16.77,0,0,0,296.36,204a103.68,103.68,0,0,0,19,10.7c7.8,3.4,13.66,8,17.35,16,1.72,3.73,1,7.22,1.63,10.76.68,3.88.1,8,.26,12a85.56,85.56,0,0,0,.87,9.73c.57,3.67,2.29,7.33,2.08,10.92-.51,8.38-1.95,16.7-2.82,25.07a7.52,7.52,0,0,0,.95,4.72,68.36,68.36,0,0,0,6.87,8.24c1.85,1.94,1.52,3.45-.11,5.19-1.31,1.4-2.51,2.9-4,4.61-8.27-.12-11.27,2.26-11,8.74-.94.75-2,1.23-2.41,2a2.41,2.41,0,0,0,.89,2.23A68,68,0,0,0,337.23,339c2.88.62,6.06-.23,9.06.07,8.89.87,17.76,2,27.5,3.1a28.67,28.67,0,0,1-4.29,2.19c-8.12,2.43-16.29,4.72-24.4,7.17a2.71,2.71,0,0,0-1.5,2,4.18,4.18,0,0,0,1,2.73,20.62,20.62,0,0,0,3.27,2.47,30.49,30.49,0,0,0-4.15,2.65c-1.14,1-3,2.76-2.73,3.52,1,2.79-.85,3.42-2.45,3.49-3.31.13-6.63-.47-9.95-.46s-6.66-.13-9.63.88c-1.47.5-1.91,3.59-3.16,5.24-1.75,2.31-2.15,2.85-.78,3.49,3.51,1.62,3.64,4.17,2.91,7.34a4.26,4.26,0,0,0,.42,2.73c1.95,3.55,3.88,7.13,6.16,10.47.89,1.31,2.23,2.8,4.55,1.71a54.43,54.43,0,0,1,6.68-2.27c2.16.86,4.07,1.75,6.06,2.36,2.51.78,5.15,2,7.63,1.82,5-.39,10.08-1.12,13.75-5.46a116.55,116.55,0,0,1,10.87-11.66c4.66-4.18,10.31-7.32,14.64-11.78a213.72,213.72,0,0,0,18.11-21.28c8.55-11.5,13.77-24.62,17-38.59C430,286,439.75,259.87,441,232c.52-11.55,1.19-23.1,1.15-34.64,0-5.36-1.39-10.75-2.52-16a74.36,74.36,0,0,0-3.71-12.54c-1.42-3.47-4.38-6.39-5.39-9.92-1.76-6.12-6-9.44-11.31-12.28ZM325.29,452.51c5.95-1.65,11.2-4.09,14.2-9.83.9-1.73,1.56-3.84,3-5,3.65-2.94,4.41-6.24,2.59-10.42-.27-.61-.27-1.89.11-2.16,2.66-1.9.89-7,5.42-7.52.22,0,.25-1.21.45-1.83a32.38,32.38,0,0,1,1.49-4.25,43,43,0,0,1,2.47-3.95c-2-2.27-3.5-2.42-6.16-1.21-6.05,2.75-12.47,4.69-18.82,7,0,.39.08,1.06.11,1.55l-5.05-2.37c-.56,1.29-.92,2.12-1,2.22l-12.55,1.95c.2.84.35,1.46.58,2.44-3.09-.95-5.91-2.29-6.48,1.1-3.54-1-7.3-3.37-10-2.51-3.2,1-5.44,1.33-8.16-.42-.6-.39-1.59-.19-3.15-.32l3.52,2.53-1.09.58c.73,2.07,1.58,4.12,2.16,6.23,1.43,5.2,4.48,9.07,8.44,12.78a43,43,0,0,1,8.54,12c2.3,4.57,3.48,9.71,5.15,14.6l1-.7c1.34.64,3,1,4,2a58,58,0,0,1,5.69,7.1c1.84,2.63,3.5,2.24,5-.1.82-1.29,1.74-2.88,1.68-4.3-.14-3.23,1.78-3.84,4.22-4.17C333.49,457,331.7,453.8,325.29,452.51Zm-26.62,55c1.25,2.73,2,5.23-1.56,6.58-.36.14-.65,1.53-.6,1.55,2.87,1.36.14,4.37,1.66,6.28l-2.81-1.54c1.65,5.62,2.93,10.82,4.77,15.82.73,2,3.28,3.39,3.93,5.4.88,2.75,1.95,3.36,4.52,2.33.56-.23,1.53.53,2.5.91l2.9-5.89v6.58c3.69-3.64,3.49-6.79-.22-9.48.76-3.47,1.88-7.07,2.23-10.73.27-2.74-.35-5.6-.8-8.36-.09-.53-1.21-.88-1.83-1.34a14.29,14.29,0,0,1-2.47-1.92c-2.65-3.08-5.2-6.24-7.89-9.51ZM588.4,634.65c-.78-2.14-1.57-4.28-2.26-6.18.26-2,.94-4.2.74-6.28-.66-6.94-1.59-13.85-2.51-20.75-.36-2.74-1.85-4.32-4.72-4,.15.35.31.71.47,1.06l-5.29,3.63,4.7-.27-2.72,3.7,3.59,2c-.35,1.23-.65,2.24-.82,2.83a10.33,10.33,0,0,0-2.14,0,34.86,34.86,0,0,0-.88,5.81c-.14,3.58,0,7.17,0,10.54,3.47-1.57,2.69,3.23,4.78,4.07l-3.68.2c.17,1.23,0,2.47.52,3.21.72,1,2,2.37,3,2.31C583.25,636.43,585.33,635.51,588.4,634.65ZM91.5,606.59a7.12,7.12,0,0,0-.37-2c-3.3-6.69-6.75-13.31-9.94-20.06-1.12-2.36-1.29-5.21-2.52-7.5-2-3.61-4.57-6.86-6.65-10.41-.78-1.34-.86-3.08-1.27-4.64l-2.19-8.28H67.12a27.42,27.42,0,0,0-.93,4.33c-.19,3.51,1.48,6.37,2.86,9.53s-.5,7.59,4.57,8.91c.25.07.55.69.52,1-.29,3.87,2.74,6.53,3.57,10,.26,1.08-.19,2.44.3,3.33,1.37,2.46,3.06,4.73,4.81,7.34-2.88,2.26-1.82,3.93,1.35,5.21C86.58,604.35,88.92,605.46,91.5,606.59Zm198.72-362,.24,1.49c4-.42,8.12-.47,12-1.34,5.72-1.26,6.31-3,3.53-8.05-.46-.82-.68-1.77-1.18-2.55-1.68-2.62-4-4.25-6.58-4.26l-3.6,5.05C296.86,238.32,296.86,238.32,290.22,244.59Zm18.65,344.7c-3.27,3.15,2.8,8.76-4.3,10.68l3,.45v10.11C318.07,605.17,315.53,595.38,308.87,589.29ZM277.74,340.9l2.91,15.92c6.24-8.48,6.36-9.67,1.34-15.26C281.3,340.8,279.41,341.13,277.74,340.9Zm49.43,286.8,1.26.2c3-3.92,4.16-24.09,1.1-27.66C328.71,609.74,327.94,618.72,327.17,627.7Zm15.67-123.52c-1.88-3.44-3.47-6.59-5.34-9.57-.61-1-2.05-2.16-2.94-2a6.51,6.51,0,0,0-3.93,2.31c-.44.6.54,2.33,1,3.5s1,2,1.7,3.4c2.39-.48,6.16-3.51,7.35,2.37A9.85,9.85,0,0,0,342.84,504.18Zm230.84,79.64c1.55-1.14,5.66,3.74,6.54-1.73.59-3.65-3.24-7.25-7.06-7.36C573.34,577.8,573.51,580.84,573.68,583.82ZM551.14,479l-1.53-.1-2.28,9.26.86.31,1.2-1.49,2.86,3.37,1.46-.8Q552.42,484.22,551.14,479ZM320.6,495.79l1.59-.16c2.31-2.65,1.23-8.31-2.4-12.63l-1.15.18Q319.62,489.48,320.6,495.79Zm-28-37.09-2,1.13,8.19,13.47,1.71-.75a35.73,35.73,0,0,0-2-5.27,56.53,56.53,0,0,0-3.46-4.49C294.15,461.49,293.43,460.07,292.63,458.7ZM338.17,358c.86-4.35-1.85-7.5-5.18-6.78a3.27,3.27,0,0,0-2,1.54c-.21.42.37,1.61.91,1.94C333.79,355.84,335.82,356.77,338.17,358ZM558.1,486.22l-.87.15c-.46,2.85-.91,5.7-1.48,9.2l5.9-1.36ZM328.44,535.87c-4.92,1.71-5.18,2.18-4.56,8.65,2.07.17,3.58.2,3.29-2.84C327,539.87,327.94,538,328.44,535.87ZM581,587.79l-1.85,0c-.61,2.49-1.21,5-2.07,8.48,2.15-.93,4.56-1.37,4.66-2.13C582,592.08,581.26,589.91,581,587.79ZM336.62,557a62,62,0,0,0,1.73,6.18c.28.72,1.26,1.69,1.84,1.64a2.69,2.69,0,0,0,1.83-1.74,3.08,3.08,0,0,0-.88-2.33A54.05,54.05,0,0,0,336.62,557Zm-22.7-56.53c-.37-.91-.64-3-1.43-3.26-1.75-.46-4.65-2.68-5.24,1.92Zm253.67,13.88c-.09-.67-.19-1.33-.29-2l-8.7,1.87c.1.5.19,1,.29,1.5ZM330.71,567.93c1.54-1,3.3-1.45,3.52-2.33.32-1.27-.49-2.81-.82-4.24l-1.47-.06ZM296.13,456.79l-1.65,1.53,5.08,5.89,1.3-1.1C299.28,461,297.71,458.89,296.13,456.79Zm23.75,73.47-1.29-.12-2.37,4.94h3.66Zm249.68-.72c-.09-.33-.19-.65-.29-1l-7.06-1-.55,1.06a26.55,26.55,0,0,0,4.63,1.56C567.32,530.36,568.47,529.78,569.56,529.54Z"/><path class="cls-3" d="M324.4,645.42l7.3-14h-4.18c6.72-.3,5.8-5.63,6.6-9.65a68.28,68.28,0,0,0-2.84-37.52,14.85,14.85,0,0,1-.94-3.85,23.92,23.92,0,0,1,.43-4.16l-2.49,1.89c-1.94-3.87-3.82-7.62-6.26-12.46,4.14,2.12,8.84.72,9.88,5.27l8.38,2.76-1.66,5.15,4.14,1.14c.46,5.48.94,11,1.38,16.48a24.05,24.05,0,0,1,.12,4.32c-.52,4.92-1.93,5.52-5.76,2.84.9,3.9,1.78,8,2.87,12.15a3,3,0,0,0,1.93,1.77c3.15.65,2.11,2.68,1.95,4.69-.27,3.48-1.1,7.29-.06,10.42,1.74,5.22-.84,8.8-2.95,12.77Z"/><path class="cls-3" d="M304.12,645.42c-.7-2.54-1.37-5.1-2.1-7.63-1-3.66,3.13-8.32,7.3-7.63-1.4-4,.59-6.35,3.75-8.06-.45-1.57-1.53-3.23-1.17-4.45a19.4,19.4,0,0,1,9.38-10.72c-.36,3.1-.15,5.88-1.06,8.22-1.52,3.88-4,7.38-5.62,11.24-1.29,3.12-3.37,7.12-2.39,9.67,1.49,3.84-1.15,5-2.32,7.13a16.5,16.5,0,0,1-1.71,2.23Z"/><path class="cls-3" d="M98.12,645.42l-1.33-4.29L103.5,644l-3.13-4.85-5.22,1c-.83-3-1.6-5.88-2.38-8.73l.72-.19,6.42,7c.47-4.21-3-10.23-5.7-11.46-1.58-.74-3.5-1.2-2-3.66.12-.2-.41-.8-.66-1.19,0,0-.3.09-.38,0-2.18-1.46-4.31-13.37-2.09-16.51,1.2,2.87,2.07,5.25,3.17,7.51,4.49,9.22,9.09,18.38,13.54,27.61a25.46,25.46,0,0,1,1.28,4.89Z"/><path class="cls-3" d="M313,645.42a29.28,29.28,0,0,1,1.61-4.76c2.87-5.37,5.9-10.65,9.33-16.78a31.48,31.48,0,0,1-3.64,21.54Z"/><path class="cls-3" d="M580.68,645.42c-.29-1.65-.58-3.31-1-5.48,3.7.21,5.22,2.32,5.83,5.48Z"/><path class="cls-3" d="M420.6,143l-1.39,3.5c5.28,2.84,9.55,6.16,11.31,12.28,1,3.53,4,6.45,5.39,9.92a74.36,74.36,0,0,1,3.71,12.54c1.13,5.29,2.5,10.68,2.52,16,0,11.54-.63,23.09-1.15,34.64-1.24,27.92-11,54.05-17.19,80.92-3.21,14-8.43,27.09-17,38.59a213.72,213.72,0,0,1-18.11,21.28c-4.33,4.46-10,7.6-14.64,11.78a116.55,116.55,0,0,0-10.87,11.66c-3.67,4.34-8.73,5.07-13.75,5.46-2.48.19-5.12-1-7.63-1.82-2-.61-3.9-1.5-6.06-2.36a54.43,54.43,0,0,0-6.68,2.27c-2.32,1.09-3.66-.4-4.55-1.71-2.28-3.34-4.21-6.92-6.16-10.47a4.26,4.26,0,0,1-.42-2.73c.73-3.17.6-5.72-2.91-7.34-1.37-.64-1-1.18.78-3.49,1.25-1.65,1.69-4.74,3.16-5.24,3-1,6.39-.87,9.63-.88s6.64.59,9.95.46c1.6-.07,3.46-.7,2.45-3.49-.27-.76,1.59-2.52,2.73-3.52a30.49,30.49,0,0,1,4.15-2.65,20.62,20.62,0,0,1-3.27-2.47,4.18,4.18,0,0,1-1-2.73,2.71,2.71,0,0,1,1.5-2c8.11-2.45,16.28-4.74,24.4-7.17a28.67,28.67,0,0,0,4.29-2.19c-9.74-1.12-18.61-2.23-27.5-3.1-3-.3-6.18.55-9.06-.07A68,68,0,0,1,326,334.93a2.41,2.41,0,0,1-.89-2.23c.39-.81,1.47-1.29,2.41-2-.29-6.48,2.71-8.86,11-8.74,1.47-1.71,2.67-3.21,4-4.61,1.63-1.74,2-3.25.11-5.19a68.36,68.36,0,0,1-6.87-8.24,7.52,7.52,0,0,1-.95-4.72c.87-8.37,2.31-16.69,2.82-25.07.21-3.59-1.51-7.25-2.08-10.92a85.56,85.56,0,0,1-.87-9.73c-.16-4,.42-8.08-.26-12-.61-3.54.09-7-1.63-10.76-3.69-8-9.55-12.59-17.35-16a103.68,103.68,0,0,1-19-10.7,16.77,16.77,0,0,1-7.16-15.79l9.15-4.75c-4.9-1.84-3.54-4-2.41-6.34s1.49-4.88,2.71-7.05c1.07-1.93,2.85-3.47,4.33-5.17.25-.29.86-.67.81-.79-1.9-4.18,1.36-7.9,1.07-12-.14-2,1.67-4.16,2.69-6.2.66-1.33,1.76-2.5,2.13-3.89.24-.9-1-2.65-.65-3,2-1.92,4.06-4.07,6.54-5.07,2.69-1.08,5.87-.95,8.82-1.44,5-.82,10.1-1.43,15-2.68,3.27-.83,6-1.07,8.65,1.35.35.32,2.35-.48,2.95-1.25,2.72-3.46,6.25-4.36,10.32-3.63,5.48,1,10.91,2.3,16.42,3.06,3,.43,6.25-.35,9.28.08a87.54,87.54,0,0,1,13.61,3.05c1.93.6,3.38,2.63,5.18,3.82a51.94,51.94,0,0,0,7.07,4.16A70.36,70.36,0,0,0,420.6,143ZM388.55,250.86c7.39-3.41,7.65-9.64,7.34-16.71a37.67,37.67,0,0,1,9.21,5.58c2.21,1.92,3.79,4.55,5.76,6.77s6.37,2.31,6.58,0a16.57,16.57,0,0,0-1-8.08c-2.8-6.2-8.94-7.89-14.85-9.29-4.56-1.08-9.3-1.39-14-2l-.12-.6,23.55-6.87-3.88-1.52,2.45-2-.27-1.11a49.78,49.78,0,0,0-6.48.33c-7.79,1.43-15.6,2.83-23.31,4.65-4.76,1.13-9.64,2.45-13.71,7.1l16.24.76a22.77,22.77,0,0,1-5,3.05,49.11,49.11,0,0,0-4.82,2.93c-6.06,4.19-6.37,7.68-1.08,12.93l-3.61,1.74c3.09,3,5.66,5.54,8.28,8,3.58,3.41,6.84,1.25,10.11-.64a.68.68,0,0,1,.4,0C391,256.51,390.18,254,388.55,250.86Zm-3.34,92.22c-5.23-4-6.3-4.14-9.52-1.61C383.21,347.12,383.21,347.12,385.21,343.08Zm-27-28.16c-3.54-4.33-4.66-4.47-7.52-1.44Z"/><path class="cls-3" d="M325.29,452.51c6.41,1.29,8.2,4.45,7.23,13-2.44.33-4.36.94-4.22,4.17.06,1.42-.86,3-1.68,4.3-1.49,2.34-3.15,2.73-5,.1a58,58,0,0,0-5.69-7.1c-1-1-2.62-1.35-4-2l-1,.7c-1.67-4.89-2.85-10-5.15-14.6a43,43,0,0,0-8.54-12c-4-3.71-7-7.58-8.44-12.78-.58-2.11-1.43-4.16-2.16-6.23l1.09-.58L284.29,417c1.56.13,2.55-.07,3.15.32,2.72,1.75,5,1.42,8.16.42,2.75-.86,6.51,1.51,10,2.51.57-3.39,3.39-2.05,6.48-1.1-.23-1-.38-1.6-.58-2.44l12.55-1.95c0-.1.41-.93,1-2.22l5.05,2.37c0-.49-.08-1.16-.11-1.55,6.35-2.29,12.77-4.23,18.82-7,2.66-1.21,4.15-1.06,6.16,1.21a43,43,0,0,0-2.47,3.95,32.38,32.38,0,0,0-1.49,4.25c-.2.62-.23,1.8-.45,1.83-4.53.54-2.76,5.62-5.42,7.52-.38.27-.38,1.55-.11,2.16,1.82,4.18,1.06,7.48-2.59,10.42-1.41,1.13-2.07,3.24-3,5C336.49,448.42,331.24,450.86,325.29,452.51Z"/><path class="cls-3" d="M303.32,259.16c-.3,2.48-.21,5.09-1,7.38s-1.51,5.32-5.31,4.46c-.32-.07-1.53,1.58-1.35,1.89a53.81,53.81,0,0,0,4.29,6.58c.21.26,1.56-.35,3-.71-1,1.53-1.72,2.57-2.42,3.62,3.33,4.74,1.49,9.69.35,14.47-1.07,4.45-1.21,8.51,1.57,12.43a5.23,5.23,0,0,1,.37,3.45c-.36,2.4-1,4.77-1.33,6.29l-12,6.67c-1.73,0-4.37-.12-7,0s-5.77-2.51-4.83-4.64c1.17-2.65-.45-4.82-.18-7.31.44-4-.46-8.15-.8-12.32-2.48-.12-3.35-1.33-3.38-3.91-.05-3.86-.68-7.72-1.08-11.85l-2.84.7a4.84,4.84,0,0,1,.16-1.58c1.24-2.39.55-3.79-1.72-5.27-1.07-.7-1.24-2.92-1.6-4.49a29.82,29.82,0,0,1-.38-4c5.54-1,11.43-3.73,18.16-2.4,1.62.32,4-3.14,6-4.91.21-.19.22-1,.05-1.13-4.73-3-.39-5,.68-7.67l12.76,4.39Z"/><path class="cls-3" d="M298.67,507.49l4.33-3.32c2.69,3.27,5.24,6.43,7.89,9.51a14.29,14.29,0,0,0,2.47,1.92c.62.46,1.74.81,1.83,1.34.45,2.76,1.07,5.62.8,8.36-.35,3.66-1.47,7.26-2.23,10.73,3.71,2.69,3.91,5.84.22,9.48v-6.58l-2.9,5.89c-1-.38-1.94-1.14-2.5-.91-2.57,1-3.64.42-4.52-2.33-.65-2-3.2-3.39-3.93-5.4-1.84-5-3.12-10.2-4.77-15.82l2.81,1.54c-1.52-1.91,1.21-4.92-1.66-6.28-.05,0,.24-1.41.6-1.55C300.68,512.72,299.92,510.22,298.67,507.49Z"/><path class="cls-3" d="M588.4,634.65c-3.07.86-5.15,1.78-7.28,1.9-1,.06-2.26-1.3-3-2.31-.53-.74-.35-2-.52-3.21l3.68-.2c-2.09-.84-1.31-5.64-4.78-4.07,0-3.37-.1-7,0-10.54a34.86,34.86,0,0,1,.88-5.81,10.33,10.33,0,0,1,2.14,0c.17-.59.47-1.6.82-2.83l-3.59-2,2.72-3.7-4.7.27,5.29-3.63c-.16-.35-.32-.71-.47-1.06,2.87-.3,4.36,1.28,4.72,4,.92,6.9,1.85,13.81,2.51,20.75.2,2.08-.48,4.25-.74,6.28C586.83,630.37,587.62,632.51,588.4,634.65Z"/><path class="cls-3" d="M91.5,606.59c-2.58-1.13-4.92-2.24-7.33-3.21-3.17-1.28-4.23-3-1.35-5.21-1.75-2.61-3.44-4.88-4.81-7.34-.49-.89,0-2.25-.3-3.33-.83-3.44-3.86-6.1-3.57-10,0-.34-.27-1-.52-1-5.07-1.32-3.22-5.82-4.57-8.91s-3-6-2.86-9.53a27.42,27.42,0,0,1,.93-4.33h1.44L70.75,562c.41,1.56.49,3.3,1.27,4.64,2.08,3.55,4.69,6.8,6.65,10.41,1.23,2.29,1.4,5.14,2.52,7.5,3.19,6.75,6.64,13.37,9.94,20.06A7.12,7.12,0,0,1,91.5,606.59Z"/><path class="cls-3" d="M290.22,244.59c6.64-6.27,6.64-6.27,4.45-9.66l3.6-5.05c2.61,0,4.9,1.64,6.58,4.26.5.78.72,1.73,1.18,2.55,2.78,5,2.19,6.79-3.53,8.05-3.92.87-8,.92-12,1.34Z"/><path class="cls-3" d="M308.87,589.29c6.66,6.09,9.2,15.88-1.34,21.24V600.42l-3-.45C311.67,598.05,305.6,592.44,308.87,589.29Z"/><path class="cls-3" d="M561.76,500.37c1.35,1,3.19,1.67,4,3,1.41,2.43,2.19,5.22,3.31,8.05-3.79-3.31-11.68,2.14-12.38-6.71l2.09-1.2h-4.16c1.31-3,3.56-3.61,6.29-3.21Z"/><path class="cls-3" d="M304.08,451.07c0,1.08,0,2.17,0,3.25a.33.33,0,0,0-.37.25l-3.15,1.93c-1.59-2.77-3.23-5.53-4.78-8.34-1.17-2.11-2.49-2.24-4.78.32v-9.07l3.05,2.65c.34-.88.64-1.64.93-2.41l8.89,11.22Z"/><path class="cls-3" d="M277.74,340.9c1.67.23,3.56-.1,4.25.66,5,5.59,4.9,6.78-1.34,15.26Z"/><path class="cls-3" d="M327.17,627.7c.77-9,1.54-18,2.36-27.46,3.06,3.57,1.89,23.74-1.1,27.66Z"/><path class="cls-3" d="M342.84,504.18a9.85,9.85,0,0,1-2.15,0c-1.19-5.88-5-2.85-7.35-2.37-.69-1.36-1.28-2.34-1.7-3.4s-1.45-2.9-1-3.5a6.51,6.51,0,0,1,3.93-2.31c.89-.13,2.33,1.06,2.94,2C339.37,497.59,341,500.74,342.84,504.18Z"/><path class="cls-3" d="M573.68,583.82c-.17-3-.34-6-.52-9.09,3.82.11,7.65,3.71,7.06,7.36C579.34,587.56,575.23,582.68,573.68,583.82Z"/><path class="cls-3" d="M551.14,479q1.29,5.28,2.57,10.55l-1.46.8-2.86-3.37-1.2,1.49-.86-.31,2.28-9.26Z"/><path class="cls-3" d="M320.6,495.79q-1-6.3-2-12.61l1.15-.18c3.63,4.32,4.71,10,2.4,12.63Z"/><path class="cls-3" d="M292.63,458.7c.8,1.37,1.52,2.79,2.42,4.09a56.53,56.53,0,0,1,3.46,4.49,35.73,35.73,0,0,1,2,5.27l-1.71.75-8.19-13.47Z"/><path class="cls-3" d="M338.17,358c-2.35-1.21-4.38-2.14-6.28-3.3-.54-.33-1.12-1.52-.91-1.94a3.27,3.27,0,0,1,2-1.54C336.32,350.48,339,353.63,338.17,358Z"/><path class="cls-3" d="M296.69,579.11l3.85-1.59c1,2.13,2,4.32,3.17,6.83l-4.3,1.3c-.91-2.29-1.76-4.47-2.62-6.64Z"/><path class="cls-3" d="M558.1,486.22l3.55,8-5.9,1.36c.57-3.5,1-6.35,1.48-9.2Z"/><path class="cls-3" d="M328.44,535.87c-.5,2.09-1.44,4-1.27,5.81.29,3-1.22,3-3.29,2.84C323.26,538.05,323.52,537.58,328.44,535.87Z"/><path class="cls-3" d="M303.32,259.16l.17.17c-.1-1.81-.2-3.62-.29-5.43l-.1.1c2.07-2.09,3.39-.06,4.72,1,.58.46.65,1.57.95,2.38Z"/><path class="cls-3" d="M296.79,579l-7.89-3.1,4-5.23c1.35,3,2.58,5.7,3.81,8.43Z"/><path class="cls-3" d="M581,587.79c.31,2.12,1,4.29.74,6.33-.1.76-2.51,1.2-4.66,2.13.86-3.51,1.46-6,2.07-8.48Z"/><path class="cls-3" d="M336.62,557a54.05,54.05,0,0,1,4.52,3.75,3.08,3.08,0,0,1,.88,2.33,2.69,2.69,0,0,1-1.83,1.74c-.58.05-1.56-.92-1.84-1.64A62,62,0,0,1,336.62,557Z"/><path class="cls-3" d="M313.92,500.46l-6.67-1.34c.59-4.6,3.49-2.38,5.24-1.92C313.28,497.41,313.55,499.55,313.92,500.46Z"/><path class="cls-3" d="M561.76,500.37l-.9-.08-6-1.45c2.12-1.79,7.15-1.88,8.38-.19S563.23,500.63,561.76,500.37Z"/><path class="cls-3" d="M567.59,514.34l-8.7,1.37c-.1-.5-.19-1-.29-1.5l8.7-1.87C567.4,513,567.5,513.67,567.59,514.34Z"/><path class="cls-3" d="M330.71,567.93l1.23-6.63,1.47.06c.33,1.43,1.14,3,.82,4.24C334,566.48,332.25,567,330.71,567.93Z"/><path class="cls-3" d="M296.13,456.79c1.58,2.1,3.15,4.21,4.73,6.32l-1.3,1.1-5.08-5.89Z"/><path class="cls-3" d="M303.2,253.9,300,252.21c5.15-5.25,5.72-5.41,7-2-3.73-1.24-3.26,1.85-3.91,3.79Z"/><path class="cls-3" d="M319.88,530.26v4.82h-3.66l2.37-4.94Z"/><path class="cls-3" d="M569.56,529.54c-1.09.24-2.24.82-3.27.66a26.55,26.55,0,0,1-4.63-1.56l.55-1.06,7.06,1C569.37,528.89,569.47,529.21,569.56,529.54Z"/><path d="M304.09,454.32a.32.32,0,0,0-.38.25A.35.35,0,0,1,304.09,454.32Z"/><path d="M303.88,450.87l.19.2Z"/><path d="M388.55,250.86c1.63,3.18,2.41,5.65-2.2,5a.68.68,0,0,0-.4,0c-3.27,1.89-6.53,4.05-10.11.64-2.62-2.49-5.19-5-8.28-8l3.61-1.74c-5.29-5.25-5-8.74,1.08-12.93a49.11,49.11,0,0,1,4.82-2.93,22.77,22.77,0,0,0,5-3.05l-16.24-.76c4.07-4.65,8.95-6,13.71-7.1,7.71-1.82,15.52-3.22,23.31-4.65a49.78,49.78,0,0,1,6.48-.33l.27,1.11-2.45,2,3.88,1.52-23.55,6.87.12.6c4.66.65,9.4,1,14,2,5.91,1.4,12.05,3.09,14.85,9.29a16.57,16.57,0,0,1,1,8.08c-.21,2.29-4.53,2.29-6.58,0s-3.55-4.85-5.76-6.77a37.67,37.67,0,0,0-9.21-5.58C396.2,241.22,395.94,247.45,388.55,250.86Z"/><path d="M385.21,343.08c-2,4-2,4-9.52-1.61C378.91,338.94,380,339.12,385.21,343.08Z"/><path d="M358.19,314.92l-7.52-1.44C353.53,310.45,354.65,310.59,358.19,314.92Z"/></g></g><circle class="cls-4" cx="323.5" cy="322.5" r="322.5"/></g></g></svg>