<svg xmlns="http://www.w3.org/2000/svg" xmlns:xlink="http://www.w3.org/1999/xlink" viewBox="0 0 646.06 645.27"><defs><style>.cls-1{fill:none;}.cls-2{clip-path:url(#clip-path);}.cls-3{fill:#fff;}.cls-4{fill:#ff5f6d;opacity:0.5;}</style><clipPath id="clip-path"><circle class="cls-1" cx="322.5" cy="322.77" r="322.5"/></clipPath></defs><title>gregor</title><g id="Layer_2" data-name="Layer 2"><g id="Layer_1-2" data-name="Layer 1"><g class="cls-2"><g id="_9ziJDQ.tif" data-name="9ziJDQ.tif"><path d="M646.06,13.85v4.38c-1.72,3.16-4.65,1-6.93,1.39A290.54,290.54,0,0,0,608.28,27a20.23,20.23,0,0,0-3.15.83c-7.38,3.44-15.28,4.33-23.26,4.91a4.16,4.16,0,0,0-2.34.84c-2.65,2.34-5.68,2.34-8.92,1.93a15.43,15.43,0,0,0-11,3c-2.54,1.77-5.31,3.21-7.81,5a19.18,19.18,0,0,0-4.51,4.29C543.47,53.27,542.86,60,541,66.24a5.44,5.44,0,0,0,.14,3.14c.85,2.47.72,4.46-1.69,6a4.55,4.55,0,0,0-1.79,2.21c-2,6.31-4,12.63-5.83,19-2.24,8-4.29,16-6.39,24.06-1.36,5.19-4.35,9.95-3.6,15.73.38,2.91-.22,6-.3,8.93-.11,4.53-.37,9.07-.15,13.58A110.56,110.56,0,0,0,523,174.36c.57,3,1.79,6.3,3.82,8.41a20.77,20.77,0,0,0,8.64,4.87c3.08,1,6.54.73,9.82,1.13,2.71.33,4.29-.75,4.4-3.47a11.52,11.52,0,0,0-.59-4.65,98.2,98.2,0,0,1-7-43.45c.58-8.92,2.53-17.76,3.79-26.65,1.19-8.41,3.82-16.89-1.61-25-.71-1.06.08-3.07,0-4.64-.09-3.15,3.1-3.36,4.42-5.11,3.22-4.26,6.72-8.63,8.52-13.54,1.65-4.52,4.19-3.52,7.23-3.42a41.93,41.93,0,0,0-1.07,4.71c-.84,8.29-1.55,16.6-2.47,24.89-.13,1.15-1.15,2.22-1.84,3.27A45.53,45.53,0,0,0,556.16,96c-2.22,4.41-.34,11.26-7.7,12.69-.46.1-.5,2.35-.93,4.58l2.73-2c-1.22,6.73-2.46,13.54-3.79,20.85L545,129.22c-1.73,4.55-2.22,18.63-1,22.16a7.57,7.57,0,0,0,1.27,2.15c1.11,1.41,2.68,2.58,3.38,4.15a66.42,66.42,0,0,1,2.6,8.25c1.08,3.78,8.68,10.49,12.42,9.92s7.43-2.52,11.16-3.77c1.86-.63,4.07-1.93,5.65-1.43a128.56,128.56,0,0,1,15.14,6c5.18,2.38,10.64,4.31,16.12,2.81,6.08-1.65,11.8-4.66,17.68-7.06a26.64,26.64,0,0,0,2.72-1c1.55-.86,3.34-1.58,4.45-2.87,3.28-3.79,6.29-7.83,9.41-11.78v59.07c-7.77,2.43-16.43,2.09-23.27,7.44a4.87,4.87,0,0,1-1.73.52c-9.61,2.49-19.28,4.8-28.83,7.52a93.68,93.68,0,0,1-25.44,3.93c-9.95,0-25.7-9.64-26.73-22.16-.08-.9-.4-2.24-1-2.55-4.9-2.46-9.89-4.72-14.85-7,3,9,4.47,17.85,9.16,25.72a67.1,67.1,0,0,0,5.66,8.17,15.94,15.94,0,0,1,3.41,8.42c.27,3.8-1.31,7.72-1.14,11.55a5.63,5.63,0,0,1-1.91,4.89c-1.1,1.13-1.56,2.89-2.3,4.37l.78.35-3.4,3.06,3.29,1.3c-3.25-.06-4.66,1.83-5.23,4.58-.48,2.35-1.23,4.74-1.12,7.07.36,7.15,1,14.29,1.7,21.41a10.44,10.44,0,0,0,1.39,3.69,54.54,54.54,0,0,1,6.39,28.38c-.14,3.23,0,6.5-.38,9.69-.79,6.3-1.65,12.61-2.91,18.82-1.1,5.46-3.12,10.73-4.06,16.2-.49,2.84-1.27,3.25-3,2.18.48,1.86,1.55,3.86,1.36,5.72a48.89,48.89,0,0,1-2.35,11.48c-1.5,4.16,2.64,8.15-.16,12.11,3.26,4.19,1.51,8.68-.15,12.52-.87,2-2.45,3.85-2.9,6.28-.95,5.14-2.11,10.25-3.21,15.37q-.68,3.18-1.43,6.34c-.65,2.8-2,5.62-1.84,8.36.24,4-3.17,7.2-1.84,11.46.47,1.52-1.05,3.66-1.8,5.94.07,0-1,.11-1.1.5a56.79,56.79,0,0,0-1.35,7c-.74,6.1-1.35,12.21-2.07,18.31a2.7,2.7,0,0,1-.94,1.37c-.62.56-1.34,1-2.32,1.71l2.82.27c-2.57,1.7-4.37,3-3.16,6.3a5.67,5.67,0,0,1-.95,5c-4.1,4-2.23,9.17-3.77,13.59l-.58-.42c-.74,4.28-1.53,8.8-2.31,13.31l-3.67-1.23c1,2,1.67,3.29,2.51,4.94l-2.28-.29c.33,1.15.62,2.15.93,3.26l-2-.57c-.69,1.68-1.67,3-1.71,4.41-.05,1.86-1.76,4.48,1.88,5.64-.24-1.77-.46-3.31-.7-5.08,3.51,2.17,1.77,4.8,1.18,7.2a49.54,49.54,0,0,0,4.79,2.49c8,3.12,16.05,6.15,24.08,9.2,1.79.69,3.56,1.46,5.4,2,1,.29,2.43.61,3.11.13,2.91-2,5.56-4.45,8.41-6.58,4-3,6-8.45,11.63-9.5.48-.09.76-1.43,1.07-2.22s.48-1.51.72-2.26l.67.11.37,1.79c6-2.72,9.47-8.58,15.18-11.75,6.44-3.58,12.24-8.31,18.33-12.52,2.43-1.67,5-3.2,7.32-5s4.13-3.9,6.52-5.3c4.15-2.43,8.62-4.3,12.85-6.61,3.86-2.11,7.48-4.69,11.4-6.68,5.77-2.95,11.71-5.56,17.59-8.31v12.39c0,.29,0,.58,0,.87-1.19.49-2.83.66-3.46,1.55-.83,1.15-.86,2.88-1.28,4.54-.62-.28-2-.44-2.52-1.19-1.13-1.6-4.56.2-4.34-3.08l-6.11.51a2.71,2.71,0,0,0,2,.88,24.87,24.87,0,0,0,2.53-.23c-2.39,3.67-2.36,3.63,1.15,6.56a9,9,0,0,1,1.5,2.48c-4.86-2.74-8.39-2.15-9.45,2l3.69-.29c-1.15,1-1.81,1.54-2.41,2.13-2.56,2.48-7,3.57-6.27,8.54,0,.24-1.08.64-1.73,1,.28-4.17-3.31-9.36,4.62-10.23-3.28-2.07-5.39-1.62-6.74.62-1.75,2.87-3.53,4.89-7.39,2.25.15,1.37.24,2.14.26,2.34l-4.27,1.38c-1.46-.37-2.75-1.1-3.2-.75-3,2.37,1.12,3.69.56,6l5.68-1.4-.41.77,3.63,2.09c-2.42,2.49-8.06-3.56-8.57,2.4l-7,2.22c-2.52-1.24-4.47-3.06-6.17-2.85-2.65.34-5.13,2-6.95,2.86l5,5.24-.39.82c-.94-.24-2.32-.17-2.75-.78-1.85-2.58-6.38-2.87-7.09,0-.76,3.06-2.53,2.88-4.73,3.11-3.88.41-5.92,4-4.23,7.1l-7.07-2.29-.42.86,2,2.41c-.74,1.59-1.49,3.16-2.45,5.2-.28-1.78-.46-2.94-.82-5.18-2,3.77-3.5,6.54-5,9.34l-3-1.35a45.49,45.49,0,0,0-4.18,3c-.93.85-2.2,1.93-2.29,3-.27,3.27-2.06,3.3-4.76,2.42v5.74c-3.67-.81-4.29-.31-4.25,3.32l2.41-.35-2.85,4.18-3.86-.62c.41-1.24.72-2.18,1.08-3.25l2.47,2c-1-2.85-1.64-4.78-2.3-6.72l-1.19.18c-.21.71-.72,1.49-.59,2.14.72,3.55-.8,5.46-4.12,6.43a5.22,5.22,0,0,0-2.62,1.71c-2.17,3-4.06,6.12-6.27,9-.45.59-1.87.45-2.83.65-.13-.28-.25-.56-.37-.85l-12,13.72,2.41,1-8.58,4.65,3.61,2.21c-3.2-1-7.15,0-6.57,1.88.86,2.81-1.64,2.54-2.48,2.93-2.3,1.07-4.19,3.68-3.55,6a9.78,9.78,0,0,1,.16,1.08l-2.19.55c.12-.79.22-1.35.31-1.91l-.82-.44-5,6.84H256.67c.42-1.13.84-2.26.95-2.58l-3.82-3.76c1.87-1.18,2.26-2.7,1-4.57-.5-.74-1-1.49-1.75-2.63l-.92,2.71-4.4-2.81,2.07-1-.6-1-4.51,2.84,3,4.3c-2.46-4-7.2-2.86-11.27-4.52l4.2-1c-2.18-2.25-4-4.23-5.9-6-2.54-2.38-5.37-3.81-9.52-.42,2-4,5.09-4.93,9-3.93a9.73,9.73,0,0,1-.49-2.79c.39-3.72-1.34-5.94-4.89-6.2a18.49,18.49,0,0,1-3.13-.75l.22.2a32.76,32.76,0,0,0-4.8-3.15c-3-1.29-3-1.14-1.82-3.72l3.16,2.79,1.94-6.55-3.2,2.28c-1.64-1.64-1.14-5.5-4.95-4.78,0,0-.05,0-.05,0l5.62.18,0,.63,4.81-1.55-7.14-3.2,2.54-2.9a14.79,14.79,0,0,0-.54-3.51,9.43,9.43,0,0,0-2-2.34l.62-1.64c-4.24,0-8.42.36-12.5-.13-2.56-.31-5-3.12-7.53.4,2.26-5.81-1.66-8.33-5-11.26l4.78,1.56L196,569.59l3,.67,7.91,7.08a13.9,13.9,0,0,0-1.49,2.25c-.1.22.77,1.26,1,1.2,2-.43,4-1,6.18-1.63l-4-5.91,6.87-.41,0-.82-3.56-1.69,7.47-.73a50.56,50.56,0,0,0-6.3-1.63c-3.15-.37-3.87-1.52-2.34-3.17l-1-6.38c-4.67,2.41-6.36-1.79-9-3.92l-.7,1,6.79,6.62c-1.6,3.72.15,6.52,5.16,8.15-.67.29-1.45,1-2,.79a36.33,36.33,0,0,1-4.59-2.21c.81,2.21,1.29,3.52,1.76,4.82l-.7.35-2.41-3.64h-5.2a36,36,0,0,0-3.37-1.63c-1.61-.59-3.29-1-4.94-1.49l3.76-2c-1.8-2-4-3.23-2.58-6.12.23-.46-.92-2.17-1.74-2.47a24.44,24.44,0,0,0-5.23-.78l-.29,3.45-1.41-2.38-2.82,2.64,2.57-7.23v2.12l4.37-1.21v-2.8l7,1c-3-3.56-6.06-2.09-9.06-2-2.75,0-3.28.87-2.15,3.19l-.85-4.23,5.07-.67L185.34,545l-.1.1c0-.65,0-1.3,0-1.95l-.09.11,5.61,3.31c.48-1.47,1.11-3.4,1.94-6,.92,2.65,1.53,4.38,2.18,6.24a8.3,8.3,0,0,1,3,.33c.88.4,1.42,1.52,2.11,2.32l.67-.57-2.31-4.08,1.19-2c-1.6-3.51-2.87-6.3-4.15-9.09l5.43,6.21a2.78,2.78,0,0,1,.65-1.21c3.67-3.6-.83-4.72-2.19-6.47-1.73-2.23-3.08-.64-4,1.23-.54,0-1.3-.16-1.6.12a36.7,36.7,0,0,0-2.58,3l1.31,1h-4l-.1.54,3.23,1.64-7.17,2.56c0,.2-.08.42-.14.66h.18l-3.59-2.44,2.24-2.57-.11.09,2.83-.4c-1.54-4-5.22-3.35-7.94-4.46l-.3-2.59c-.47-.49-.93-1-1.4-1.49a14.46,14.46,0,0,1,1.63-1.09c.81-.4,1.68-.7,2.52-1l-.27-.88-3.82-1,3-1.65-.23-1-6.78.48v-3.18l-.1.09,2.58-2,.12.79,7.27-.91.09-1.14-3.54-1c-.15-2.07-.3-4.24-.45-6.38l-2,.53-.27-.55,1.63-1.34c-1.61-1.14-3.69-1.92-4.56-3.41-1.08-1.84-1.16-4.26-1.69-6.56l-6.75,2.16-.27-.88,5.7-3.24c-.81-2.44-1.67-5.06-2.63-8l-2.17-.16,1.07-.49c-.41-2-.5-4.2-1.33-6.05a10.63,10.63,0,0,0-3.36-3.56c-2.45-1.91-1.94-3.07.52-4.48,1-.55,1.37-2.06,1.71-2.62-5-2.45-8.49-4.45-3.78-10l-3.33.82,2.31-4.71c-1.05-1-2.32-1.84-2.2-2.22.92-3,2.11-6,3-8.43-1-1.81-2.33-3.25-2.31-4.67,0-1.65,1.31-3.27,1.87-5,.07-.21-1-.8-1.53-1.21v.05l.47-4.7-3.27.23,3.26-4.17-3.54-1.4c3.23-3.1,3.19-3.1,2.67-7.67-.31-2.77-1.07-5.67-.6-8.33.92-5.2,3.19-10.26-.31-15.35-.26-.38,0-1.09,0-1.68l1,.14.9-6.22c-4.37-3.08-6.61,1.89-9.88,3.76-.71.41-1.11,1.4-1.83,1.73a57.83,57.83,0,0,1-29.24,5.21c-3.16-.27-5.49-.1-7.8,1.76-.29,3.34-.58,6.66-.87,10-4.23,1-5,1.91-4.38,6.48.23,1.72,1.22,3.33,1.8,5a5.45,5.45,0,0,1,.43,2.32c-.32,2.34-.79,4.67-1.25,7-.3,1.55-.68,3.08-1,4.62l-1-.14v-5.1l-1.1-.34a36,36,0,0,0-1.6,4.54c-.76,3.51-.75,7.31-2.13,10.53-1.5,3.49-.52,6,1.13,8.78a7.34,7.34,0,0,1,1.06,3.56c0,2.4-.25,4.69,2.4,6.07a2.51,2.51,0,0,1,.81,2.09,48.38,48.38,0,0,1-1.09,5.09l3,1.68c-1.48,3.28-4.09,6.07-3.25,10a10.93,10.93,0,0,1,.54,3.95c-.69,4-.21,5,3.92,5.69-3.32,3-.65,5,1.42,7.51l-6.77,10.43a22.41,22.41,0,0,0,5.21-3.69c.87-.71,2.36-1.92,2.86-1.64,2.88,1.63,4.83,0,6.74-1.8v7.9c-4,2.13-5.15,1.94-8-1.74l-.6,2.92-3.08-1.3,3.35,9.7-1,.52,4,2.21c-3.32,4.84,3.14,7.69,1.74,12.53l-3.11-4.63c-.8,3.86-1.47,7.09-2.33,11.17,1.21,1.6,5.5,3.94.64,7.64-.18.14-.13.73,0,1,1.71,4.68,3.45,9.35,5.18,14l1.52-.25v-6.45c1.52,3.3,2.33,6.67,3.76,9.75s4.59,6,1.68,9.87a1.23,1.23,0,0,0,0,1.06c1.87,3.42-.6,4.15-3.07,4.78l1.61,4.1-7.85-6.23.6-.62,3.54.65.29-1-3-1.22,1.92-.92a29.6,29.6,0,0,0,1.78-5.07c.14-1-.48-2.07-.76-3.1-.79.42-1.84.65-2.32,1.3-1.8,2.44-2.58,5.08-.49,7.82-2-1.42-5.42-2.62-5.69-4.31-.68-4.41-3.16-8.95.1-13.66,1.85-2.68-1.89-9.06-4.37-9.46-.86-6.69-1.69-13.22-2.53-19.76l.89-.25L98.46,529l1.55-3-1.41-.57c0-1.6.46-3.08-.09-3.81a17.43,17.43,0,0,0-4.34-3.91c-1.62-1-1.82-2.42-.28-3,3.65-1.33,3.08-3.65,2.25-6.25l-4.42,1.73L95,511.8,88,515.75c.41-5.53-1.59-8.79-7.9-7.73l-.71-1.64L84,502.62c-3-.26-4.7-1.57-3.07-5.36a40,40,0,0,0,2.78-9.3c1.21-7.53,2.42-15.08,3-22.68.73-10.09.94-20.23,1.16-30.35.24-10.6.62-21.22.23-31.81-.35-9.66-.88-12.79-7.72-17.44l2.41,6-1.24.34a78.29,78.29,0,0,1-1.94-8.32c-.52-4.2-.4-8.48-1-12.67-.64-4.57-1.6-9.12-2.69-13.61-1.4-5.75-3.08-11.43-4.64-17.14-.91-3.3-1.9-6.57-2.72-9.89A81.87,81.87,0,0,1,67,322.36c-.33-2.37-.35-4.79-.51-7.18l1.16-.22c.75,2,1.56,4,2.24,6,1.67,5,3,10.13,5,15,3.42,8.28,7.35,16.31,14.27,22.41,2.09,1.85,4.1,3.8,6.1,5.74,2.58,2.5,4.83,5.46,7.74,7.45,3.37,2.29,7.32,3.7,11,5.55,1.39.69,2.74,2.24,4,2.17,4.34-.21,8.44.92,12.65,1.43a12.72,12.72,0,0,0,5.64-.34c6.4-2.28,12.7-4.84,19-7.38a2.33,2.33,0,0,0,1.14-1.64c.58-5.18,1.27-10.22.63-15.61-.88-7.33.09-14.88.06-22.33,0-4.95-.42-9.9-.66-14.85a2.41,2.41,0,0,0-.18-.7c-1.39-3.9-2.8-7.8-4.19-11.7-.93-2.62-2-5.21-2.71-7.89-1.09-4.26-1.78-8.62-2.9-12.86-.45-1.71-1.61-3.22-2.4-4.84-1.67-3.44-3.2-7-5-10.33a22.67,22.67,0,0,0-2.92-3.73l-3.81-3.85,2.77-1.71c-2-2.51-4.26-1.44-5.93.05-2.33-1.68-4.44-3-6.31-4.63a48.61,48.61,0,0,1-3.8-4.27,12.35,12.35,0,0,0-2.79-2.67c-5.12-2.85-10.17-6-15.57-8.17a58,58,0,0,0-14.84-4c-4.21-.53-7.76,2.1-9.94,4.51l-5,1.9L72.82,247c-1.65,1.89-.23,3.06,2,3.51,3.31.69,6.69,1,10,1.64,4.72.9,9.69,1.31,14,3.15,3.69,1.56,6.73,4.75,9.91,7.4,1.74,1.45,2.92,3.73,4.82,4.81,4.83,2.71,5,7.94,7.26,12.14a64.23,64.23,0,0,1-10.54-9c-6.19-6.77-12.58-12.85-22.7-12.27a42.48,42.48,0,0,1-6.86-.19c-4.74-.49-9.66-2.73-12.78.87-1.11,3.4-3,6-2.37,7.92,1.39,4.55-1.62,4.39-4.58,5.56,0-1.61-.27-2.83.05-3.88,1.26-4.15,2.85-8.2,4-12.37.38-1.37-.15-3-.27-4.48-1.38.86-3.27,1.41-4,2.66a73,73,0,0,0-4,8.41l-.72-.3,5.57-12.71c-.2-.51-1.13-1.69-.86-2.41,1.34-3.57,3.64-6.89,2-11.14L59.88,238c3.41-4.54,2.62-4.72,3-6.64.62-2.68,2.32-5.07.44-7.64L63,220c4.66-3.79,3.54-10.08,4.39-15.79l.18-1c-3-.08-.84-2.2-.76-2.81.55-3.88,1.51-7.71,2.34-11.55.7-3.22,1.4-6.43,2.19-10L69.58,180c-.31-1.76-1.17-3.63-.78-5.18s2-2.63,3.14-3.92l-.47-.37-3.3,1.81,3.29-6.13-2.54-.47,5-4.5-.55-.53L70,161.8l3.19-4.36-1.47-1.15c5.15-4.58,6.52-11.13,3.93-14.38,1.59-5.52,3-10.54,4.62-16.08l-3.72,2c2.31-3.74,5.08-6.64,3.86-10.82,0-.15.31-.37.4-.58,1.14-2.8,2.23-5.63,3.4-8.41,1.79-4.25,3.09-8.85,5.62-12.6,2.19-3.23,1.13-5.51.1-8.65l-6.24,7.17,9.25-14.45-5.17,2.12,3.93-4-.92-.9c-3.15,3.07-8.72,3.46-10.12,9.76l2.2-1.17c-2,2-3,6.79-1.49,8.77.26.35,1.42,0,2.16,0-.71,1.26-1.42,2.51-2.48,4.36-.84-3-1.85-5.14-2-7.35-.24-3.9-1.15-8.48,2.76-11,3.5-2.24,7.65-3.47,11.53-5.09,4.48-1.87,10.22-1.16,13.34-6.77l-3.07-1.51c.94-2.63,1.89-5,2.53-7.47.07-.27-1.61-1-2.47-1.51,2.65-2.76,2.65-4.91,0-7.94-.61-.7-1.1-1.5-1.69-2.23-2.62-3.22.14-6.09.74-9.19-.77,4.57.12,8.56,3.85,12.06,1.93-1.55,3.72-3,5.53-4.43a4.68,4.68,0,0,1,1.32-.61c3.57-1.29,7.12-2.66,10.74-3.8a4.12,4.12,0,0,0,3.34-3.5c1-4.45,2.59-8.84,7.76-10.54.79-.26,1.06-2.07,1.86-3.79l-3.74,1.35c.15-2.86.27-5.22.42-8.17-2.72,4.07-5,.36-7.65.55,4.58.47,3.81-1.86,2.38-4.58,1.06-.41,2.13-.53,2.76-1.13,2-1.86,5.28-3.88,5.32-5.88.07-3.91,2-5,4.86-5.9h292.4l1.41,6.1-.72.48-2.62-3.05c.06,3.23,5.7,6.26,8.73,4.59,3,4.13,6,8.25,9,12.32L451,18.9c-.36,3.21-.65,5.7-.93,8.2l1,.31,3.76-5.28v6.72a21.27,21.27,0,0,1,3.08,1.08,40.72,40.72,0,0,1,3.72,2.28l-3.31.36,4.1,4.19c1.57-1.15,1.57-1.15-.9-4.8l9.4,2.83.2.1,5.49,2.68-.43.78-4.28.53L471.55,40l4.78,2.66-.89.59,4.21,2.2-3.47-.68c1.09,2.18,2.18,4.34,3.18,6.35,2.65-2.77,2.65-2.77.16-5.8,1.9,0,4.41-1.29,4.59.82-1.57,3.2-2.62,5.37-3.68,7.54l-3.36.68c6.45,4.28,7.48,9.21,2.55,15.51.68.76,1.37,1.53,2,2.23l-3,5c.23-1.59.46-3.15.79-5.35-1.22-1.7-3.15-.36-4.46.71a4.39,4.39,0,0,0-1.3,3.74c.4,1.43,1.86,2.57,3,4l2-3.16L480,78.24l-4.82,6.41c12.86,21.7,25.33,42.94,36.12,65.24.19-1.58-.53-3-.39-4.34.56-5.5,1.46-11,2-16.45.09-.85-.78-1.81-1.12-2.55.58-.69,1.46-1.27,1.66-2,1.94-7.33,4.3-14.6,5.51-22.06,2.16-13.29,3.52-26.71,5.42-40a38.76,38.76,0,0,1,2.88-11.23c4.72-9.93,13-15.81,23.57-18.19,12.07-2.71,24.25-4.93,36.36-7.51,8.4-1.79,16.7-4.06,25.13-5.71C623.57,17.6,634.83,15.81,646.06,13.85ZM185.92,527.66c-2,3.68.8,4.77,3.32,6-1.36-1.83.59-5.6-3.48-5.85l3.23-1.94c-.78-.72-2.12-2.15-2.27-2-1.43,1.12-4.95.56-3.68,4Zm179.36-63.29.89,5.44c2.81-5.51,2.69-8,0-9.62-.3,1.44-.6,2.91-.91,4.39-1-3.32-2-6.64-3.08-10.06l-2.81,1c-.75-.83-1.32-1.46-1.91-2.08-1.77-3.71-4.75-4-8.76-3,2.49,3.49,5.65,3.3,8.88,2.89-2.4,1.63.4,3.69-.55,5.42l5.2,1.42c-.65,1.52-1.23,2.85-1.6,3.7l4.31,3.06C365.07,466,365.18,465.18,365.28,464.37Zm-97.73-20.23c1.62-2.85-2-3.77-2.19-6l3.84,2.66c.76-1.76,1.3-3,1.94-4.53l3.16,3.48.32-3.78c1.19,1.49,2,2.52,2.92,3.63l2.43-2.09,1.71,8,1.57-2.51,3.22,9.48.74-.22c.15-.87.29-1.74.49-2.92,2.88,2.67-.73,7.94,4.61,9.34-.18-1.37-.32-2.5-.46-3.62l.7-.74,5.16,3.89,5.44,4.1c.25,1.14.56,2.54,1,4.66l1.74-4.63c.35,1.68.6,2.85.85,4l.71-.09c.88-5.29,1.77-10.58,2.76-16.51.75,1.2,1.18,1.9,1.58,2.53l1.29-1.47.71.5-3.68,7.12c2,2.06,3.19.89,3.68-1,.7-2.7.7-5.63,1.63-8.23,1.82-5.06,4.55-9.84,6-15,.86-3.1,5-6,1.23-9.83,2.66,0,3.8-.47,3.22-3.4-.49-2.48,1.84-5,.66-7.8-.06-.15.58-.72,1-.9,3.73-1.69,3.46-6.59,7-8.59,1.48-.83,2.17-3.08,3.24-4.72l-.08-.06a23.79,23.79,0,0,1,1.34-3.56,12.24,12.24,0,0,1,2.32-2.76c1.05-.94,2.79-1.44,3.31-2.56,2.33-5,7.12-6.46,11.53-9-.22-.69-.5-1.56-.59-1.82,3-3,5.87-5.58,8.4-8.42,1.51-1.7,2.39-3.95,3.81-5.73,2.16-2.69,4.78-5,6.8-7.82,3.74-5.18,6.85-10.84,10.87-15.77,3.56-4.37,8-8.05,12.08-12a50.3,50.3,0,0,1,4-3.12,7.53,7.53,0,0,1-.38,3.3c-1.06,4.13-2.23,8.24-3.07,12.42-.72,3.62-1.11,7.3-1.51,11-.48,4.5,2.28,8.94,6.16,9.83,3.26.74,6.59,1.23,9.88,1.87,3,.58,6.08,1.17,9.1,1.82,4.95,1.06,10.08,1.65,14.78,3.41,4.13,1.54,7.9,4.22,11.53,6.81,1,.72,1.17,2.9,1.26,4.44,0,.31-2,.81-3,1.13-3.21,1-4.93-.93-6.37-4.12-.44,1.28-.67,1.94-.87,2.51-4.11-.35-6.23-4.15-10.7-4.65-7.93-.88-15.66-3.66-23.41-5.86a13,13,0,0,1-5.15-2.95c-3.25-3.07-6.28-6.37-9.26-9.7-.91-1-1.38-2.41-2.34-4.14l-.69.17c.22-.74.43-1.47.65-2.19a62.08,62.08,0,0,0-8.53,9.9c-4.27,6.53-8.12,13.34-12.18,20a4.43,4.43,0,0,1-1.49,1.55c-4.23,2.34-3.44,6.71-4.32,10.49a8.22,8.22,0,0,0,2.59-2.52c.68-.86,1.42-1.66,2.14-2.49.68,1.11,1.67,2.15,1.94,3.35s-.3,2.34-.49,3.53-.33,2.29-.55,3.8c5.34-3.79,5-11.41,11.34-13.31l1.86,5.09c3.1-1.44,5.94-5.16,9.62-.51.55-2.47,1-4.47,1.45-6.47l.62.14c-.12,2.24-.23,4.49-.32,6.23l2.58-1.16,1.55-4.27,2.12,1.38,1.25-2.77c1.86,2.89,3.85,4.25,6.38,1.79l5.61,4.49,2.44-5.06c.68,1.7,1.14,2.86,1.55,3.9.37-.67.72-1.32,1.25-2.27l2.29,3.41,1.74-1.1c.2.84.33,1.55.56,2.22s.51,1.14.88,1.94c1.48-3.77,2.27-4.34,3.25-2.78,2.11,3.34,3.73,1.92,6.4.45a32.72,32.72,0,0,1,11.48-3.67c5.74-.7,11.08-1.19,15.4-5.93,3.38-3.69,7.1-8.15,13.39-4.92.52.27,1.91-.39,2.43-1,3-3.54,6-7.06,8.58-10.86,1.56-2.29,3.76-5.5,1-7.83-3.36-2.85-2.26-6.72-3.6-10a1.69,1.69,0,0,1,.6-1.55c3.35-1.35,1.78-3.28.73-5.21-1.14-2.12-2.23-4.27-3.35-6.4.82-.14,1.17,0,1.34.24,2.19,3.31,4.56,6.53,6.48,10s3.18,6.9,4.8,10.34c1.4,3,2.19,6.89,4.55,8.58,2,1.43,2.44,2.38,2.39,4.38,0,.89,0,2.29.48,2.59,2.07,1.24,4.36,2.12,6.53,3.2a20,20,0,0,1,2.23,1.57l-3.81,3.1,3.74,4.29c.76-.88,1.62-2.58,2.25-2.49,2.68.34,1.67-.57,1.45-2.24-.36-2.72-1.34-6.24,3.17-7.06a2.21,2.21,0,0,0,1.46-1.41c.38-2.94,2.62-3.4,4.87-4.13,2-.65,4.57-1.22,3.06-4.43v.09a25.79,25.79,0,0,0-.61-4c-.36-1.18-1.6-2.27-1.56-3.37.18-5.17.66-10.32,1-15.52l3.35-1.84-.21-1a8.87,8.87,0,0,1-2.9-.27c-1.29-.58-3.14-1.3-3.49-2.38-1.55-4.72-4.08-7.59-9.46-6.78a15.15,15.15,0,0,1-2.51,0c-.21-1.38,0-2.92-.58-3.3a33.76,33.76,0,0,0-7.06-3.71c-3.88-1.38-8.5-.36-11.83-3.72-.51-.52-1.65-.39-2.35-.53,3.1,3.88,6.12,7.64,9.75,12.16-2.49.42-4.65,1.37-6.45.9s-3.07-1.29-4.37.54l-2.79,3.86c-5-3.35-14.41-18.57-13.79-21.39l6.19,4.14,1-.85c0-5.29-3.87-8.77-7.37-12-2.15-2-5.4-3.72-9.48-.07.26-2.81,0-4.71.66-6.14,1.76-3.61.09-7.81-4-8.59-4.35-.84-8.74-1.44-13.11-2.14,3.73-.27,7.55-.11,11.34-.34,1.63-.1,3.21-1,4.82-1.57-.89-1.33-1.48-3.3-2.72-3.86-3.32-1.51-6.88-3.21-10.41-3.36-3.72-.15-7.57,1.2-11.26,2.26-8.06,2.33-16,4.68-24.64,3.4-2.76-.41-5.83,1.06-8.71,1.87-.63.18-1,1.18-1.54,1.81l.52.57,5.75-1.77c-1.88,2.12-2,3.52.8,3.82a25.45,25.45,0,0,0,4.7,0c6.28-.48,12.57-1,18.85-1.54l.1,1c-3.19.46-6.37.92-9.56,1.36-7.09,1-14.17,1.9-21.25,2.87-2,.28-3.23,1.16-3.41,3.48-.46,5.88-3.74,9.7-9.18,11.85-6.08,2.4-11.92,6.14-18.2,7.08-6.55,1-13.52,7.37-20.31.24-.38-.41-1.4-.19-2.12-.3l-10.11-1.56c4.87-.65,9.68-.32,14.41-.74s9.66-1.6,14.46-2.44c.68-5,.46-5.3-4.28-6.37-1.06-.24-2.2-.2-3.23-.52s-2.08-.68-2.42-1.37c-2.23-4.66-7-5.49-11-6.72-6.43-2-13.3-2.53-19.9-4-11.24-2.54-22.5-4.79-34.06-5.17-1.18,0-2.34-.81-3.51-1.24l.31-.69,15.21.81.13-.59-3.67-2.17.21-.66,16.92,3-.58-2.64c1,.45,1.73,1.1,2.47,1.09,3.8-.1,7.8-1.43,10.8,2.27.05.06.43-.21.66-.22l11.12-.52c1-1.59,6.6-3.22,8.05-2.17a12.39,12.39,0,0,0,13.58.75c.69-.37,2-.77,2.36-.44,3.57,3,6.69-.08,9.78-.86,3.6-.9,4-4,2.28-7.18-1.36-2.5-2.78-4.41-5.69-5.05-.87-.19-1.52-1.3-2.4-1.56a34.44,34.44,0,0,0-4-.5c-1.72-.29-4.49-.19-4.93-1.13-1.86-4-4.68-2.13-7.32-1.82-1.35.16-3.44.88-3.91.3-.83-1-.69-2.85-1-4.52-.68.18-1.5.33-2.28.6-3.37,1.15-10.7-2.86-11.77-6.47l-.86-1.14c-1.65-1.27-.93-1.93.62-2.34a24.74,24.74,0,0,1,4.56-1.08,14.82,14.82,0,0,1,3.66.62l-1.87,3.7a13.37,13.37,0,0,0,3.57,0c1.63-.42,3.12-1.73,4.73-1.85,3.83-.28,7.7-.09,11.84-.09l.53,1.71c3.62-6.14,11.23-9.76,14.84-7.37l-1.3,1.48a30.59,30.59,0,0,1,5,1.57c2.52,1.28,4.91,2,7.55.37a3.52,3.52,0,0,1,2.07-.32,42.92,42.92,0,0,1,20.67,7.39c1.72,1.2,2.86,3.23,4.64,5.32.26-1.76.42-2.93.62-4.31,3.57,4.7,4,9.44,1.1,12.42-.15-2.28-.29-4.43-.44-6.65-3.28,1.38-2.75,3.35-1.91,5.57,2.86,7.57,9.27,11.1,17.08,9.21,3.41-.83,6.74-2.11,10.19-2.63,5.09-.77,10.25-1,15.38-1.52,4.07-.43,8.89.92,11.65-3.14,1.46-2.15,1.84-5.22,2.18-7.93.78-6.28,1-12.67,5.06-18a14.26,14.26,0,0,1-.48,4.08c-1.22,6-3,12.05-.46,18.15.66,1.58,1.07,3.82,3.7,3,2.33-.77,4.69-1.63,3.54-4.59,2.38-1.95,4.5-2.59,7.25-.78,1,.69,4.49,0,4.69-.7,1.05-3.57,3.6-4.09,6.6-4.26a5.23,5.23,0,0,0,1.23-.55L497,256.25c2.45-4.21,11.19-3.66,7.71-11.6l9.93-1.91-1-2.87,6.54-6.11-3.48-2,4.13-.62-6-1.86a15.38,15.38,0,0,1-.63,1.91c-3.66-.74-4,2.28-4.28,4.34-.74,5.31-5.3,6.67-8.76,9.17-.49.35-1.55-.08-3.43-.24,4.4-3.33,0-9.05,4.61-11.51-.61-1.83-1.8-3.65-1.7-5.39.35-5.58-.3-6.9-5.49-9-.73-.3-1.73-1.25-1.71-1.86.14-3.43-1.89-7.86,4.3-8.72-7.84-4.65-9.34-8.22-6.24-13.15a27.94,27.94,0,0,1-2.22-3.51c-.42-.93-.14-2.21-.65-3.05-1.81-3-2.78-5.49.61-8.28.87-.73.45-3.55-.09-5.17-.19-.55-2.59-.44-4-.44-.63,0-1.26.45-3,1.15.63-2.19,1-3.48,1.37-4.77.51-1.74,1.73-3.65,1.37-5.2-.56-2.42-3.11-4-2.58-7.26.36-2.15-1.15-4.61-1.85-6.92s-1.43-4.59-2.17-6.87c-.47-1.46-1-2.89-1.61-4.7-1.82-.4-4.42-.76-3-4.45a3.46,3.46,0,0,0-.37-2.08c-1.53-3.95-2.89-8-4.7-11.78-3.55-7.45-7.44-14.59-17.36-14.81a12.78,12.78,0,0,1-6.15-2,54.6,54.6,0,0,1-9.92-7.35c-3.38-3.39-6.06-7.47-9-11.26-.35-.44-.67-1.28-1-1.29-5.31-.22-7.64-6-13.09-6.58-3.68-.41-7.19-3.12-10.59-5.12s-8.12,1.37-11-2.75c-.13-.19-.72-.22-1-.13-4.26,1.18-8-1.52-12.13-1.54-2.7,0-5.47-1-8.08-.68s-3.9-.51-5.37-2.47a14.72,14.72,0,0,0-5.05-4.26c-1.58-.78-2.81-1.06-3.23-3.19-.22-1.11-2.53-2.82-3.46-2.58-3.15.8-5.14-.48-7.05-2.54-.1-.11-.41,0-.62,0l.21,2-.5.25-2.54-3.72-.24.7-3.93-1.45,2.47-2.15a7.34,7.34,0,0,0-1.38-1.45A42.74,42.74,0,0,0,334,44.71a20.08,20.08,0,0,0-3.28-.76c.59,1.81.95,2.89,1.61,4.9-2.25-.75-4.26-2.1-5.09-1.58-3.87,2.44-7.53.22-11.25.08-5.09-.19-10.18-.47-15.44-.72,2.49-2.86-.18-3-2.1-3.25-1.28-.15-2.62.45-3.94.51a66.23,66.23,0,0,1-7.32.06c-2.59-.16-5.44-1.47-7.66-.73-2.71.92-4.87,3.45-7,5.06-1.3-.3-2.94-1.2-4.24-.85-1.94.53-4.65,1.2-4.06,4.21.49,2.54,1,5.39,4.85,4.93.83-.1,1.77.73,2.66,1.14l-.26,1c-2.38-.23-4.83-.9-7.12-.55s-3.81,3.81-8,2.12L262,56.31l-.17-.68h-3.44c-.53-1.08-1-2.1-1.56-3.21-2.75,2.54-4.32,7.42-3.33,9.72l-1.68.34v.8l12.58,1.88v1.43l-21.69,1.48c-.73,2.6-2.31,5.49.11,8.55.37.47.09,1.58-.11,2.34-.67,2.6-1.42,5.19-2.18,7.77-.33,1.13-.42,2.78-1.19,3.24-4.1,2.44-4.64,5.69-2.62,9.67-2.86,1-5.77,5.59-5.94,9.42a9,9,0,0,1,2.05-.71,1.61,1.61,0,0,1,1.36.62c.15.32-.24,1-.54,1.38-1.9,2.47-3.84,4.9-5.76,7.34l.43.13-4.1,3.12,3.47.8-8.56,5.69.46,1,4-.33c-2.29,2.9-4,5.05-5.67,7.2-.36.46-1,1-1,1.43.37,4.11-2.35,5.9-5.34,7.75-.44-1.87-.82-3.45-1.09-4.56-1.14,2.75-2.17,5.57-3.48,8.26-1.56,3.18-3.33,6.26-5.08,9.35-.24.43-1,1-1.32.87a1.67,1.67,0,0,1-1-1.29,42.28,42.28,0,0,1,.61-4.42l-3.07,2.42-.7-.68,7.21-12.77-1.09-.61-3.45,4.12-1.84-3.68-2.1,1.22c.18,7.55.36,15.09.55,23.46l4-2.57c-.65,4.13-1.18,7.44-1.85,11.63,2.45-4.6,4.46-8.4,6.48-12.2l-.81-.38-2.49,2-2.09-3.37,6.56-4.94.58,2.94.94.29,4.6-7.72c-.21,5.27.28,10.74-4.4,13.85.57,1.64,1.95,3.64,1.44,4.46-1.43,2.3-2.37-.49-3.61-.82-.86-.23-2.84.58-2.91,1.1-.51,4-.67,8.08-1,12.51L195.84,181c3,3.29,3,3.29.51,7.78.22.12.66.2.82.46.69,1.07,1.29,2.2,1.92,3.3-1.17-.37-2.32-.78-3.5-1.11-.94-.28-1.9-.47-2.86-.7a14.42,14.42,0,0,0-.29,3.61c.38,2.17,1.1,4.28,1.76,6.73h-3.86l-.27,1.27,4.52,1.06-.09-.08c-.52,4.28-4.07,7.27-7.16,6,0-1.19.41-2.59-.07-3.53-1.25-2.45-1.71-4.38,1-6.2.72-.48.77-2.14.92-3.29.24-1.88.14-3.81.47-5.67.37-2,1.07-4,1.63-6l-.92-.36c-3.5,7.49-9.12,14-9.62,23.2l2.67,1.75.2-3.18,3.78,3.2c-.07,3.22-1.83,4.45-5.57,4.09v7.09c1.46-1,2.37-3.29,2.82-3.21,2.71.51,3.54-1.47,5-2.88.61-.59,1.91-.49,2.89-.71a25.94,25.94,0,0,1,.24,2.91,8.89,8.89,0,0,1-.41,3.06,4.31,4.31,0,0,1-1.86,2.4,14.49,14.49,0,0,1-4.05.41,29.12,29.12,0,0,1-2.08,2.88c-1,1.09-2.85,1.89-3.1,3.08-.4,1.86.24,3.94.44,5.92-1.13,0-2.46-.44-3.33,0a27.25,27.25,0,0,0-4.3,3.47c.61,2.73,2,3.44,4.42,1.18,1.34-1.27,2.11-3.15,3.13-4.76,3.4,2.53,3.78,5.08,1.38,9.31-4.14-.94-4.32-.7-4.51,4.92a14.85,14.85,0,0,0-2.9,1.77c-3.19,3.43-1.27,7.48-1.19,11.29a1.85,1.85,0,0,0,1,1.4c1.86.54,3,1.8,2,3.42-.69,1.11-2.52,1.52-3.11,1.84-1.43,1.19-2.48,1.73-3,2.59s-1.12,2.38-.76,3.21c.65,1.51,2,2.73,3.23,4.31.92-6.81.92-6.81,3.24-8L181,281.19l-3.22-1.85c-.55,2.36-1.06,4.52-1.53,6.54,1.74,3.56,3.53,7.22,5.39,11.05l-1.53-.38c.46,3.29.93,6.58,1.43,10l1.43-.3,1.65,6.48,3.31,1.31-.39,1-2.87-.14-.08.5,4,2c-1.22.78-2.6,1.31-3.35,2.31-.36.47.14,2.28.79,2.73,2.87,2,2.36,5,1.37,7.23-1.14,2.56.42,4,1.18,5.75,1,2.22,2.37,4.24,3.38,6.45.42.91-.11,2.59.47,3,2.4,1.85,2,4.35,1.76,6.65-.29,3.47-1.23,6.88-1.43,10.34-.06,1,1.37,2.55,2.42,2.88s2.48-.54,3.25-.75c1.26,6.94,2.43,13.34,3.66,20.11l3.11-1.94c.17,1.89-.23,4,.63,4.94.65.72,2.92,0,4.42-.08-.56,4.24-1.11,8.42-1.69,12.76l6.28.51.23,3.31c4.6,0,6.86,2.18,6.44,5.93,2.32.39,2.2.6,2.61,3.34.26,1.78,1.38,3.44,2.11,5.15a51.38,51.38,0,0,0,4.27-3.33,22.45,22.45,0,0,0,2.36-3.46c-.65,3.21-1.48,5.74-1.53,8.29,0,1.14,1.32,2.55,2.41,3.34.4.29,2-.73,2.79-1.42a20.66,20.66,0,0,0,2.35-3c3.27,3.85,3.65,8,3.1,12.89l6.11-4.64c1.62,1.42,3.28,2.94,5,4.36.85.68,2.19,1.85,2.7,1.6,1-.5,2.33-1.95,2.21-2.83-.54-3.94,2.54-4.48,5-5.72L261.35,427l4,3.27-1.12.27c.39,2.59.79,5.19,1.19,7.78-1.28.69-3.44,1.19-3.63,2.1-.32,1.58.58,3.4,1,5.29l4.81-1.63-5.71,4.2.53.7,2.59-.16c-.88,6.29-5.59,11.73-3.06,18.52l1.68-5.81,2.66,1.69-2.45,3.64.85.69,5.53-4.71c-5.3-4.48-5.66-5.6-3.3-10.14l.83,2.65c3.32-1.7,1.31-3.36.05-5.16l2.57.37c-.2-2.61-.38-4.95-.56-7.35Zm216.19,26.55.2-.15c1.82-.82,3.57-2,5.47-2.4,4.65-1.07,6.3-4.56,6.48-8.53.15-3.28,1.49-3.15,3.4-2.56V443.53l3.43,2.6c-.56-2.11-1.07-3.21-1.09-4.33,0-1.83-.23-3.88.47-5.47,1.68-3.78,1.37-6-1.83-8.7a2.43,2.43,0,0,1-.6-1.91c.19-1.41,1-2.8.92-4.18-.1-2.54.92-3.54,3.41-3.21-2.37-5.41-7.2-7.8-11.09-4.34-3.7,3.29-6.09,8.22-8.49,12.73-1.24,2.34-1,5.45-1.93,8a3.79,3.79,0,0,0,.51,4c.87,1.35,1,3.19,1.72,5.68l-3-1.7c-.65,1.27-1.23,2.39-1.82,3.52-1-2.75-2.33-5.1-5.58-5.4,1.66,2,1.54,6.05,5.69,5.29-.61,3.12-.8,6.41-2,9.3-.71,1.72-1.08,4.91-4.49,4.2.15,2.05-1.37,2.76-2.71,2.19-.89-.39-1.19-2.18-1.75-3.35l.75-.39,2.28,1.83c-.79-2.32,1-5-3.4-5.32l4.2-5.53-2.9-2.68c3.1.11,3.13,0,2.29-4.47l-3.2-.68c.42,2,.79,3.66,1.15,5.37l-4.19-.37c.33-.56.83-1.41,1.34-2.26-6.78,2-5.51,9.12-8.81,14-.44-1.45-.69-2.31-.87-2.9l-5.51,9.69c.2-2.08.33-3.4.46-4.72l-.52-.09c-1.06,2.88-2.13,5.75-3.21,8.67l-1.68-2c-.15,2.93-3.94,5.65-.07,8.33-6.65,5.64-5.68,13.62-6.7,21.11a5.27,5.27,0,0,0,2.47-2.1c.81-1.12,1.53-2.31,2.39-3.39,2.81-3.54,6.88-6.15,8.08-10.88.3-1.16.26-2.49.81-3.51.94-1.75,2.41-3.19,4.61-2.36.84.32,1.35,1.49,2.45,2.8l-5-.29-.12.75,6.17,2.85-2-9.42,2.2,1.7,2.22-3.94-2.9,1.32c-.2-2.67-.38-5.09-.58-7.8,2.05-1,3.4-2.55,2.52-5.57-.22-.79,1.24-2.2,2.16-3.09.18-.17,1.44.78,2.2,1.21l-.3.57-1.94-.32,1.87,9.48,1.33-2.38c.61,1.11,1,1.83,1.43,2.56-1.11,1.72-2.59,3.34-3.12,5.23-.18.63,2,1.94,3.76,3.48,0-2.41.1-3.67,0-4.91s-.5-2.59-.76-3.88c.95,1.06,2.65,2.08,2.71,3.19.15,2.66,2.19,5.28.3,8.07-.32.47.29,1.57.48,2.37l-2.82-3.52v7.87l.84.08c.66-1.36,1.31-2.72,2-4.07l-.27,4.18c1.24-1.23,1.44-2.75,2.28-3.7C478.38,475.89,481.11,473.34,483.74,470.69ZM353,556.45l-.11-.11c-3,.73-2.3,3.72-3.94,5.76,4.52,1.4,5.76-3.46,9.18-3.57,2.52,2.25,5.62,2.15,10-1.11-5,1.52-1-2.21-2.82-1.95l-8.26-1.68,6.93-3.15c-6.24-2.61-1.58-5.72-1.24-9a14.88,14.88,0,0,0-3.6,3.66c-.33.46-.28,1.51-.59,1.59a2.28,2.28,0,0,1-1.89-.39c-2.3-2.29.38-3.72,1-6.11l1.1,1.88,5.13-2.24c-.15,2.13-.24,3.4-.35,5.06l2.72-3.15.5.41c-1,2.21-2,4.43-3,6.64a17.71,17.71,0,0,1,16.09-6.22c-.35,3.05-.65,5.61-1,8.16l.78.12c.34-1.37.68-2.75,1-4.24.3.87.58,1.7,1.07,3.18.27-2,.44-3.29.77-5.76l1.68,3.62c.67-4.84,3.37-4.38,5.8-3.71a54.57,54.57,0,0,1,6.45,2.64c.15-1,.32-2.07.62-4l4,6.86,1.35-5.14c.91,1.85,1.34,2.72,2.13,4.34l.66-4.77a10.84,10.84,0,0,1,1.63-.13c6.15.5,6.06.5,6.61-5.38a28,28,0,0,1,1.56-5.32c1.9,3.43-2.12,6.87.78,9.72,5.12-2.14,4-6.91,5.21-10.71a12,12,0,0,0-2.2-12.31c-.73,3-1.15,3.38-4.07,3.07-3.87-.41-8.05-1.74-8.87,4.43-1.34-1.51-2.25-2.62-3.25-3.63s-2.11-2-3.28-3.08a9.36,9.36,0,0,1-1.51,1.1,7.47,7.47,0,0,1-1.62.37c-1.49-5.19-1.49-5.19-7.44-11.7,3.33,1.86,6.5,4,9.76,6,2.62,1.59,5.19,2.61,8.57,1.49,2.11-.71,4.75.16,7.19.32,1.24-1.39,2.47-4,4.24-4.47,3.95-1,8.18-.71,12.25-1.24.61-.08,1.62-1.87,1.4-2.55-1-3.28-2.24-6.61-6.71-6.28.42-5-.16-9.18-4.65-12-1.16-.73-1.58-2.62-2.35-4s-1.16-2.79-2.18-3.68-2.62-1.12-4-1.64a20.74,20.74,0,0,0-1.22,3.72c-.31,2.37-.4,4.35-3.9,3.28-1.1-.34-3.23.84-4.12,1.95a12.2,12.2,0,0,0-2.64,9.84,33.37,33.37,0,0,1,.05,5.19c-3.83-.28-7.09-.3-10.28-.78-6-.9-11.88-1.24-17.49,1.69a8.2,8.2,0,0,1-1.75.48l.27,0-3.52-2.12,3.08-.17-1.22-6.26c-2.79.75-5.38,1.57-8,2.1-1.33.27-3.2.56-4.08-.12a38.71,38.71,0,0,1-12.69-15.95c-1.29-3.12-2.27-6.38-3.53-9.52-1.31-3.3-3.36-6.42-4.06-9.82A76.19,76.19,0,0,1,335.61,450c.06-7.28,5.47-11.69,10-16.62,2.74-3,7-3.45,9.38-6.7,1-1.39,1.54-3.43,2.86-4.25,3.94-2.46,8.17-4.46,12.28-6.64,2.81-1.48,5.71-2.36,8.91-1.5.46.12,1.07.35,1.39.16,4.3-2.59,8.41-.41,12.58.4,4.46.87,8.9,1.89,13.41,2.38a73.84,73.84,0,0,0,10.83,0,2.74,2.74,0,0,0,1.91-1.42,2.52,2.52,0,0,0-.34-2.22,27.91,27.91,0,0,0-3.21-2.78c-4.79,2.14-8.56,1.3-11.84-2.3a5.16,5.16,0,0,0-3-1.4c-4.06-.52-8.14-.83-12.35-1.24v-4.69l-3.55,5.31-5.39-5-2.25,1.52-1-.46c.44-1.7,1-3.37,1.3-5.09s-.12-3.76.59-5.26c1-2.15.91-3.49-1.6-5.23-.71,4-1.33,7.46-1.94,10.91l1,.13L371,403.79l2.88,2.27-9,2.83c1.47-3.35,2.53-5.77,3.6-8.19-3.71,1.85-5.68,4.46-4.18,8.27L352,415l1.16-6.62-1.18-.14a24.6,24.6,0,0,0-1.43,4.54c-.09.68.85,1.51,1.32,2.27-3.39,2.75-6.7,5.62-10.24,8.17-.88.64-2.51.23-2.81.24-2.19,4.11-4.26,8-6.34,11.84,0,.09-.2.12-.52.28l-2.63-1.85c-1.21,3.85-3.44,7.21-1.36,11.27a2.14,2.14,0,0,1,0,1.9c-4,4.33-3.62,8.75-.4,13.16l-4,9.84-1.76-3.28v6.65l1.94-1.6c1.9,5.12-1.77,10.66,1.38,15.61a7.85,7.85,0,0,0-.95,2.16c-.61,3.76-4,7.38-.56,11.41.34.39-.26,1.6-.45,2.42-.34,1.47-.7,2.93-.86,3.61,3.45,1.79,6.42,3.33,9.65,5-1.4,1.06-2.13,1.67-2.92,2.19a28.12,28.12,0,0,1-3.26,1.92c-.11.06-1.05-1-1-1.17a33.85,33.85,0,0,1,2.21-2.88c.19-.25.36-.52.52-.75-2.76-3.49-3.6.71-5.2,1.3-4.09,1.5-4,5.61-4.47,9.08-.07.54,1.77,1.35,2.73,2l1.23-1.91,4-.54c.36.63.83,1.61,1.43,2.51s1.43,1.84,2.15,2.75c-3.11,1.89-3.47,7.07-.74,9.06a5.28,5.28,0,0,1,1.2,1.91c.86,1.7,1.69,3.41,2.53,5.12l.79-.42-.71-3.68,1.29,0c-.14,2.36-.28,4.71-.43,7.38.75.22.95,3.49,3.47,1.39l3.31,6.55,3.78-1.31.31.51-3.16,3.5,3.9,1.55-4.07,1.16c4.83,2.79,6.39-1.68,9.33-3.74ZM436.19,432c-.3-.8-.51-1.25-.63-1.71-1.45-5.42-3.77-6.33-8.67-3.55a4.36,4.36,0,0,1-2.89.36c-6.31-1.57-12.55-3.51-18.91-4.86-6-1.27-11.7-3.84-18.11-3.05-2.94.36-6.17,1.14-9-1-.5-.39-1.8.19-2.71.43-4.53,1.18-5.89,5-7.12,9.07-3.71-1.65-7.71-3.71-10.71-.11-2.32,2.79-3.41,6.6-5.07,10-4.28-1.38-5.67-.54-5.4,3.62l6.43-1.65c2,1.95,2.56,5.66,6.46,4.12,2.53-1,5.05-2,7.88-3.18,1.34,4.32,4.33,7.11,9.05,6.21,4-.77,8.47-1.58,9.73-7.48,2.39,6.21,7.2,5.72,11.8,5.72a13.61,13.61,0,0,1,2.43-.21c4.72.91,9.4,2,14.13,2.87,2.22.41,4.53.51,4.59-3.45,3,4.39,7,3.71,10.66,3.6,4-.13,7.54-1.14,8.62-5.92,2,2.63,3.55,4.81,5.31,6.77,2.19,2.43,4.85,2.1,6.35-.87,3.92-7.77,4-15.82,1.06-25.05L440,432.81C438.52,430.31,438.52,430.31,436.19,432ZM495.3,278.47c0,.41.05.82.07,1.23,2,.38,4.07,1.31,6,1,7.48-1.07,13.05-5.07,16.56-12.16l-2.42-2.6c-1.45.95-2.43,2.15-3.42,2.16C504.23,268.23,500.44,274.36,495.3,278.47ZM301.18,474c1.52-2.52,2.46-5,.65-7.21a88,88,0,0,0-6.91-7C292.59,466.3,294.61,469.52,301.18,474ZM551.07,38.39l-.76-1-10.18,1.79c.1.28.19.56.28.83l3.72.72A4.25,4.25,0,0,1,541.7,42a8.73,8.73,0,0,0-2,.85,11,11,0,0,0,1.44,3.53,2.27,2.27,0,0,0,2.2.26C546,44,548.5,41.15,551.07,38.39Zm-304.73,417,2.73,3.18a43.21,43.21,0,0,0,2.77-5.08c.21-.53-.64-2.15-1-2.16-1.68,0-3.82-.18-4.9.74s-.76,3-1.07,4.6l.67.1Zm16.8,27.47c1.34-1.14,3.13-2,3.8-3.44.59-1.23-.09-3.06-.21-4.62l-1.59-.15c-.55,1.38-.72,3.2-1.72,4.05C261.08,480.7,260.92,480.51,263.14,482.85Zm83.59-19.08,7.27-2.4.83,1.71.9-.35c-.43-.92-.88-2.65-1.27-2.64a37.77,37.77,0,0,0-7.41,1C346.72,461.19,346.81,463,346.73,463.77ZM600,545.68a9,9,0,0,1-2-1.5,12.73,12.73,0,0,1-1.14-2.49l-3.62.65C594.64,546.77,595.65,547.28,600,545.68ZM228.57,569.55c-2.49-1.91-4.66-2.3-6.68-.1a2.42,2.42,0,0,0-.34,2,1.64,1.64,0,0,0,1.45.74C224.79,571.45,226.5,570.54,228.57,569.55ZM189.23,359.11l-1.35.09c-2.44,3.88-2.36,4.3,2,6.49C189.64,363.15,189.44,361.13,189.23,359.11Zm38.55,229.52.78-.78-4.31-4.51C221.91,586.55,222.08,586.77,227.78,588.63Zm122.5-115c4.35.65,5.62-1.14,5.11-7.79ZM479.45,66.91c3.44-3.5,1.83-5.88.22-8.26l-1.25.13C478.73,61.21,479,63.63,479.45,66.91Zm-384,15.35c-4,1.17-4.75,2.59-3.11,5.46l5.3-2.8h-3Zm192,379.82c-.21,1.53-.37,2.62-.51,3.64,2.95,1.21,4.94,1.4,4.81-2.38ZM124.15,49l-1.68-.39-2.36,5.24.66.73c.76-.28,2-.37,2.19-.88A28.13,28.13,0,0,0,124.15,49ZM275.46,446.62c-.32,4,1.44,6.93,3.63,7.42L277.63,448ZM418,551.88l.71-.16v-5.36h-.73v3.17l-2.86-4.73-.73.43Zm38.73-66.82-5.42,3.41,8.27-1-2.46-3.5-.55.26C456.64,484.78,456.74,485.3,456.69,485.06ZM291.18,480c4.2-.13,3.91-3.3,5.19-5.26l-1.11-.81C294,475.78,292.75,477.64,291.18,480ZM474.89,295.17l-.62,1,1.27,3.4h3.37l.57-1ZM250.73,443.29c-2.14,3.73-1.43,5,2.4,5.8C252.41,447.33,251.71,445.65,250.73,443.29ZM172.58,218.41c.47-1.13,1.09-1.93,1.06-2.71a22.34,22.34,0,0,0-.85-4l-2,1.32ZM331.8,549.76l-1.92-7.51C328.12,544.64,329.2,549.09,331.8,549.76ZM147.41,12.5c-4.11.18-6.09,2-5.86,4.81Zm64.77,125.76,1.63.64,2.48-6.53-.8-.31Z"/><path class="cls-3" d="M112.41,577.69l3,1.22-.29,1-3.54-.65-.6.62,7.85,6.23-1.61-4.1c2.47-.63,4.94-1.36,3.07-4.78a1.23,1.23,0,0,1,0-1.06c2.91-3.91-.19-6.66-1.68-9.87s-2.24-6.45-3.76-9.75V563l-1.52.25c-1.73-4.68-3.47-9.35-5.18-14-.11-.31-.16-.9,0-1,4.86-3.7.57-6-.64-7.64.86-4.08,1.53-7.31,2.33-11.17l3.11,4.63c1.4-4.84-5.06-7.69-1.74-12.53l-4-2.21,1-.52-3.35-9.7,3.08,1.3.6-2.92c2.85,3.68,4,3.87,8,1.74v-7.9c-1.91,1.81-3.86,3.43-6.74,1.8-.5-.28-2,.93-2.86,1.64a22.41,22.41,0,0,1-5.21,3.69L108.44,498c-2.07-2.52-4.74-4.52-1.42-7.51-4.13-.73-4.61-1.69-3.92-5.69a10.93,10.93,0,0,0-.54-3.95c-.84-3.89,1.77-6.68,3.25-10l-3-1.68a48.38,48.38,0,0,0,1.09-5.09,2.51,2.51,0,0,0-.81-2.09c-2.65-1.38-2.41-3.67-2.4-6.07a7.34,7.34,0,0,0-1.06-3.56c-1.65-2.8-2.63-5.29-1.13-8.78,1.38-3.22,1.37-7,2.13-10.53a36,36,0,0,1,1.6-4.54l1.1.34V434l1,.14c.34-1.54.72-3.07,1-4.62.46-2.32.93-4.65,1.25-7a5.45,5.45,0,0,0-.43-2.32c-.58-1.68-1.57-3.29-1.8-5-.6-4.57.15-5.46,4.38-6.48.29-3.38.58-6.7.87-10,2.31-1.86,4.64-2,7.8-1.76a57.83,57.83,0,0,0,29.24-5.21c.72-.33,1.12-1.32,1.83-1.73,3.27-1.87,5.51-6.84,9.88-3.76l-.9,6.22-1-.14c0,.59-.22,1.3,0,1.68,3.5,5.09,1.23,10.15.31,15.35-.47,2.66.29,5.56.6,8.33.52,4.57.56,4.57-2.67,7.67l3.54,1.4-3.26,4.17,3.27-.23c-.15,1.55-.31,3.13-.47,4.69-.7-.88-1.41-1.75-2.11-2.61l-1,.3v6.3l3.11-4c.54.41,1.6,1,1.53,1.21-.56,1.69-1.86,3.31-1.87,5,0,1.42,1.35,2.86,2.31,4.67-.93,2.47-2.12,5.41-3,8.43-.12.38,1.15,1.19,2.2,2.22l-2.31,4.71,3.33-.82c-4.71,5.59-1.18,7.59,3.78,10-.34.56-.75,2.07-1.71,2.62-2.46,1.41-3,2.57-.52,4.48a10.63,10.63,0,0,1,3.36,3.56c.83,1.85.92,4,1.33,6.05l-1.07.49,2.17.16c1,2.93,1.82,5.55,2.63,8l-5.7,3.24.27.88L171.3,498c.53,2.3.61,4.72,1.69,6.56.87,1.49,2.95,2.27,4.56,3.41l-1.63,1.34.27.55,2-.53c.15,2.14.3,4.31.45,6.38l3.54,1-.09,1.14-7.27.91-.12-.79-2.58,2c.38-1.74.77-3.49,1-4.66l-3.3-1.8c-.55,1.78-1.22,3.91-2,6.37h4.35V523l6.78-.48.23,1-3,1.65,3.82,1,.27.88c-.84.35-1.71.65-2.52,1a14.46,14.46,0,0,0-1.63,1.09l1.39,1.48c-1.08,0-2.3-.39-3.21,0a33,33,0,0,0-4.5,2.72c1.09.87,2.18,1.72,3.26,2.6,3,2.43,6,4.35,10,2.06l-2.24,2.57,3.59,2.44-1.23,1.45,2.11.48,1.87,2.69-5.07.67c.28,1.41.56,2.82.85,4.23l-.12-.28-2.57,7.23,2.82-2.64,1.41,2.38-.09-.1,1.08,5.57a18.21,18.21,0,0,1,3,3.21c.71,1.24.88,2.79,1.51,5l.69-5.71-.14,0c1.65.49,3.33.9,4.94,1.49a36,36,0,0,1,3.37,1.63l.09-.09-3-.68,3.81,4.19L195,572.22c3.34,2.93,7.26,5.45,5,11.26,2.58-3.52,5-.71,7.53-.4,4.08.49,8.26.13,12.5.13l-.62,1.64.1-.09-8.73-.57c.17,1.45.34,2.95.51,4.44l.33.39c-.9-.14-2.1.05-2.64-.46-2-1.91-3.34-1-4.8.63l5.14,4.83.68-1,1.64,2.31c.24-1.38.4-2.34.57-3.3l4,5.51c3.83-.74,3.33,3.12,5,4.76l3.2-2.28-1.94,6.55-3.16-2.79c-1.21,2.58-1.14,2.43,1.82,3.72a32.76,32.76,0,0,1,4.8,3.15l-1.86-1-3.08,5.13,8.44,2.1c.33-1.93.5-2.94.68-4l-4.4-2.46a18.49,18.49,0,0,0,3.13.75c3.55.26,5.28,2.48,4.89,6.2a9.73,9.73,0,0,0,.49,2.79c-3.9-1-6.94-.1-9,3.93,4.15-3.39,7-2,9.52.42,1.94,1.81,3.72,3.79,5.9,6l-4.2,1c4.07,1.66,8.81.5,11.27,4.52l.38-.51c0,1.9,0,1.9-3.8,1.82-1,2.41-1.93,4.82-2.89,7.24H0V0H141.46c-2.88.91-4.79,2-4.86,5.9,0,2-3.35,4-5.32,5.88-.63.6-1.7.72-2.76,1.13,1.43,2.72,2.2,5.05-2.38,4.58,2.61-.19,4.93,3.52,7.65-.55-.15,2.95-.27,5.31-.42,8.17l3.74-1.35c-.8,1.72-1.07,3.53-1.86,3.79-5.17,1.7-6.71,6.09-7.76,10.54a4.12,4.12,0,0,1-3.34,3.5c-3.62,1.14-7.17,2.51-10.74,3.8a4.68,4.68,0,0,0-1.32.61c-1.81,1.42-3.6,2.88-5.53,4.43-3.73-3.5-4.62-7.49-3.85-12.06-.6,3.1-3.36,6-.74,9.19.59.73,1.08,1.53,1.69,2.23,2.62,3,2.62,5.18,0,7.94.86.52,2.54,1.24,2.47,1.51-.64,2.46-1.59,4.84-2.53,7.47l3.07,1.51c-3.12,5.61-8.86,4.9-13.34,6.77-3.88,1.62-8,2.85-11.53,5.09-3.91,2.51-3,7.09-2.76,11,.14,2.21,1.15,4.37,2,7.35,1.06-1.85,1.77-3.1,2.48-4.36a.75.75,0,0,0,.16-.15l6.24-7.17c1,3.14,2.09,5.42-.1,8.65-2.53,3.75-3.83,8.35-5.62,12.6-1.17,2.78-2.26,5.61-3.4,8.41-.09.21-.44.43-.4.58,1.22,4.18-1.55,7.08-3.86,10.82l3.72-2c-1.59,5.54-3,10.56-4.62,16.08,2.59,3.25,1.22,9.8-3.93,14.38l1.47,1.15L70,161.8l3.42-1.12.55.53-5,4.5,2.54.47-3.29,6.13,3.3-1.81.47.37c-1.1,1.29-2.77,2.44-3.14,3.92s.47,3.42.78,5.18l1.75-1.18c-.79,3.58-1.49,6.79-2.19,10-.83,3.84-1.79,7.67-2.34,11.55-.08.61-2.28,2.73.76,2.81l-.18,1c-.85,5.71.27,12-4.39,15.79l.38,3.68c1.88,2.57.18,5-.44,7.64-.43,1.92.36,2.1-3,6.64l2.8-1.63c1.64,4.25-.66,7.57-2,11.14-.27.72.66,1.9.86,2.41L56,262.58l.72.3a73,73,0,0,1,4-8.41c.78-1.25,2.67-1.8,4-2.66.12,1.5.65,3.11.27,4.48-1.17,4.17-2.76,8.22-4,12.37-.32,1-.05,2.27-.05,3.88,3-1.17,6-1,4.58-5.56-.58-1.89,1.26-4.52,2.37-7.92,3.12-3.6,8-1.36,12.78-.87a42.48,42.48,0,0,0,6.86.19c10.12-.58,16.51,5.5,22.7,12.27a64.23,64.23,0,0,0,10.54,9c-2.27-4.2-2.43-9.43-7.26-12.14-1.9-1.08-3.08-3.36-4.82-4.81-3.18-2.65-6.22-5.84-9.91-7.4-4.34-1.84-9.31-2.25-14-3.15-3.32-.64-6.7-.95-10-1.64-2.18-.45-3.6-1.62-2-3.51l-1.95-3.32,5-1.9c2.18-2.41,5.73-5,9.94-4.51a58,58,0,0,1,14.84,4c5.4,2.22,10.45,5.32,15.57,8.17a12.35,12.35,0,0,1,2.79,2.67,48.61,48.61,0,0,0,3.8,4.27c1.87,1.62,4,3,6.31,4.63,1.67-1.49,3.92-2.56,5.93-.05l-2.77,1.71,3.81,3.85a22.67,22.67,0,0,1,2.92,3.73c1.82,3.36,3.35,6.89,5,10.33.79,1.62,2,3.13,2.4,4.84,1.12,4.24,1.81,8.6,2.9,12.86.69,2.68,1.78,5.27,2.71,7.89,1.39,3.9,2.8,7.8,4.19,11.7a2.41,2.41,0,0,1,.18.7c.24,5,.63,9.9.66,14.85,0,7.45-.94,15-.06,22.33.64,5.39-.05,10.43-.63,15.61a2.33,2.33,0,0,1-1.14,1.64c-6.29,2.54-12.59,5.1-19,7.38a12.72,12.72,0,0,1-5.64.34c-4.21-.51-8.31-1.64-12.65-1.43-1.31.07-2.66-1.48-4-2.17-3.67-1.85-7.62-3.26-11-5.55-2.91-2-5.16-4.95-7.74-7.45-2-1.94-4-3.89-6.1-5.74-6.92-6.1-10.85-14.13-14.27-22.41-2-4.86-3.33-10-5-15-.68-2-1.49-4-2.24-6l-1.16.22c.16,2.39.18,4.81.51,7.18a81.87,81.87,0,0,0,1.61,8.05c.82,3.32,1.81,6.59,2.72,9.89,1.56,5.71,3.24,11.39,4.64,17.14,1.09,4.49,2,9,2.69,13.61.58,4.19.46,8.47,1,12.67A78.29,78.29,0,0,0,81.54,392l1.24-.34-2.41-6c6.84,4.65,7.37,7.78,7.72,17.44.39,10.59,0,21.21-.23,31.81-.22,10.12-.43,20.26-1.16,30.35-.54,7.6-1.75,15.15-3,22.68a40,40,0,0,1-2.78,9.3c-1.63,3.79.05,5.1,3.07,5.36l-4.69,3.76.71,1.64c6.31-1.06,8.31,2.2,7.9,7.73L95,511.8l-3.29-1.67,4.42-1.73c.83,2.6,1.4,4.92-2.25,6.25-1.54.56-1.34,1.93.28,3a17.43,17.43,0,0,1,4.34,3.91c.55.73.09,2.21.09,3.81l1.41.57-1.55,3,2.48,1.32-.89.25c.84,6.54,1.67,13.07,2.53,19.76,2.48.4,6.22,6.78,4.37,9.46-3.26,4.71-.78,9.25-.1,13.66.27,1.69,3.7,2.89,5.7,4.31Zm101,34.37,1.5-.3a32.73,32.73,0,0,0-2.51-2.62c-.58-.5-2-.74-2-1.07.1-3.53-2.4-4.37-5-5.13,2.2-.38,5.22-.22,4.94-3.34-.14-1.55-2.29-2.92-3.53-4.38L206,596l3.12,4.17L205.52,603l-2.26,2.24c3.49,0,5.27,1.38,6.59,4.14.56,1.17,2.35,1.75,3.58,2.6-.12.88-.57,2.39-.31,2.53,2,1,4.17,1.81,6.28,2.67l.49-.76ZM123,593.89c.46-5-.19-7.21-2.41-8.24-.52,1.44-1,2.91-1.57,4.37l1.23-1.73c.93,1.85,1.86,3.69,2.78,5.54l-9.89-2c1,4.1,3.11,5.32,7.59,4.2v4.77c1.88-2.78,3.25-4.79,5.1-7.51C124.26,593.62,123.61,593.77,123,593.89Zm-52.34-69.2c-7.82,6-14.48,11.85-21.81,16.63s-15.23,8.44-22.89,12.6l.76,1.41c11.79-4,23.86-7.38,33-16.79,4.29,4.77-3.28,8.39,0,13.38a49.6,49.6,0,0,1,2-4.88c.72-1.34,2.06-2.41,2.51-3.8a33.19,33.19,0,0,0,.8-5.69,6.26,6.26,0,0,1,.41-1c.38-1.16.75-2.32,1.09-3.5a13.06,13.06,0,0,1,.64-2.46C68,528.86,69.12,527.19,70.64,524.69ZM126.76,621l1.33-.08c-.2-1.75-.08-3.61-.67-5.21-1-2.67-2.63-5.08-3.61-7.75-1.06-2.86-3.44-4.52-6.42-3.68a41,41,0,0,0-4.68,2c2.34,1.27,6.28,1.86,3.88,4.79s-1.37,5.41-1.32,8.24a13.86,13.86,0,0,1-.66,4.42c-.7,2.22,0,3.26,2.25,3.3,1.89,0,3.78,0,5.74,0l1.92-3.14c-2.34-4.16-2.25-4.51,1.71-5.6ZM94.82,341l.63-1a5.22,5.22,0,0,0-.76-1.15c-7-6.16-10.54-14.26-12.51-23a42.52,42.52,0,0,1-.59-12.55c.4-4.81,1.66-9.55,2.5-14.33a16.57,16.57,0,0,0,.09-2.23c-.69.42-1.82.7-2,1.28-.89,2.95-1.39,6-2.31,8.95-2.21,7.1-.53,14.18.19,21.2.32,3.08,2.31,6,3.49,9,.43,1.1.7,2.27,1.11,3.38a14.72,14.72,0,0,0,1.69,4,24.59,24.59,0,0,0,4.38,4.33A25.58,25.58,0,0,0,94.82,341Zm31-55.77c-4.13,2.29-7.57,4.41-11.19,6.13-2.74,1.3-3.53,3.22-2.73,5.87s1.86,5.27,2.79,7.86c1.86-3.07,3.06-6.42,5.39-8.53,2.52-2.27,6.09-3.27,9.59-.49C128.33,292.36,127,288.65,125.8,285.23Zm-42.34-5.17c.59-3.76,1.26-6.82,1.47-9.92.08-1.09-1-2.25-1.5-3.38-1.11.8-3.13,1.58-3.16,2.43a56.68,56.68,0,0,0,.83,9.52C81.15,279.1,82.2,279.37,83.46,280.06Zm51.13,5c2.63,5.51,5.75,10.89,2.22,17.81C143.44,298.34,142,288.46,134.59,285.07Zm9.18,52c2.21-2.8,1.28-5.32-.62-7.67-1.27-1.56-2.47-4.48-4.85-2.52-.76.62.65,4,1.27,6.07.17.56,1.15.83,1.66,1.33C142,335.06,142.75,335.93,143.77,337.06ZM4.21,561.78l.56,1.07c1.74-.24,3.65-1.05,5.19-.59,4.35,1.3,6-1.44,8.42-5.17Zm97.37-117a18.58,18.58,0,0,0-.12,3.86c.15.86,1,1.6,1.5,2.39.8-.65,2-1.17,2.27-2a3.72,3.72,0,0,0-.79-2.95C103.84,445.36,102.61,445.19,101.58,444.75ZM152.32,575.3l3-.83,3.26,4.5c3.33-3.41-.07-4.24-1.44-5.56C155.11,571.47,154,573.31,152.32,575.3ZM70.89,528.07a5.09,5.09,0,0,0,2.49-8C72.48,523,71.76,525.29,70.89,528.07ZM213.5,621.91c-1-1.6-1.85-3.29-2.13-3.21a33.71,33.71,0,0,0-4.84,2.18l.44.6Zm-16.17-15.7,2.28,2.06c1.15-4.84.65-6.07-2.28-6.62ZM170.56,565l6.36-3.65-.72,1.19-2.82-2.91.77-.84ZM55.26,281.37l.49,0V267.1h-.49ZM171.33,538.11c1.33,1.91.42,6.43,5.56,4.95Zm-17.81,32,6.08.42.2-.85-6-1.38ZM117,546.41l-.85-5.88-3.47.61Zm5.69-8.64,1.25.1c-1-2.23,2.81-4.15-.45-7.32C123.13,533.5,122.89,535.63,122.65,537.77Z"/><path class="cls-3" d="M646.06,503.14c-5.88,2.75-11.82,5.36-17.59,8.31-3.92,2-7.54,4.57-11.4,6.68-4.23,2.31-8.7,4.18-12.85,6.61-2.39,1.4-4.27,3.62-6.52,5.3s-4.89,3.29-7.32,5c-6.09,4.21-11.89,8.94-18.33,12.52-5.71,3.17-9.13,9-15.18,11.75l-.37-1.79-.67-.11c-.24.75-.44,1.52-.72,2.26s-.59,2.13-1.07,2.22c-5.65,1-7.63,6.51-11.63,9.5-2.85,2.13-5.5,4.54-8.41,6.58-.68.48-2.11.16-3.11-.13-1.84-.53-3.61-1.3-5.4-2-8-3-16.08-6.08-24.08-9.2a49.54,49.54,0,0,1-4.79-2.49c.59-2.4,2.33-5-1.18-7.2.24,1.77.46,3.31.7,5.08-3.64-1.16-1.93-3.78-1.88-5.64,0-1.38,1-2.73,1.71-4.41l2,.57c-.31-1.11-.6-2.11-.93-3.26l2.28.29c-.84-1.65-1.51-3-2.51-4.94l3.67,1.23c.78-4.51,1.57-9,2.31-13.31l.58.42c1.54-4.42-.33-9.6,3.77-13.59a5.67,5.67,0,0,0,.95-5c-1.21-3.26.59-4.6,3.16-6.3l-2.82-.27c1-.71,1.7-1.15,2.32-1.71a2.7,2.7,0,0,0,.94-1.37c.72-6.1,1.33-12.21,2.07-18.31a56.79,56.79,0,0,1,1.35-7c.1-.39,1.17-.53,1.1-.5.75-2.28,2.27-4.42,1.8-5.94-1.33-4.26,2.08-7.44,1.84-11.46-.16-2.74,1.19-5.56,1.84-8.36q.75-3.17,1.43-6.34c1.1-5.12,2.26-10.23,3.21-15.37.45-2.43,2-4.24,2.9-6.28,1.66-3.84,3.41-8.33.15-12.52,2.8-4-1.34-8,.16-12.11a48.89,48.89,0,0,0,2.35-11.48c.19-1.86-.88-3.86-1.36-5.72,1.77,1.07,2.55.66,3-2.18.94-5.47,3-10.74,4.06-16.2,1.26-6.21,2.12-12.52,2.91-18.82.4-3.19.24-6.46.38-9.69a54.54,54.54,0,0,0-6.39-28.38,10.44,10.44,0,0,1-1.39-3.69c-.68-7.12-1.34-14.26-1.7-21.41-.11-2.33.64-4.72,1.12-7.07.57-2.75,2-4.64,5.23-4.58l-3.29-1.3,3.4-3.06-.78-.35c.74-1.48,1.2-3.24,2.3-4.37a5.63,5.63,0,0,0,1.91-4.89c-.17-3.83,1.41-7.75,1.14-11.55a15.94,15.94,0,0,0-3.41-8.42,67.1,67.1,0,0,1-5.66-8.17c-4.69-7.87-6.18-16.73-9.16-25.72,5,2.32,9.95,4.58,14.85,7,.61.31.93,1.65,1,2.55,1,12.52,16.78,22.2,26.73,22.16a93.68,93.68,0,0,0,25.44-3.93c9.55-2.72,19.22-5,28.83-7.52a4.87,4.87,0,0,0,1.73-.52c6.84-5.35,15.5-5,23.27-7.44Z"/><path class="cls-3" d="M646.06,156.77c-3.12,3.95-6.13,8-9.41,11.78-1.11,1.29-2.9,2-4.45,2.87a26.64,26.64,0,0,1-2.72,1c-5.88,2.4-11.6,5.41-17.68,7.06-5.48,1.5-10.94-.43-16.12-2.81a128.56,128.56,0,0,0-15.14-6c-1.58-.5-3.79.8-5.65,1.43-3.73,1.25-7.34,3.19-11.16,3.77s-11.34-6.14-12.42-9.92a66.42,66.42,0,0,0-2.6-8.25c-.7-1.57-2.27-2.74-3.38-4.15a7.57,7.57,0,0,1-1.27-2.15c-1.27-3.53-.78-17.61,1-22.16l1.46,2.87c1.33-7.31,2.57-14.12,3.79-20.85l-2.73,2c.43-2.23.47-4.48.93-4.58,7.36-1.43,5.48-8.28,7.7-12.69a45.53,45.53,0,0,1,2.92-4.23c.69-1,1.71-2.12,1.84-3.27.92-8.29,1.63-16.6,2.47-24.89a41.93,41.93,0,0,1,1.07-4.71c-3-.1-5.58-1.1-7.23,3.42-1.8,4.91-5.3,9.28-8.52,13.54-1.32,1.75-4.51,2-4.42,5.11.05,1.57-.74,3.58,0,4.64,5.43,8.08,2.8,16.56,1.61,25-1.26,8.89-3.21,17.73-3.79,26.65a98.2,98.2,0,0,0,7,43.45,11.52,11.52,0,0,1,.59,4.65c-.11,2.72-1.69,3.8-4.4,3.47-3.28-.4-6.74-.16-9.82-1.13a20.77,20.77,0,0,1-8.64-4.87c-2-2.11-3.25-5.43-3.82-8.41a110.56,110.56,0,0,1-1.62-15.44c-.22-4.51,0-9,.15-13.58.08-3,.68-6,.3-8.93-.75-5.78,2.24-10.54,3.6-15.73,2.1-8,4.15-16.07,6.39-24.06,1.8-6.38,3.81-12.7,5.83-19a4.55,4.55,0,0,1,1.79-2.21c2.41-1.56,2.54-3.55,1.69-6a5.44,5.44,0,0,1-.14-3.14c1.86-6.25,2.47-13,6.34-18.49a19.18,19.18,0,0,1,4.51-4.29c2.5-1.81,5.27-3.25,7.81-5a15.43,15.43,0,0,1,11-3c3.24.41,6.27.41,8.92-1.93a4.16,4.16,0,0,1,2.34-.84c8-.58,15.88-1.47,23.26-4.91a20.23,20.23,0,0,1,3.15-.83,290.54,290.54,0,0,1,30.85-7.33c2.28-.4,5.21,1.77,6.93-1.39v113c-3.38-.63-6.79-1.1-10.11-2-3.11-.8-6.49-1.45-9.09-3.17A35.12,35.12,0,0,1,612.37,106a22,22,0,0,0-1.69-3.45l-1.13.46c.35,1.44.67,2.89,1.06,4.33,1.63,6.05,4,12,4.75,18.17,1.06,8.69-3.5,10.67-11.08,9.26-4.15-.78-8-2.85-12.06-4.34l-.58.73c3.06,2.34,6.09,4.73,9.2,7,6.86,5,9.35,10.35,2.1,16.79-1.25,1.11-2.76,1.94-4.12,2.94s-2.48,1.9-4.16,3.2c7.74-2,12.58-6.79,16.66-12.55,2.35-3.33,5.15-3.77,8.2-1.22,1.58,1.32,3.11,2.69,4.75,4.12-.92-8.57.32-9.89,8.67-8.58,4.42.7,8.75,1.93,13.12,2.93Zm-97.68-6.66,1.13-.58c-.23-3.08,2.79-6.55-1.25-9.23l-2.84,3.13Z"/><path class="cls-3" d="M481.26,644.6l5-6.84.82.44c-.09.56-.19,1.12-.31,1.91l2.19-.55a9.78,9.78,0,0,0-.16-1.08c-.64-2.29,1.25-4.9,3.55-6,.84-.39,3.34-.12,2.48-2.93-.58-1.88,3.37-2.83,6.57-1.88l-3.61-2.21,8.58-4.65-2.41-1,12-13.72c.12.29.24.57.37.85,1-.2,2.38-.06,2.83-.65,2.21-2.91,4.1-6.07,6.27-9a5.22,5.22,0,0,1,2.62-1.71c3.32-1,4.84-2.88,4.12-6.43-.13-.65.38-1.43.59-2.14l1.19-.18c.66,1.94,1.32,3.87,2.3,6.72l-2.47-2c-.36,1.07-.67,2-1.08,3.25l3.86.62,2.85-4.18-2.41.35c0-3.63.58-4.13,4.25-3.32v-5.74c2.7.88,4.49.85,4.76-2.42.09-1.06,1.36-2.14,2.29-3a45.49,45.49,0,0,1,4.18-3l3,1.35c1.51-2.8,3-5.57,5-9.34.36,2.24.54,3.4.82,5.18,1-2,1.71-3.61,2.45-5.2l-2-2.41.42-.86,7.07,2.29c-1.69-3.13.35-6.69,4.23-7.1,2.2-.23,4-.05,4.73-3.11.71-2.86,5.24-2.57,7.09,0,.43.61,1.81.54,2.75.78l.39-.82-5-5.24c1.82-.81,4.3-2.52,6.95-2.86,1.7-.21,3.65,1.61,6.17,2.85l7-2.22c.51-6,6.15.09,8.57-2.4l-3.63-2.09.41-.77-5.68,1.4c.56-2.34-3.6-3.66-.56-6,.45-.35,1.74.38,3.2.75l4.27-1.38c0-.2-.11-1-.26-2.34,3.86,2.64,5.64.62,7.39-2.25,1.35-2.24,3.46-2.69,6.74-.62-7.93.87-4.34,6.06-4.62,10.23.65-.38,1.76-.78,1.73-1-.75-5,3.71-6.06,6.27-8.54.6-.59,1.26-1.12,2.41-2.13l-3.69.29c1.06-4.16,4.59-4.75,9.45-2a9,9,0,0,0-1.5-2.48c-3.51-2.93-3.54-2.89-1.15-6.56a24.87,24.87,0,0,1-2.53.23,2.71,2.71,0,0,1-2-.88l6.11-.51c-.22,3.28,3.21,1.48,4.34,3.08.53.75,1.9.91,2.52,1.19.42-1.66.45-3.39,1.28-4.54.63-.89,2.27-1.06,3.46-1.55V644.6Zm86.11-61.33.59.24c.57-3,1.15-6,1.72-8.93l-1-.23-2.09,1.78C566.84,578.67,567.1,581,567.37,583.27Zm-22.88,12.1-2.44-1-2.88,7.6Z"/><path class="cls-3" d="M461.55,32.21a40.72,40.72,0,0,0-3.72-2.28,21.27,21.27,0,0,0-3.08-1.08V22.13L451,27.41l-1-.31c.28-2.5.57-5,.93-8.2l-1.28,1.54c-3-4.07-6-8.19-9-12.32-3,1.67-8.67-1.36-8.73-4.59l2.62,3.05.72-.48L433.86,0h212.2V13.85c-11.23,2-22.49,3.75-33.68,5.93-8.43,1.65-16.73,3.92-25.13,5.71C575.14,28.07,563,30.29,550.89,33c-10.58,2.38-18.85,8.26-23.57,18.19a38.76,38.76,0,0,0-2.88,11.23c-1.9,13.33-3.26,26.75-5.42,40-1.21,7.46-3.57,14.73-5.51,22.06-.2.76-1.08,1.34-1.66,2,.34.74,1.21,1.7,1.12,2.55-.58,5.49-1.48,11-2,16.45-.14,1.34.58,2.76.39,4.34-10.79-22.3-23.26-43.54-36.12-65.24L480,78.24,478.58,77l0,.1c1-1.62,1.94-3.25,3-5.06-.64-.7-1.33-1.47-2-2.23,4.93-6.3,3.9-11.23-2.55-15.51l3.36-.68c1.06-2.17,2.11-4.34,3.68-7.54-.18-2.11-2.69-.8-4.59-.82l.13.13-4.21-2.2.89-.59L471.55,40l.27-1.08,4.28-.53.43-.78L471,34.89l1.75-2.78-1.09.17-4.33-7.5c.09,1.81.1,3.54.3,5.24a4.61,4.61,0,0,0,.87,2.11,32,32,0,0,0,2.3,2.66L461.44,32Z"/><path d="M646.06,145.84c-4.37-1-8.7-2.23-13.12-2.93-8.35-1.31-9.59,0-8.67,8.58-1.64-1.43-3.17-2.8-4.75-4.12-3-2.55-5.85-2.11-8.2,1.22-4.08,5.76-8.92,10.55-16.66,12.55,1.68-1.3,2.9-2.28,4.16-3.2s2.87-1.83,4.12-2.94c7.25-6.44,4.76-11.75-2.1-16.79-3.11-2.28-6.14-4.67-9.2-7l.58-.73c4,1.49,7.91,3.56,12.06,4.34,7.58,1.41,12.14-.57,11.08-9.26-.75-6.16-3.12-12.12-4.75-18.17-.39-1.44-.71-2.89-1.06-4.33l1.13-.46a22,22,0,0,1,1.69,3.45,35.12,35.12,0,0,0,14.49,20.08c2.6,1.72,6,2.37,9.09,3.17,3.32.86,6.73,1.33,10.11,2Z"/><path d="M241.36,644.6c1-2.42,1.93-4.83,2.89-7.24,3.79.08,3.79.08,3.81-1.82h5.22l.86,2.74a50.17,50.17,0,0,0-5.69,3c-1.11.75-1.82,2.09-2.72,3.17,0,0,0,0,0,.2Z"/><path class="cls-3" d="M245.73,644.4c.9-1.08,1.61-2.42,2.72-3.17a50.17,50.17,0,0,1,5.69-3l-.34,0,3.82,3.76c-.11.32-.53,1.45-.95,2.58H253c-.06-1.06-.12-2.11-.2-3.7Z"/><path d="M245.73,644.4l7.1-3.5c.08,1.59.14,2.64.2,3.7h-7.3C245.74,644.42,245.74,644.35,245.73,644.4Z"/><path class="cls-3" d="M646.06,516.26v.14c0-.29,0-.58,0-.87Z"/><path class="cls-3" d="M265.47,438.27l-1.19-7.78,1.12-.27-4-3.27,1.59-2.79c-2.45,1.24-5.53,1.78-5,5.72.12.88-1.21,2.33-2.21,2.83-.51.25-1.85-.92-2.7-1.6-1.73-1.42-3.39-2.94-5-4.36l-6.11,4.64c.55-4.9.17-9-3.1-12.89a20.66,20.66,0,0,1-2.35,3c-.81.69-2.39,1.71-2.79,1.42-1.09-.79-2.44-2.2-2.41-3.34,0-2.55.88-5.08,1.53-8.29a22.45,22.45,0,0,1-2.36,3.46,51.38,51.38,0,0,1-4.27,3.33c-.73-1.71-1.85-3.37-2.11-5.15-.41-2.74-.29-2.95-2.61-3.34.42-3.75-1.84-5.92-6.44-5.93l-.23-3.31-6.28-.51c.58-4.34,1.13-8.52,1.69-12.76-1.5.08-3.77.8-4.42.08-.86-1-.46-3.05-.63-4.94L202,384.12c-1.23-6.77-2.4-13.17-3.66-20.11-.77.21-2.2,1.08-3.25.75s-2.48-1.92-2.42-2.88c.2-3.46,1.14-6.87,1.43-10.34.2-2.3.64-4.8-1.76-6.65-.58-.45-.05-2.13-.47-3-1-2.21-2.42-4.23-3.38-6.45-.76-1.77-2.32-3.19-1.18-5.75,1-2.25,1.5-5.19-1.37-7.23-.65-.45-1.15-2.26-.79-2.73.75-1,2.13-1.53,3.35-2.31l-4-2,.08-.5,2.87.14.39-1-3.31-1.31-1.65-6.48-1.43.3c-.5-3.45-1-6.74-1.43-10l1.53.38c-1.86-3.83-3.65-7.49-5.39-11.05.47-2,1-4.18,1.53-6.54l3.22,1.85L177,270.27c-2.32,1.19-2.32,1.19-3.24,8-1.25-1.58-2.58-2.8-3.23-4.31-.36-.83.21-2.28.76-3.21s1.57-1.4,3-2.59c.59-.32,2.42-.73,3.11-1.84,1-1.62-.11-2.88-2-3.42a1.85,1.85,0,0,1-1-1.4c-.08-3.81-2-7.86,1.19-11.29a14.85,14.85,0,0,1,2.9-1.77c.19-5.62.37-5.86,4.51-4.92,2.4-4.23,2-6.78-1.38-9.31l.08.1c-.2-2-.84-4.07-.44-5.93.25-1.19,2.1-2,3.1-3.08a29.12,29.12,0,0,0,2.08-2.88,14.49,14.49,0,0,0,4.05-.41,4.31,4.31,0,0,0,1.86-2.4,8.89,8.89,0,0,0,.41-3.06,25.94,25.94,0,0,0-.24-2.91c-1,.22-2.28.12-2.89.71-1.43,1.41-2.26,3.39-5,2.88-.45-.08-1.36,2.2-2.82,3.21v-7.09c3.74.36,5.5-.87,5.57-4.09l-.11.1c3.09,1.25,6.64-1.74,7.16-6,5.12-.81,4.71-6.74,8.44-9-1.43-.07-2.87.12-3.44.94-1.81,2.59-3.3,5.41-4.91,8.15l-4.52-1.06.27-1.27h3.86c-.66-2.45-1.38-4.56-1.76-6.73a14.42,14.42,0,0,1,.29-3.61c1,.23,1.92.42,2.86.7,1.18.33,2.33.74,3.5,1.11-.63-1.1-1.23-2.23-1.92-3.3-.16-.26-.6-.34-.82-.46,2.48-4.49,2.48-4.49-.51-7.78l5.47,1.95c.3-4.43.46-8.49,1-12.51.07-.52,2.05-1.33,2.91-1.1,1.24.33,2.18,3.12,3.61.82.51-.82-.87-2.82-1.44-4.46,4.68-3.11,4.19-8.58,4.4-13.85l-4.6,7.72-.94-.29-.58-2.94-6.56,4.94,2.09,3.37,2.49-2,.81.38c-2,3.8-4,7.6-6.48,12.2.67-4.19,1.2-7.5,1.85-11.63l-4,2.57c-.19-8.37-.37-15.91-.55-23.46l2.1-1.22,1.84,3.68,3.45-4.12,1.09.61-7.21,12.77.7.68,3.07-2.42a42.28,42.28,0,0,0-.61,4.42,1.67,1.67,0,0,0,1,1.29c.36.09,1.08-.44,1.32-.87,1.75-3.09,3.52-6.17,5.08-9.35,1.31-2.69,2.34-5.51,3.48-8.26.27,1.11.65,2.69,1.09,4.56,3-1.85,5.71-3.64,5.34-7.75,0-.45.6-1,1-1.43,1.68-2.15,3.38-4.3,5.67-7.2l-4,.33-.46-1,8.56-5.69-3.47-.8,4.1-3.12-.43-.13c1.92-2.44,3.86-4.87,5.76-7.34.3-.39.69-1.06.54-1.38a1.61,1.61,0,0,0-1.36-.62,9,9,0,0,0-2.05.71c.17-3.83,3.08-8.44,5.94-9.42-2-4-1.48-7.23,2.62-9.67.77-.46.86-2.11,1.19-3.24.76-2.58,1.51-5.17,2.18-7.77.2-.76.48-1.87.11-2.34-2.42-3.06-.84-6-.11-8.55l21.69-1.48V65.16l-12.58-1.88v-.8l1.68-.34c-1-2.3.58-7.18,3.33-9.72.54,1.11,1,2.13,1.56,3.21h3.44l.17.68-5.66,3.94c4.19,1.69,5.64-1.76,8-2.12s4.74.32,7.12.55l.26-1c-.89-.41-1.83-1.24-2.66-1.14-3.87.46-4.36-2.39-4.85-4.93-.59-3,2.12-3.68,4.06-4.21,1.3-.35,2.94.55,4.24.85,2.12-1.61,4.28-4.14,7-5.06,2.22-.74,5.07.57,7.66.73a66.23,66.23,0,0,0,7.32-.06c1.32-.06,2.66-.66,3.94-.51,1.92.23,4.59.39,2.1,3.25,5.26.25,10.35.53,15.44.72,3.72.14,7.38,2.36,11.25-.08.83-.52,2.84.83,5.09,1.58-.66-2-1-3.09-1.61-4.9a20.08,20.08,0,0,1,3.28.76,42.74,42.74,0,0,1,4.53,2.42,7.34,7.34,0,0,1,1.38,1.45l-2.47,2.15,3.93,1.45.24-.7,2.54,3.72.5-.25-.21-2c.21,0,.52-.06.62,0,1.91,2.06,3.9,3.34,7.05,2.54.93-.24,3.24,1.47,3.46,2.58.42,2.13,1.65,2.41,3.23,3.19a14.72,14.72,0,0,1,5.05,4.26c1.47,2,2.72,2.83,5.37,2.47s5.38.66,8.08.68c4.12,0,7.87,2.72,12.13,1.54.32-.09.91-.06,1,.13,2.85,4.12,7.54.74,11,2.75s6.91,4.71,10.59,5.12c5.45.59,7.78,6.36,13.09,6.58.36,0,.68.85,1,1.29,3,3.79,5.66,7.87,9,11.26a54.6,54.6,0,0,0,9.92,7.35,12.78,12.78,0,0,0,6.15,2c9.92.22,13.81,7.36,17.36,14.81,1.81,3.81,3.17,7.83,4.7,11.78a3.46,3.46,0,0,1,.37,2.08c-1.41,3.69,1.19,4,3,4.45.62,1.81,1.14,3.24,1.61,4.7.74,2.28,1.47,4.57,2.17,6.87s2.21,4.77,1.85,6.92c-.53,3.27,2,4.84,2.58,7.26.36,1.55-.86,3.46-1.37,5.2-.38,1.29-.74,2.58-1.37,4.77,1.78-.7,2.41-1.15,3-1.15,1.39,0,3.79-.11,4,.44.54,1.62,1,4.44.09,5.17-3.39,2.79-2.42,5.32-.61,8.28.51.84.23,2.12.65,3.05a27.94,27.94,0,0,0,2.22,3.51c-3.1,4.93-1.6,8.5,6.24,13.15-6.19.86-4.16,5.29-4.3,8.72,0,.61,1,1.56,1.71,1.86,5.19,2.1,5.84,3.42,5.49,9-.1,1.74,1.09,3.56,1.7,5.39-4.57,2.46-.21,8.18-4.61,11.51,1.88.16,2.94.59,3.43.24,3.46-2.5,8-3.86,8.76-9.17.29-2.06.62-5.08,4.28-4.34a15.38,15.38,0,0,0,.63-1.91l6,1.86-4.13.62,3.48,2-6.54,6.11,1,2.87-9.93,1.91c3.48,7.94-5.26,7.39-7.71,11.6l1.93,1.22a5.23,5.23,0,0,1-1.23.55c-3,.17-5.55.69-6.6,4.26-.2.7-3.65,1.39-4.69.7-2.75-1.81-4.87-1.17-7.25.78,1.15,3-1.21,3.82-3.54,4.59-2.63.87-3-1.37-3.7-3-2.57-6.1-.76-12.13.46-18.15a14.26,14.26,0,0,0,.48-4.08c-4.09,5.37-4.28,11.76-5.06,18-.34,2.71-.72,5.78-2.18,7.93-2.76,4.06-7.58,2.71-11.65,3.14-5.13.53-10.29.75-15.38,1.52-3.45.52-6.78,1.8-10.19,2.63-7.81,1.89-14.22-1.64-17.08-9.21-.84-2.22-1.37-4.19,1.91-5.57.15,2.22.29,4.37.44,6.65,2.88-3,2.47-7.72-1.1-12.42-.2,1.38-.36,2.55-.62,4.31-1.78-2.09-2.92-4.12-4.64-5.32a42.92,42.92,0,0,0-20.67-7.39,3.52,3.52,0,0,0-2.07.32c-2.64,1.61-5,.91-7.55-.37a30.59,30.59,0,0,0-5-1.57l1.3-1.48c-3.61-2.39-11.22,1.23-14.84,7.37l-.53-1.71c-4.14,0-8-.19-11.84.09-1.61.12-3.1,1.43-4.73,1.85a13.37,13.37,0,0,1-3.57,0l1.87-3.7a14.82,14.82,0,0,0-3.66-.62,24.74,24.74,0,0,0-4.56,1.08c-1.55.41-2.27,1.07-.63,2.33l-6.78-.69c5.94,4.08,5.94,4.08,7.65,1.84,1.07,3.61,8.4,7.62,11.77,6.47.78-.27,1.6-.42,2.28-.6.3,1.67.16,3.5,1,4.52.47.58,2.56-.14,3.91-.3,2.64-.31,5.46-2.2,7.32,1.82.44.94,3.21.84,4.93,1.13a34.44,34.44,0,0,1,4,.5c.88.26,1.53,1.37,2.4,1.56,2.91.64,4.33,2.55,5.69,5.05,1.73,3.21,1.32,6.28-2.28,7.18-3.09.78-6.21,3.9-9.78.86-.4-.33-1.67.07-2.36.44a12.39,12.39,0,0,1-13.58-.75c-1.45-1.05-7.05.58-8.05,2.17l-11.12.52c-.23,0-.61.28-.66.22-3-3.7-7-2.37-10.8-2.27-.74,0-1.5-.64-2.47-1.09l.58,2.64-16.92-3-.21.66,3.67,2.17-.13.59-15.21-.81-.31.69c1.17.43,2.33,1.21,3.51,1.24,11.56.38,22.82,2.63,34.06,5.17,6.6,1.49,13.47,2,19.9,4,4,1.23,8.79,2.06,11,6.72.34.69,1.54,1.1,2.42,1.37s2.17.28,3.23.52c4.74,1.07,5,1.41,4.28,6.37-4.8.84-9.59,2-14.46,2.44s-9.54.09-14.41.74L345,312.67c.72.11,1.74-.11,2.12.3,6.79,7.13,13.76.74,20.31-.24,6.28-.94,12.12-4.68,18.2-7.08,5.44-2.15,8.72-6,9.18-11.85.18-2.32,1.39-3.2,3.41-3.48,7.08-1,14.16-1.91,21.25-2.87,3.19-.44,6.37-.9,9.56-1.36l-.1-1c-6.28.52-12.57,1.06-18.85,1.54a25.45,25.45,0,0,1-4.7,0c-2.76-.3-2.68-1.7-.8-3.82l-5.75,1.77-.52-.57c.5-.63.91-1.63,1.54-1.81,2.88-.81,5.95-2.28,8.71-1.87,8.64,1.28,16.58-1.07,24.64-3.4,3.69-1.06,7.54-2.41,11.26-2.26,3.53.15,7.09,1.85,10.41,3.36,1.24.56,1.83,2.53,2.72,3.86-1.61.55-3.19,1.47-4.82,1.57-3.79.23-7.61.07-11.34.34,4.37.7,8.76,1.3,13.11,2.14,4,.78,5.71,5,4,8.59-.7,1.43-.4,3.33-.66,6.14,4.08-3.65,7.33-1.9,9.48.07,3.5,3.2,7.33,6.68,7.37,12l-1,.85-6.19-4.14c-.62,2.82,8.82,18,13.79,21.39l2.79-3.86c1.3-1.83,2.6-1,4.37-.54s4-.48,6.45-.9c-3.63-4.52-6.65-8.28-9.75-12.16.7.14,1.84,0,2.35.53,3.33,3.36,7.95,2.34,11.83,3.72a33.76,33.76,0,0,1,7.06,3.71c.57.38.37,1.92.58,3.3a15.15,15.15,0,0,0,2.51,0c5.38-.81,7.91,2.06,9.46,6.78.35,1.08,2.2,1.8,3.49,2.38a8.87,8.87,0,0,0,2.9.27l.21,1-3.35,1.84c-.38,5.2-.86,10.35-1,15.52,0,1.1,1.2,2.19,1.56,3.37a25.72,25.72,0,0,1,.61,4v-.1c1.51,3.21-1,3.78-3.06,4.43-2.25.73-4.49,1.19-4.87,4.13a2.21,2.21,0,0,1-1.46,1.41c-4.51.82-3.53,4.34-3.17,7.06.22,1.67,1.23,2.58-1.45,2.24-.63-.09-1.49,1.61-2.25,2.49l-3.74-4.29,3.81-3.1a20,20,0,0,0-2.23-1.57c-2.17-1.08-4.46-2-6.53-3.2-.51-.3-.5-1.7-.48-2.59.05-2-.41-2.95-2.39-4.38-2.36-1.69-3.15-5.6-4.55-8.58-1.62-3.44-3-7-4.8-10.34s-4.29-6.68-6.48-10c-.17-.26-.52-.38-1.34-.24,1.12,2.13,2.21,4.28,3.35,6.4,1.05,1.93,2.62,3.86-.73,5.21a1.69,1.69,0,0,0-.6,1.55c1.34,3.24.24,7.11,3.6,10,2.73,2.33.53,5.54-1,7.83-2.59,3.8-5.62,7.32-8.58,10.86-.52.63-1.91,1.29-2.43,1-6.29-3.23-10,1.23-13.39,4.92-4.32,4.74-9.66,5.23-15.4,5.93a32.72,32.72,0,0,0-11.48,3.67c-2.67,1.47-4.29,2.89-6.4-.45-1-1.56-1.77-1-3.25,2.78-.37-.8-.68-1.35-.88-1.94s-.36-1.38-.56-2.22l-1.74,1.1-2.29-3.41c-.53.95-.88,1.6-1.25,2.27-.41-1-.87-2.2-1.55-3.9l-2.44,5.06-5.61-4.49c-2.53,2.46-4.52,1.1-6.38-1.79L398,386.24l-2.12-1.38-1.55,4.27-2.58,1.16c.09-1.74.2-4,.32-6.23l-.62-.14c-.45,2-.9,4-1.45,6.47-3.68-4.65-6.52-.93-9.62.51l-1.86-5.09c-6.35,1.9-6,9.52-11.34,13.31.22-1.51.38-2.66.55-3.8s.73-2.45.49-3.53-1.26-2.24-1.94-3.35c-.72.83-1.46,1.63-2.14,2.49a8.22,8.22,0,0,1-2.59,2.52c.88-3.78.09-8.15,4.32-10.49a4.43,4.43,0,0,0,1.49-1.55c4.06-6.67,7.91-13.48,12.18-20a62.08,62.08,0,0,1,8.53-9.9c-.22.72-.43,1.45-.65,2.19l.69-.17c1,1.73,1.43,3.13,2.34,4.14,3,3.33,6,6.63,9.26,9.7a13,13,0,0,0,5.15,2.95c7.75,2.2,15.48,5,23.41,5.86,4.47.5,6.59,4.3,10.7,4.65.2-.57.43-1.23.87-2.51,1.44,3.19,3.16,5.08,6.37,4.12,1.08-.32,3.06-.82,3-1.13-.09-1.54-.25-3.72-1.26-4.44-3.63-2.59-7.4-5.27-11.53-6.81-4.7-1.76-9.83-2.35-14.78-3.41-3-.65-6.06-1.24-9.1-1.82-3.29-.64-6.62-1.13-9.88-1.87-3.88-.89-6.64-5.33-6.16-9.83.4-3.67.79-7.35,1.51-11,.84-4.18,2-8.29,3.07-12.42a7.53,7.53,0,0,0,.38-3.3,50.3,50.3,0,0,0-4,3.12c-4.1,3.91-8.52,7.59-12.08,12-4,4.93-7.13,10.59-10.87,15.77-2,2.78-4.64,5.13-6.8,7.82-1.42,1.78-2.3,4-3.81,5.73-2.53,2.84-5.37,5.42-8.4,8.42.09.26.37,1.13.59,1.82-4.41,2.51-9.2,4-11.53,9-.52,1.12-2.26,1.62-3.31,2.56a12.24,12.24,0,0,0-2.32,2.76,23.79,23.79,0,0,0-1.34,3.56l.08.06c-1.07,1.64-1.76,3.89-3.24,4.72-3.58,2-3.31,6.9-7,8.59-.4.18-1,.75-1,.9,1.18,2.77-1.15,5.32-.66,7.8.58,2.93-.56,3.43-3.22,3.4,3.73,3.84-.37,6.73-1.23,9.83-1.43,5.16-4.16,9.94-6,15-.93,2.6-.93,5.53-1.63,8.23-.49,1.91-1.64,3.08-3.68,1l3.68-7.12-.71-.5-1.29,1.47c-.4-.63-.83-1.33-1.58-2.53-1,5.93-1.88,11.22-2.76,16.51l-.71.09c-.25-1.17-.5-2.34-.85-4L304.17,467c-.46-2.12-.77-3.52-1-4.66l-5.44-4.1-5.16-3.89-.7.74c.14,1.12.28,2.25.46,3.62-5.34-1.4-1.73-6.67-4.61-9.34-.2,1.18-.34,2.05-.49,2.92l-.74.22L283.25,443l-1.57,2.51-1.71-8-2.43,2.09c-.9-1.11-1.73-2.14-2.92-3.63l-.32,3.78-3.16-3.48c-.64,1.51-1.18,2.77-1.94,4.53l-3.84-2.66Zm11.12-167c4.68,2.53,16.8,2.26,19.58-.44-1.84-2.86-4.12-4.84-8.9-4.14l4.17,1.58C286.28,270.36,280.58,266.63,276.59,271.31Zm45.07-15.53-3.85-5.26-17.52,1.81,12.81,3.45Zm166.74-5.19c5.69-3.66,3.37-9.44,4.79-14.21C489.28,237.1,486.5,245.29,488.4,250.59ZM423,270.43a11.09,11.09,0,0,0,2.62-1.16c3.07-2.43,6.06-5,9.08-7.48C429.15,262.4,426.93,267.68,423,270.43Zm-213.91-89L210,181a37.51,37.51,0,0,0-4.08-3.4c-.28-.19-1.37.87-2,1.32Zm98.06,67.79c4.4,3.21,4.64-1.46,6.76-2l-.42-.92ZM189,227.92c-4.74,2.07-4.74,2.07-2.82,5.78Zm295,29,.66.68,4.13-3.65C484.46,252.14,485.16,255.69,484,256.94ZM227.79,380.18c-1.23,1.9-1.94,3-3,4.6l4.32.36Zm98.87-119.84,6-.54-.09-.63-6.11-1.23C326.53,258.8,326.59,259.47,326.66,260.34Z"/><path class="cls-3" d="M371.06,507.75a8.2,8.2,0,0,0,1.75-.48c5.61-2.93,11.49-2.59,17.49-1.69,3.19.48,6.45.5,10.28.78a33.37,33.37,0,0,0-.05-5.19,12.2,12.2,0,0,1,2.64-9.84c.89-1.11,3-2.29,4.12-1.95,3.5,1.07,3.59-.91,3.9-3.28a20.74,20.74,0,0,1,1.22-3.72c1.34.52,2.93.75,4,1.64s1.48,2.43,2.18,3.68,1.19,3.25,2.35,4c4.49,2.83,5.07,7,4.65,12,4.47-.33,5.69,3,6.71,6.28.22.68-.79,2.47-1.4,2.55-4.07.53-8.3.28-12.25,1.24-1.77.43-3,3.08-4.24,4.47-2.44-.16-5.08-1-7.19-.32-3.38,1.12-5.95.1-8.57-1.49-3.26-2-6.43-4.1-9.76-6,5.95,6.51,5.95,6.51,7.44,11.7a7.47,7.47,0,0,0,1.62-.37,9.36,9.36,0,0,0,1.51-1.1c1.17,1.1,2.27,2,3.28,3.08s1.91,2.12,3.25,3.63c.82-6.17,5-4.84,8.87-4.43,2.92.31,3.34-.05,4.07-3.07a12,12,0,0,1,2.2,12.31c-1.24,3.8-.09,8.57-5.21,10.71-2.9-2.85,1.12-6.29-.78-9.72a28,28,0,0,0-1.56,5.32c-.55,5.88-.46,5.88-6.61,5.38a10.84,10.84,0,0,0-1.63.13l-.66,4.77c-.79-1.62-1.22-2.49-2.13-4.34l-1.35,5.14-4-6.86c-.3,2-.47,3.08-.62,4a54.57,54.57,0,0,0-6.45-2.64c-2.43-.67-5.13-1.13-5.8,3.71l-1.68-3.62c-.33,2.47-.5,3.73-.77,5.76-.49-1.48-.77-2.31-1.07-3.18-.36,1.49-.7,2.87-1,4.24l-.78-.12c.3-2.55.6-5.11,1-8.16A17.71,17.71,0,0,0,363.82,549c1-2.21,2-4.43,3-6.64l-.5-.41-2.72,3.15c.11-1.66.2-2.93.35-5.06l-5.13,2.24-1.1-1.88c-.64,2.39-3.32,3.82-1,6.11a2.28,2.28,0,0,0,1.89.39c.31-.08.26-1.13.59-1.59a14.88,14.88,0,0,1,3.6-3.66c-.34,3.28-5,6.39,1.24,9l-6.93,3.15,8.26,1.68c1.86-.26-2.19,3.47,2.82,1.95-4.38,3.26-7.48,3.36-10,1.11-3.42.11-4.66,5-9.18,3.57,1.64-2,.94-5,3.94-5.76l2.59.66c.21-1.74.41-3.39.69-5.79-4,3.1-4,3.1-3.17,5.24l-2.78-1.09c-2.94,2.06-4.5,6.53-9.33,3.74l4.07-1.16-3.9-1.55,3.16-3.5-.31-.51-3.78,1.31-3.31-6.55c-2.52,2.1-2.72-1.17-3.47-1.39.15-2.67.29-5,.43-7.38l-1.29,0,.71,3.68-.79.42c-.84-1.71-1.67-3.42-2.53-5.12a5.28,5.28,0,0,0-1.2-1.91c-2.73-2-2.37-7.17.74-9.06-.72-.91-1.5-1.79-2.15-2.75s-1.07-1.88-1.43-2.51l-4,.54-1.23,1.91c-1-.69-2.8-1.5-2.73-2,.5-3.47.38-7.58,4.47-9.08,1.6-.59,2.44-4.79,5.2-1.3-.16.23-.33.5-.52.75a33.85,33.85,0,0,0-2.21,2.88c-.09.14.85,1.23,1,1.17a28.12,28.12,0,0,0,3.26-1.92c.79-.52,1.52-1.13,2.92-2.19-3.23-1.66-6.2-3.2-9.65-5,.16-.68.52-2.14.86-3.61.19-.82.79-2,.45-2.42-3.45-4-.05-7.65.56-11.41a7.85,7.85,0,0,1,.95-2.16c-3.15-4.95.52-10.49-1.38-15.61l-1.94,1.6v-6.65l1.76,3.28,4-9.84c-3.22-4.41-3.62-8.83.4-13.16a2.14,2.14,0,0,0,0-1.9c-2.08-4.06.15-7.42,1.36-11.27l2.63,1.85c.32-.16.48-.19.52-.28,2.08-3.86,4.15-7.73,6.34-11.84.3,0,1.93.4,2.81-.24,3.54-2.55,6.85-5.42,10.24-8.17A.29.29,0,0,1,352,415l12.32-6c-1.5-3.81.47-6.42,4.18-8.27-1.07,2.42-2.13,4.84-3.6,8.19l9-2.83L371,403.79l4.53-5.72-1-.13c.61-3.45,1.23-6.9,1.94-10.91,2.51,1.74,2.62,3.08,1.6,5.23-.71,1.5-.29,3.51-.59,5.26s-.86,3.39-1.3,5.09l1,.46,2.25-1.52,5.39,5,3.55-5.31v4.69c4.21.41,8.29.72,12.35,1.24a5.16,5.16,0,0,1,3,1.4c3.28,3.6,7.05,4.44,11.84,2.3a27.91,27.91,0,0,1,3.21,2.78,2.52,2.52,0,0,1,.34,2.22,2.74,2.74,0,0,1-1.91,1.42,73.84,73.84,0,0,1-10.83,0c-4.51-.49-8.95-1.51-13.41-2.38-4.17-.81-8.28-3-12.58-.4-.32.19-.93,0-1.39-.16-3.2-.86-6.1,0-8.91,1.5-4.11,2.18-8.34,4.18-12.28,6.64-1.32.82-1.85,2.86-2.86,4.25-2.36,3.25-6.64,3.71-9.38,6.7-4.51,4.93-9.92,9.34-10,16.62a76.19,76.19,0,0,0,1.67,15.85c.7,3.4,2.75,6.52,4.06,9.82,1.26,3.14,2.24,6.4,3.53,9.52a38.71,38.71,0,0,0,12.69,15.95c.88.68,2.75.39,4.08.12,2.65-.53,5.24-1.35,8-2.1l1.22,6.26-3.08.17,3.52,2.12c.64.69,1.24,1.93,1.9,2,3.68.19,7.37.09,11.06.09a2.74,2.74,0,0,0-2-.72C378.52,508.64,374.79,508.19,371.06,507.75Zm-16.4,34.59-.75-.84L346,542c-1.93-3.93-3.83.57-5.84.81l3.31-.3-4,5.66C344.59,545.13,350.19,545,354.66,542.34Z"/><path class="cls-3" d="M436.19,432c2.33-1.65,2.33-1.65,3.79.85l11.45-10.19c2.94,9.23,2.86,17.28-1.06,25.05-1.5,3-4.16,3.3-6.35.87-1.76-2-3.27-4.14-5.31-6.77-1.08,4.78-4.66,5.79-8.62,5.92-3.7.11-7.64.79-10.66-3.6-.06,4-2.37,3.86-4.59,3.45-4.73-.87-9.41-2-14.13-2.87a13.61,13.61,0,0,0-2.43.21c-4.6,0-9.41.49-11.8-5.72-1.26,5.9-5.73,6.71-9.73,7.48-4.72.9-7.71-1.89-9.05-6.21-2.83,1.15-5.35,2.18-7.88,3.18-3.9,1.54-4.5-2.17-6.46-4.12l-6.43,1.65c-.27-4.16,1.12-5,5.4-3.62,1.66-3.4,2.75-7.21,5.07-10,3-3.6,7-1.54,10.71.11,1.23-4.08,2.59-7.89,7.12-9.07.91-.24,2.21-.82,2.71-.43,2.87,2.16,6.1,1.38,9,1,6.41-.79,12.14,1.78,18.11,3.05,6.36,1.35,12.6,3.29,18.91,4.86a4.36,4.36,0,0,0,2.89-.36c4.9-2.78,7.22-1.87,8.67,3.55C435.68,430.71,435.89,431.16,436.19,432Z"/><path class="cls-3" d="M470.56,464.29l-1.42-2.56-1.33,2.38-1.87-9.48,1.94.32.3-.57c-.76-.43-2-1.38-2.2-1.21-.92.89-2.38,2.3-2.16,3.09.88,3-.47,4.6-2.52,5.57.2,2.71.38,5.13.58,7.8l2.9-1.32-2.22,3.94-2.2-1.7,2,9.42-6.17-2.85.12-.75,5,.29c-1.1-1.31-1.61-2.48-2.45-2.8-2.2-.83-3.67.61-4.61,2.36-.55,1-.51,2.35-.81,3.51-1.2,4.73-5.27,7.34-8.08,10.88-.86,1.08-1.58,2.27-2.39,3.39a5.27,5.27,0,0,1-2.47,2.1c1-7.49,0-15.47,6.7-21.11-3.87-2.68-.08-5.4.07-8.33l1.68,2c1.08-2.92,2.15-5.79,3.21-8.67l.52.09c-.13,1.32-.26,2.64-.46,4.72l5.51-9.69c.18.59.43,1.45.87,2.9,3.3-4.92,2-12,8.81-14-.51.85-1,1.7-1.34,2.26l4.19.37-.24-.22,2.9,2.68-4.2,5.53c4.42.32,2.61,3,3.4,5.32l-2.28-1.83-.75.39c.56,1.17.86,3,1.75,3.35,1.34.57,2.86-.14,2.71-2.19,3.41.71,3.78-2.48,4.49-4.2,1.17-2.89,1.36-6.18,2-9.3l-.1.1,1.81-3.51,3,1.7c-.71-2.49-.85-4.33-1.72-5.68a3.79,3.79,0,0,1-.51-4c.95-2.56.69-5.67,1.93-8,2.4-4.51,4.79-9.44,8.49-12.73,3.89-3.46,8.72-1.07,11.09,4.34-2.49-.33-3.51.67-3.41,3.21.05,1.38-.73,2.77-.92,4.18a2.43,2.43,0,0,0,.6,1.91c3.2,2.7,3.51,4.92,1.83,8.7-.7,1.59-.51,3.64-.47,5.47,0,1.12.53,2.22,1.09,4.33l-3.43-2.6v13.52c-1.91-.59-3.25-.72-3.4,2.56-.18,4-1.83,7.46-6.48,8.53-1.9.44-3.65,1.58-5.47,2.4l3.09-4.08-.89-.66-4.82,5.27.52.67,1.9-1.05c-2.63,2.65-5.36,5.2-7.83,8-.84.95-1,2.47-2.28,3.7l.27-4.18a2.22,2.22,0,0,0,0-.36c-.19-.8-.8-1.9-.48-2.37,1.89-2.79-.15-5.41-.3-8.07-.06-1.11-1.76-2.13-2.71-3.19Zm-14,3.62c-.58,1.4-1.09,2.63-1.62,3.93l2.67.53c.42-1.89.76-3.42,1.09-4.93Z"/><path class="cls-3" d="M495.3,278.47c5.14-4.11,8.93-10.24,16.76-10.33,1,0,2-1.21,3.42-2.16l2.42,2.6c-3.51,7.09-9.08,11.09-16.56,12.16-1.9.27-4-.66-6-1C495.35,279.29,495.33,278.88,495.3,278.47Z"/><path class="cls-3" d="M267.55,444.14l2.31-1c.18,2.4.36,4.74.56,7.35l-2.57-.37c1.26,1.8,3.27,3.46-.05,5.16l-.83-2.65c-2.36,4.54-2,5.66,3.3,10.14l-5.53,4.71-.85-.69,2.45-3.64-2.66-1.69L262,467.29c-2.53-6.79,2.18-12.23,3.06-18.52l-2.59.16-.53-.7,5.71-4.2Z"/><path class="cls-3" d="M184.42,542.44l7.17-2.56-3.23-1.64.1-.54h4l-1.31-1a36.7,36.7,0,0,1,2.58-3c.3-.28,1.06-.09,1.6-.12a2.08,2.08,0,0,1,.1.24c1.28,2.79,2.55,5.58,4.15,9.09l-1.19,2,2.31,4.08-.67.57c-.69-.8-1.23-1.92-2.11-2.32a8.3,8.3,0,0,0-3-.33c-.65-1.86-1.26-3.59-2.18-6.24-.83,2.59-1.46,4.52-1.94,6l-5.61-3.31Z"/><path class="cls-3" d="M187.45,209.26l-3.78-3.2-.2,3.18-2.67-1.75c.5-9.19,6.12-15.71,9.62-23.2l.92.36c-.56,2-1.26,4-1.63,6-.33,1.86-.23,3.79-.47,5.67-.15,1.15-.2,2.81-.92,3.29-2.76,1.82-2.3,3.75-1,6.2.48.94.08,2.34.07,3.53Z"/><path class="cls-3" d="M198.92,570.36h5.2l2.41,3.64.7-.35c-.47-1.3-.95-2.61-1.76-4.82a36.33,36.33,0,0,0,4.59,2.21c.54.16,1.32-.5,2-.79l-.11.08L215.5,572l0,.82-6.87.41,4,5.91c-2.16.59-4.15,1.2-6.18,1.63-.27.06-1.14-1-1-1.2a13.9,13.9,0,0,1,1.49-2.25L199,570.26Z"/><path class="cls-3" d="M83.64,93.91a.75.75,0,0,1-.16.15c-.74,0-1.9.33-2.16,0-1.46-2-.55-6.76,1.48-8.76,1.63-1.23,3.27-2.47,4.92-3.7l5.17-2.12Z"/><path class="cls-3" d="M301.18,474c-6.57-4.45-8.59-7.67-6.26-14.24a88,88,0,0,1,6.91,7C303.64,469,302.7,471.45,301.18,474Z"/><path class="cls-3" d="M212.05,570.25c-5-1.63-6.76-4.43-5.16-8.15l-6.79-6.62.7-1c2.61,2.13,4.3,6.33,9,3.92l1,6.38c-1.53,1.65-.81,2.8,2.34,3.17a50.56,50.56,0,0,1,6.3,1.63l-7.47.73Z"/><path class="cls-3" d="M551.07,38.39c-2.57,2.76-5.09,5.57-7.76,8.22a2.27,2.27,0,0,1-2.2-.26,11,11,0,0,1-1.44-3.53,8.73,8.73,0,0,1,2-.85,4.25,4.25,0,0,0,2.43-1.28L540.41,40c-.09-.27-.18-.55-.28-.83l10.18-1.79Z"/><path d="M183.11,538.1c-3.94,2.29-7,.37-10-2.06-1.08-.88-2.17-1.73-3.26-2.6a33,33,0,0,1,4.5-2.72c.91-.38,2.13,0,3.21,0,.11.88.21,1.74.31,2.6-.51,2,.05,3.21,2.25,3.59a12.7,12.7,0,0,1,2.86,1.27Z"/><path class="cls-3" d="M190.61,567.24l.14,0c-.68-.81-2.05-1.76-1.92-2.43.7-3.71-1.73-4.69-4.39-5.62l.09.1.29-3.45a24.44,24.44,0,0,1,5.23.78c.82.3,2,2,1.74,2.47-1.45,2.89.78,4.13,2.58,6.12Z"/><path class="cls-3" d="M357.49,453.42l1.89,2.09,2.81-1c1.05,3.42,2.07,6.74,3.08,10.06v-.21c-.1.81-.21,1.62-.33,2.57l-4.31-3.06c.37-.85.95-2.18,1.6-3.7l-5.2-1.42c.95-1.73-1.85-3.79.55-5.42Z"/><path d="M225.66,610.43l4.4,2.46c-.18,1.07-.35,2.08-.68,4l-8.44-2.1,3.08-5.13,1.86,1Z"/><path class="cls-3" d="M253.8,638.26l.34,0-.86-2.74h-5.22c-.14.17-.26.34-.39.51l-3-4.3,4.51-2.84.6,1-2.07,1,4.4,2.81.92-2.71c.76,1.14,1.25,1.89,1.75,2.63C256.06,635.56,255.67,637.08,253.8,638.26Z"/><path class="cls-3" d="M246.34,455.38l-.83,1.38-.67-.1c.31-1.58.11-3.77,1.07-4.6s3.22-.77,4.9-.74c.39,0,1.24,1.63,1,2.16a43.21,43.21,0,0,1-2.77,5.08Z"/><path class="cls-3" d="M478.58,77l-2,3.16c-1.11-1.4-2.57-2.54-3-4a4.39,4.39,0,0,1,1.3-3.74c1.31-1.07,3.24-2.41,4.46-.71-.33,2.2-.56,3.76-.79,5.35C478.6,77.12,478.58,77,478.58,77Z"/><path class="cls-3" d="M195.44,533.82a2.08,2.08,0,0,0-.1-.24c.91-1.87,2.26-3.46,4-1.23,1.36,1.75,5.86,2.87,2.19,6.47a2.78,2.78,0,0,0-.65,1.21Z"/><path class="cls-3" d="M182.87,552.35l.12.28c-1.13-2.32-.6-3.15,2.15-3.19,3,0,6.1-1.51,9.06,2l-7-1v2.8l-4.37,1.21Z"/><path class="cls-3" d="M265.36,438.18c.16,2.19,3.81,3.11,2.19,6l.1-.11-4.81,1.63c-.42-1.89-1.32-3.71-1-5.29.19-.91,2.35-1.41,3.63-2.1Z"/><path class="cls-3" d="M112.41,577.69l.14,0c-2.1-2.74-1.32-5.38.48-7.82.48-.65,1.53-.88,2.32-1.3.28,1,.9,2.12.76,3.1a29.6,29.6,0,0,1-1.78,5.07Z"/><path class="cls-3" d="M87.72,81.58c-1.65,1.23-3.29,2.47-4.92,3.7l-2.19,1.16c1.4-6.3,7-6.69,10.12-9.76l.92.9Z"/><path class="cls-3" d="M263.14,482.85c-2.22-2.34-2.06-2.15.28-4.16,1-.85,1.17-2.67,1.72-4.05l1.59.15c.12,1.56.8,3.39.21,4.62C266.27,480.83,264.48,481.71,263.14,482.85Z"/><path class="cls-3" d="M181.66,234.21c-1,1.61-1.79,3.49-3.13,4.76-2.41,2.26-3.81,1.55-4.42-1.18a27.25,27.25,0,0,1,4.3-3.47c.87-.46,2.2,0,3.33,0Z"/><path class="cls-3" d="M346.73,463.77c.08-.76,0-2.58.32-2.66a37.77,37.77,0,0,1,7.41-1c.39,0,.84,1.72,1.27,2.64l-.9.35-.83-1.71Z"/><path class="cls-3" d="M183,538.19a12.7,12.7,0,0,0-2.86-1.27c-2.2-.38-2.76-1.6-2.25-3.59,2.72,1.11,6.4.48,7.94,4.46Z"/><path class="cls-3" d="M219.42,593.6l7.14,3.2-4.81,1.55,0-.63c-1.88-.06-3.75-.12-5.61-.2l3.38-4Z"/><path class="cls-3" d="M600,545.68c-4.37,1.6-5.38,1.09-6.77-3.34l3.62-.65a12.73,12.73,0,0,0,1.14,2.49A9,9,0,0,0,600,545.68Z"/><path class="cls-3" d="M470.56,464.29l-.14-.08c.26,1.29.62,2.58.76,3.88s0,2.5,0,4.91c-1.73-1.54-3.94-2.85-3.76-3.48C468,467.63,469.46,466,470.56,464.29Z"/><path d="M331.69,252.18c-1.71,2.24-1.71,2.24-7.65-1.84l6.78.69Z"/><path class="cls-3" d="M357.59,453.34c-3.23.41-6.39.6-8.88-2.89,4-1,7-.73,8.77,3Z"/><path d="M470.84,34.79a32,32,0,0,1-2.3-2.66,4.61,4.61,0,0,1-.87-2.11c-.2-1.7-.21-3.43-.3-5.24l4.33,7.5,1.09-.17L471,34.89Z"/><path class="cls-3" d="M365.28,464.37v.21c.31-1.48.61-2.95.91-4.39,2.68,1.62,2.8,4.11,0,9.62Z"/><path class="cls-3" d="M228.57,569.55c-2.07,1-3.78,1.9-5.57,2.6a1.64,1.64,0,0,1-1.45-.74,2.42,2.42,0,0,1,.34-2C223.91,567.25,226.08,567.64,228.57,569.55Z"/><path class="cls-3" d="M189.23,359.11c.21,2,.41,4,.67,6.58-4.38-2.19-4.46-2.61-2-6.49Z"/><path class="cls-3" d="M227.78,588.63c-5.7-1.86-5.87-2.08-3.53-5.29l4.31,4.51Z"/><path class="cls-3" d="M473.91,477.84a2.22,2.22,0,0,1,0,.36c-.66,1.35-1.31,2.71-2,4.07l-.84-.08v-7.87Z"/><path class="cls-3" d="M350.28,473.58l5.11-7.79C355.9,472.44,354.63,474.23,350.28,473.58Z"/><path class="cls-3" d="M479.45,66.91c-.42-3.28-.72-5.7-1-8.13l1.25-.13C481.28,61,482.89,63.41,479.45,66.91Z"/><path class="cls-3" d="M95.49,82.26l-.83,2.66h3l-5.3,2.8C90.74,84.85,91.46,83.43,95.49,82.26Z"/><path class="cls-3" d="M185.92,527.66l-2.88.17c-1.27-3.45,2.25-2.89,3.68-4,.15-.11,1.49,1.32,2.27,2l-3.23,1.94Z"/><path class="cls-3" d="M287.48,462.08l4.3,1.26c.13,3.78-1.86,3.59-4.81,2.38C287.11,464.7,287.27,463.61,287.48,462.08Z"/><path class="cls-3" d="M479.65,45.41l-.13-.13c2.49,3,2.49,3-.16,5.8-1-2-2.09-4.17-3.18-6.35Z"/><path class="cls-3" d="M219.43,584.85a9.43,9.43,0,0,1,2,2.34,14.79,14.79,0,0,1,.54,3.51l-2.54,2.9.13-.09-3-1.5c1.08-.57,2.9-1,3.08-1.75.41-1.73,0-3.66-.07-5.5Z"/><path class="cls-3" d="M124.15,49a28.13,28.13,0,0,1-1.19,4.7c-.21.51-1.43.6-2.19.88l-.66-.73,2.36-5.24Z"/><path class="cls-3" d="M470,446.38l.24.22c-.36-1.71-.73-3.41-1.15-5.37l3.2.68C473.12,446.41,473.09,446.49,470,446.38Z"/><path class="cls-3" d="M275.46,446.62l2.17,1.35,1.46,6.07C276.9,453.55,275.14,450.58,275.46,446.62Z"/><path class="cls-3" d="M185.92,527.66l-.16.14c4.07.25,2.12,4,3.48,5.85C186.72,532.43,183.94,531.34,185.92,527.66Z"/><path d="M216.52,592l3,1.5-3.38,4s.05,0,0,0c-1.34-1.82-2.66-3.66-4-5.49l-.07.14,4.47,0Z"/><path class="cls-3" d="M352,415a.29.29,0,0,0-.13.05c-.47-.76-1.41-1.59-1.32-2.27a24.6,24.6,0,0,1,1.43-4.54l1.18.14Z"/><path class="cls-3" d="M480,446.13c-4.15.76-4-3.27-5.69-5.29,3.25.3,4.6,2.65,5.58,5.4Z"/><path d="M483.74,470.69l-1.9,1.05-.52-.67,4.82-5.27.89.66-3.09,4.08Z"/><path class="cls-3" d="M418,551.88l-3.61-6.65.73-.43,2.86,4.73v-3.17h.73v5.36Z"/><path class="cls-3" d="M456.69,485.06c.05.24-.05-.28-.16-.81l.55-.26,2.46,3.5-8.27,1Z"/><path class="cls-3" d="M291.18,480c1.57-2.34,2.83-4.2,4.08-6.07l1.11.81C295.09,476.68,295.38,479.85,291.18,480Z"/><path class="cls-3" d="M474.89,295.17l4.59,3.4-.57,1h-3.37l-1.27-3.4Z"/><path d="M371.06,507.75c3.73.44,7.46.89,11.19,1.3a2.74,2.74,0,0,1,2,.72c-3.69,0-7.38.1-11.06-.09-.66,0-1.26-1.28-1.9-2Z"/><path class="cls-3" d="M250.73,443.29c1,2.36,1.68,4,2.4,5.8C249.3,448.26,248.59,447,250.73,443.29Z"/><path class="cls-3" d="M461.55,32.21l-.11-.25c2.47,3.65,2.47,3.65.9,4.8l-4.1-4.19Z"/><path class="cls-3" d="M172.58,218.41,170.8,213l2-1.32a22.34,22.34,0,0,1,.85,4C173.67,216.48,173.05,217.28,172.58,218.41Z"/><path class="cls-3" d="M331.8,549.76c-2.6-.67-3.68-5.12-1.92-7.51Z"/><path class="cls-3" d="M147.41,12.5l-5.86,4.81C141.32,14.52,143.3,12.68,147.41,12.5Z"/><path class="cls-3" d="M212.18,138.26l3.31-6.2.8.31-2.48,6.53Z"/><path d="M185.34,545l-2.11-.48,1.23-1.45h-.18l.15.1.81,1.94Z"/><path d="M184.42,542.44l.75.86.09-.11h-.83l-.15-.1C184.34,542.86,184.39,542.64,184.42,542.44Z"/><path class="cls-3" d="M184.43,543.2h.83c0,.65,0,1.3,0,1.95Z"/><path class="cls-3" d="M523.32,359.63v.1S523.32,359.66,523.32,359.63Z"/><path d="M70.64,524.69c-1.52,2.5-2.63,4.17-3.57,5.93a13.06,13.06,0,0,0-.64,2.46c-.34,1.18-.71,2.34-1.09,3.5a6.26,6.26,0,0,0-.41,1,33.19,33.19,0,0,1-.8,5.69c-.45,1.39-1.79,2.46-2.51,3.8a49.6,49.6,0,0,0-2,4.88c-3.26-5,4.31-8.61,0-13.38-9.11,9.41-21.18,12.79-33,16.79l-.76-1.41c7.66-4.16,15.61-7.86,22.89-12.6S62.82,530.73,70.64,524.69Z"/><path d="M126.76,621l-.53-2.67c-4,1.09-4,1.44-1.71,5.6L122.6,627c-2,0-3.85,0-5.74,0-2.26,0-3-1.08-2.25-3.3a13.86,13.86,0,0,0,.66-4.42c0-2.83-1-5.37,1.32-8.24s-1.54-3.52-3.88-4.79a41,41,0,0,1,4.68-2c3-.84,5.36.82,6.42,3.68,1,2.67,2.63,5.08,3.61,7.75.59,1.6.47,3.46.67,5.21Z"/><path d="M94.82,341a25.58,25.58,0,0,1-4.09-2.23,24.59,24.59,0,0,1-4.38-4.33,14.72,14.72,0,0,1-1.69-4c-.41-1.11-.68-2.28-1.11-3.38-1.18-3-3.17-5.92-3.49-9-.72-7-2.4-14.1-.19-21.2.92-2.93,1.42-6,2.31-8.95.18-.58,1.31-.86,2-1.28a16.57,16.57,0,0,1-.09,2.23c-.84,4.78-2.1,9.52-2.5,14.33a42.52,42.52,0,0,0,.59,12.55c2,8.78,5.54,16.88,12.51,23a5.22,5.22,0,0,1,.76,1.15Z"/><path d="M125.8,285.23c1.22,3.42,2.53,7.13,3.85,10.84-3.5-2.78-7.07-1.78-9.59.49-2.33,2.11-3.53,5.46-5.39,8.53-.93-2.59-2-5.18-2.79-7.86s0-4.57,2.73-5.87C118.23,289.64,121.67,287.52,125.8,285.23Z"/><path d="M83.46,280.06c-1.26-.69-2.31-1-2.36-1.35a56.68,56.68,0,0,1-.83-9.52c0-.85,2-1.63,3.16-2.43.53,1.13,1.58,2.29,1.5,3.38C84.72,273.24,84.05,276.3,83.46,280.06Z"/><path d="M134.59,285.07c7.42,3.39,8.85,13.27,2.22,17.81C140.34,296,137.22,290.58,134.59,285.07Z"/><path d="M143.77,337.06c-1-1.13-1.74-2-2.54-2.79-.51-.5-1.49-.77-1.66-1.33-.62-2.06-2-5.45-1.27-6.07,2.38-2,3.58,1,4.85,2.52C145.05,331.74,146,334.26,143.77,337.06Z"/><path d="M219.53,584.76c.07,1.84.48,3.77.07,5.5-.18.78-2,1.18-3.08,1.75l.11.1a51.61,51.61,0,0,0-3.47-4c-.21-.22-1.21.35-1.85.56l-.51-4.44Z"/><path d="M123,593.91l2.85-.64c-1.85,2.72-3.22,4.73-5.1,7.51V596c-4.48,1.12-6.59-.1-7.59-4.2l9.89,2Z"/><path d="M4.21,561.78l14.17-4.69c-2.46,3.73-4.07,6.47-8.42,5.17-1.54-.46-3.45.35-5.19.59Z"/><path d="M205.43,602.93c2.62.77,5.12,1.61,5,5.14,0,.33,1.41.57,2,1.07a32.73,32.73,0,0,1,2.51,2.62l-1.49.3,0-.06c-1.23-.85-3-1.43-3.58-2.6-1.32-2.76-3.1-4.1-6.59-4.14l2.26-2.24Z"/><path d="M212.23,592c-.17,1-.33,1.92-.57,3.3L210,593l-.68,1-5.14-4.83c1.46-1.67,2.79-2.54,4.8-.63.54.51,1.74.32,2.64.46.18,1,.35,2.09.52,3.13Z"/><path d="M184.44,559.22c2.66.93,5.09,1.91,4.39,5.62-.13.67,1.24,1.62,1.92,2.43l-.69,5.71c-.63-2.19-.8-3.74-1.51-5a18.21,18.21,0,0,0-3-3.21Z"/><path d="M172.21,519.84h-4.35c.76-2.46,1.43-4.59,2-6.37l3.3,1.8c-.26,1.17-.65,2.92-1,4.66Z"/><path d="M101.58,444.75c1,.44,2.26.61,2.86,1.31a3.72,3.72,0,0,1,.79,2.95c-.25.82-1.47,1.34-2.27,2-.52-.79-1.35-1.53-1.5-2.39A18.58,18.58,0,0,1,101.58,444.75Z"/><path d="M123,593.83c-.92-1.85-1.85-3.69-2.78-5.54L119,590c.52-1.46,1-2.93,1.57-4.37,2.22,1,2.87,3.19,2.4,8.25Z"/><path d="M152.32,575.3c1.65-2,2.79-3.83,4.81-1.89,1.37,1.32,4.77,2.15,1.44,5.56l-3.26-4.5Z"/><path d="M70.89,528.07c.87-2.78,1.59-5.06,2.49-8A5.09,5.09,0,0,1,70.89,528.07Z"/><path class="cls-3" d="M212.16,592.15c-.17-1-.34-2.09-.52-3.13l-.33-.39c.64-.21,1.64-.78,1.85-.56a51.61,51.61,0,0,1,3.47,4Z"/><path d="M205.52,603l3.61-2.87L206,596l.83-.76c1.24,1.46,3.39,2.83,3.53,4.38.28,3.12-2.74,3-4.94,3.33Z"/><path d="M213.43,612l0,.06,6.43,4.38-.49.76c-2.11-.86-4.26-1.63-6.28-2.67C212.86,614.39,213.31,612.88,213.43,612Z"/><path d="M213.5,621.91l-6.53-.43-.44-.6a33.71,33.71,0,0,1,4.84-2.18C211.65,618.62,212.46,620.31,213.5,621.91Z"/><path d="M197.33,606.21v-4.56c2.93.55,3.43,1.78,2.28,6.62Z"/><path d="M170.56,565l3.59-6.21-.77.84,2.82,2.91.72-1.19Z"/><path d="M55.26,281.37V267.1h.49v14.24Z"/><path d="M157.86,435.28l-3.11,4V433l1-.3c.7.86,1.41,1.73,2.11,2.61Z"/><path d="M171.33,538.11l5.56,4.95C171.75,544.54,172.66,540,171.33,538.11Z"/><path d="M153.52,570.12l.31-1.81,6,1.38-.2.85Z"/><path d="M117,546.41l-4.32-5.27,3.47-.61Z"/><path d="M122.65,537.77c.24-2.14.48-4.27.8-7.22,3.26,3.17-.59,5.09.45,7.32Z"/><path d="M548.38,150.11l-3-6.68,2.84-3.13c4,2.68,1,6.15,1.25,9.23Z"/><path d="M567.37,583.27c-.27-2.3-.53-4.6-.82-7.14l2.09-1.78,1,.23c-.57,3-1.15,5.95-1.72,8.93Z"/><path d="M544.49,595.37l-5.32,6.55,2.88-7.6Z"/><path d="M276.59,271.31c4-4.68,9.69-.95,14.85-3l-4.17-1.58c4.78-.7,7.06,1.28,8.9,4.14C293.39,273.57,281.27,273.84,276.59,271.31Z"/><path d="M321.66,255.78H313.1l-12.81-3.45,17.52-1.81Z"/><path d="M488.4,250.59c-1.9-5.3.88-13.49,4.79-14.21C491.77,241.15,494.09,246.93,488.4,250.59Z"/><path d="M194.59,203.42c1.61-2.74,3.1-5.56,4.91-8.15.57-.82,2-1,3.44-.94-3.73,2.27-3.32,8.2-8.44,9Z"/><path d="M423,270.43c3.93-2.75,6.15-8,11.7-8.64-3,2.5-6,5-9.08,7.48A11.09,11.09,0,0,1,423,270.43Z"/><path d="M209.09,181.42,203.86,179c.66-.45,1.75-1.51,2-1.32A37.51,37.51,0,0,1,210,181Z"/><path d="M307.15,249.21l6.34-3,.42.92C311.79,247.75,311.55,252.42,307.15,249.21Z"/><path d="M189,227.92l-2.82,5.78C184.27,230,184.27,230,189,227.92Z"/><path d="M484,256.94c1.16-1.25.46-4.8,4.79-3l-4.13,3.65Z"/><path d="M227.79,380.18l1.36,5-4.32-.36C225.85,383.19,226.56,382.08,227.79,380.18Z"/><path d="M326.66,260.34c-.07-.87-.13-1.54-.2-2.4l6.11,1.23.09.63Z"/><path d="M354.66,542.34c-4.47,2.67-10.07,2.79-15.18,5.84l4-5.66-3.31.3c2-.24,3.91-4.74,5.84-.81l7.91-.51Z"/><path d="M353,556.45c-.84-2.14-.84-2.14,3.17-5.24-.28,2.4-.48,4-.69,5.79l-2.59-.66Z"/><path d="M456.53,467.91l2.14-.47c-.33,1.51-.67,3-1.09,4.93l-2.67-.53C455.44,470.54,456,469.31,456.53,467.91Z"/></g></g><circle class="cls-4" cx="322.5" cy="322.77" r="322.5"/></g></g></svg>