<svg xmlns="http://www.w3.org/2000/svg" xmlns:xlink="http://www.w3.org/1999/xlink" viewBox="0 0 646 645.64"><defs><style>.cls-1{fill:none;}.cls-2{clip-path:url(#clip-path);}.cls-3{fill:#fff;}.cls-4{fill:#6a0002;opacity:0.5;}</style><clipPath id="clip-path"><circle class="cls-1" cx="322.73" cy="322.65" r="322.5"/></clipPath></defs><title>sam</title><g id="Layer_2" data-name="Layer 2"><g id="Layer_1-2" data-name="Layer 1"><g class="cls-2"><g id="bEa8c0"><path class="cls-3" d="M0,505.12V0H642.77q0,321.9,0,643.79a8.72,8.72,0,0,1-.39,1.85c0-.68,0-1.36,0-2,0-37.9.06-75.79-.1-113.69,0-5.24.84-10.61-.9-15.79a1.24,1.24,0,0,1,.12-.79,8.75,8.75,0,0,0-.69-8.52c-.69-1.1-.57-2.73-.76-4.13-.07-.53.12-1.08.08-1.62-.29-3.87-.67-7.74-.89-11.61-.19-3.15-.15-6.31-.29-9.46-.17-4.14-.43-8.27-.65-12.4-.1-1.72.75-2.59,2.37-3.08a2.43,2.43,0,0,0,1.51-1.62c.12-3.62.09-7.24,0-10.85a1.84,1.84,0,0,0-1.3-1.22c-4.72.2-9.45.42-14.15.84-3.31.29-6.59,1-9.9,1.3-3.09.26-6.22.11-9.33.29a12.91,12.91,0,0,0-4.38.84c-1.66.71-3.34,1.73-3.56,3.85a5.22,5.22,0,0,0,3.28,4.77,21,21,0,0,0,4.23.5c3.21.31,6.57.48,7.52,4.47a29.54,29.54,0,0,1,.63,5.23c.12,2.47.12,4.94.09,7.41-.06,4.9,1.36,9.9-1,14.67a1.65,1.65,0,0,0,0,1.34,9.43,9.43,0,0,1,.47,8.21c-.25.72.29,1.76.55,2.62s1,1.78.89,2.62c-.12,1.46-.77,2.87-1,4.33-.14.88.22,1.83.1,2.72a2.5,2.5,0,0,1-.91,1.74c-2.89,1.5-5.31-.19-7.57-1.57-3.83-2.33-7.69-4.28-12.3-4.49-3.42-.17-3.77-.74-3-4.21-.91.31-1.61.57-2.32.79a9.08,9.08,0,0,1-2.92.76c-3.65-.22-7.3-.38-10.69-2.25-2-1.11-3.71-3.44-3.45-5.72a20.78,20.78,0,0,0,0-4.39c-.31-3.23-.91-6.44-1.09-9.68-.22-3.85-.11-7.72-.18-11.58,0-1.31-.23-2.63-.21-3.94a10.73,10.73,0,0,1,.43-3.36c1.17-3.2,4.26-3.78,7-4.63,1.82-.57,4.25-2.86,4.3-4.66a1.5,1.5,0,0,0-.39-1.1c-1.38-1-2.71-2.28-4.26-2.62a22.7,22.7,0,0,0-6.89-.27c-8.7.79-17.33,2.42-26.12,2.24-2,0-3.9.19-5.85.33-1.55.11-3.36-.18-4.56.53-1.63,1-3.41,2.52-4,4.22-.88,2.51,2.21,5,5.44,5a36.35,36.35,0,0,1,4.89.27c2.83.38,5.61,3.23,5.72,5.63.26,6,.62,11.93.75,17.9a8.7,8.7,0,0,1-1.08,4.62c-.84,1.35-4.58,1.25-6.1.25-3.56-2.35-7.14-4.68-10.67-7.07-1.06-.71-2-1.67-3-2.42-2.17-1.57-4.52-2.91-6.56-4.64-3.49-3-6.84-6.08-10.16-9.23-4.36-4.15-8.74-8.3-12.9-12.65-2.2-2.31-3.69-5.35-6-7.5-2-1.88-2.75-3.7-2.26-6.28.36-1.85.55-3.74.76-5.61.13-1.15.12-2.32.25-3.47.19-1.67.9-2.74,2.83-2.83,3.1-.14,6.18-.51,9.27-.76,5.69-.45,11.37-.94,17.07-1.31,4.07-.26,8.18-.08,12.22-.55,6.32-.73,12.78,0,19-1.8a2.77,2.77,0,0,1,.41,0c5.14-.21,10.29-.34,15.42-.68,5.79-.38,11.57-1,17.35-1.46,1.28-.11,2.55-.33,3.82-.37,2.9-.1,5.81.05,8.7-.19,6.1-.48,12.17-1.24,18.27-1.7,2.68-.21,5.41.25,8.09,0,6.12-.49,12.22-1.26,18.33-1.78,1.45-.13,2.09-.52,2.07-2.05-.06-4.5-.05-9,0-13.51,0-1.6-.65-2.24-2.22-2.11-3.24.26-6.49.43-9.73.73-1.75.17-3.47.68-5.22.77-4,.22-8,.19-12,.42-4.27.24-8.52.68-12.79,1-3.9.28-7.81.54-11.73.75-6.38.34-12.76.59-19.14.95-3.23.18-6.45.53-9.69.78-2.47.18-5,.32-7.44.47-2.21.14-4.42.17-6.62.4-4,.41-7.91,1.05-11.89,1.37-4.39.35-8.81.42-13.21.69-3,.19-6.1.46-9.15.77-4.36.44-8.69,1.38-13.13.63-2.22-.38-3.15-1.49-2.8-3.78.28-1.81,1-3.64.85-5.39-.43-4.31,2.71-6.25,5.17-8.7,1.9-1.9,4.11-3.59,5.62-5.76,2.31-3.35,3.77-7.33,6.28-10.5s2.3-6.14,1.51-9.55c-.89-3.83-1.82-7.66-2.43-11.53s-.84-8-1.33-12.06c-.37-3-1.21-5.88-1.28-8.84a91,91,0,0,1,.56-12.89c.47-3.88,1.67-7.67,2.35-11.53.82-4.6,1.5-9.22,2.13-13.85s.59-9.27,1.77-13.67c1.56-5.82,2.92-11.8,7.35-16.53,2.17-2.31,1.93-5.47.55-8.45a14.49,14.49,0,0,1-1.37-4.84c-.24-3,.17-6-.21-8.94-.8-6.23-1.87-12.43-3-18.62-.46-2.6-1.34-5.11-1.9-7.69-1-4.51-2-9-2.72-13.58-.86-5.34-1.54-10.72-2.09-16.1-.4-4-.3-8-.77-11.93a49.34,49.34,0,0,0-1.95-8.89q-2.18-6.88-4.84-13.6c-1.39-3.53-3.1-6.92-4.66-10.38-.83-1.85-1.7-3.69-2.44-5.57-1.22-3.13-2.36-6.3-3.53-9.45l-1.81-4.9,2.3.7.15-.32-2-1.8c1.76-.67.5-1.37.19-2.23-.52-1.42-.3-3.56-1.25-4.3-2.29-1.76-1.46-4.08-1.77-6.14-.63-4.26-.42-8.85-2.93-12.49-2.3-3.33-2.8-6.28-.57-9.69l-2.26,1.73-.65-.31c.38-2.83.76-5.65,1.12-8.3-.3-.85-.34-1.89-.87-2.32-2.1-1.7-4-3.42-3.61-6.64l-3,.69c-.95-3-1.87-6-2.82-9-.75-2.32-1.54-4.62-2.47-7.37.56-1.31,1.82-1,3.19-.1l2.74,1.8.39-.59c-1-.73-2-1.49-3-2.18s-2.05-1-1.16-2.49c.15-.26-.29-1.24-.64-1.36C468,52.07,462.63,47.67,455.8,47c-2.82-.29-5.37-2.37-8.44-1.25-.31.11-1.12-.5-1.39-1-1.15-2-2.19-4-3.17-5.88a5,5,0,0,1-1.41-.64,1.4,1.4,0,0,1-.12-1c1.6-.54.51-1.56.33-2.25-.6-2.29-1.34-4.53-2.05-6.79a6.79,6.79,0,0,0-.44-.9l-.49.11c.13,1.3.27,2.6.36,3.9,0,.72,0,1.45,0,2.17a6.53,6.53,0,0,1-2.49-.69,21.54,21.54,0,0,1-2.52-3l-.33.18c.14.67.28,1.34.51,2.42-2.44-1.15-4.53-2.19-6.66-3.14s-3.31-3.36-6.42-3.14-6.11-1.73-8.82-3.8c-2-1.53-4.28-3.51-6.67-2.66l-7.07-4.86v2.58l-5.8-4.46-.51.59,2.59,1.82-.24.17-10.67-3.62-.3.63c.64.35,1.29.68,1.92,1,.38.22,1.08.54,1,.72-.31,1.86,1.18,1.67,2.19,2,1.41.46,2.83.89,4.25,1.34-3.79,2.51-6.84-.79-10.44-.76l3.64,2.56C380.36,18,374,19.39,369.11,15c-2,2.18.75,1.81,1.57,3.21a28.66,28.66,0,0,1-4.2,0c-2.27-.37-4.49-1-6.75-1.41-.92-.16-2,.3-2.87.13-2.67-.47-5.31-1.12-8-1.69a16.74,16.74,0,0,0-2.95-.52c-3.37-.1-6.78.12-10.11-.27a6.4,6.4,0,0,0-3.66.42c-1.7.77-3.48,1.35-5.57,2.14.06,1.3-1.26,1.22-2.64,1a12.79,12.79,0,0,0-1.58-.35c-3.16-.1-6.32-.24-9.47-.19-2.49,0-4.81,1.5-7.52.07-1.72-.92-4-.73-6.69-1.13l2,1.45A93.43,93.43,0,0,0,291,16.21c-3.5-.22-7,.34-10.55.12-6.49-.41-12.41,1.58-18.3,3.82-1.49.56-2.84,1.5-4.29,2.19-.59.28-1.48.72-1.87.48-1.84-1.1-3,.38-4.35,1.11l2.72-.46c0,.76.06,1.26.09,1.8l1.4-.28a23,23,0,0,1-6.12,2.07c-1.9.38-3.67.53-4.49,2.82-.33.91-1.64,1.5-2.57,2.15-1.37,1-3.57,1.56-4.07,2.84-1.75,4.53-6.41,5.92-9.19,9.28-2.23,2.69-6,4.06-6.76,8.06-.07.4-.54.76-.88,1.08-.93.88-1.89,1.74-2.9,2.65l1.18,1.54A19.92,19.92,0,0,1,217.39,60c-1.9,1.25-2.3,2.94-2.29,5.08.07,9.89,0,19.79,0,29.69,0,12.5.13,25,.14,37.48,0,1.58.54,2.57,2.09,2a15.57,15.57,0,0,0,3.59-2.22,31.41,31.41,0,0,1,3.54-2.49c1.59-.79,2.78.14,2.73,1.92,0,1.23-.21,2.45-.28,3.67,0,.39.05,1.1.15,1.12,1.51.21.71,1.26.82,2,.32,2.13.71,4.25,1.07,6.37l.64,0c.42-.66,1.2-1.32,1.21-2,0-3.88,2.15-7,3.66-10.35,1.27-2.83,3.27-5.32,4.57-8.14,2-4.28,5.95-6.6,9.06-9.74a16.06,16.06,0,0,1,7.9-4.29c1.5-.35,2.68-.75,3.86.55.39.43,1.27,1,1.55.83,2.36-1.34,3.66.75,5.43,1.43a28.61,28.61,0,0,0,5.29,1l.1-1.81,5.52,2.11,2.16-1.17c.48.83.83,1.45,1,1.73,1.7-.42,3.14-.86,4.61-1.11,1.11-.19,2.46.21,3.35-.28,2.87-1.58,6,.17,9-1.22s6.87.49,10.07-1.44c.3-.18.9.19,1.37.23s1.06,0,1.59,0c1.1.08,2.2.12,3.28.3a20.25,20.25,0,0,0,2.51.66c3,.09,6,0,9.16,0-.31-1-.67-2.27-1.11-3.79a7.28,7.28,0,0,1,1.71.61c1.27,1,2.52,1.28,3.85.17a14.48,14.48,0,0,1,2.09-1.71,15.83,15.83,0,0,1,2.75-.91l-2.06-1.87,2.14-.9,2.58,2.81c1,1,1.93,1.8,3.57,1.12a9.33,9.33,0,0,1,3.06-.18v-.61l1.92.82-.84-1.76,3.75,1.94.34-.43-2-2.52.27-.36,4.34,2.13-.56-2.91.75-.31,3.83,4.76,1-1.75c2.68,1.3,4.77.66,6.42-1.91l1.79,3.17c.82-2,1.71-3.15,3.75-1.86.33.21,1.15-.1,1.61-.39a12.64,12.64,0,0,0,1.69-1.55l1.16,1.46,1.63-1.18c1,.61,1.76,1.39,2.49,1.38.49,0,1.52-1.35,1.37-1.68-.62-1.4.42-1.65,1.1-2.21,3,2.47,3,2.47,6.36.12a5.86,5.86,0,0,0,2.65-.12c1.61-.56,3-.92,3.85,1.14.08.21.4.32.7.55a9,9,0,0,0,2.18-1.77c.63-1,1.27-1.78,2.41-1.18a22.18,22.18,0,0,1,2.95,2.27h5.9v2.26c3.24-1.36,5.1.85,7.62,2.37l-2.16.87,0,.54c1.15.23,2.3.48,3.45.69,2.94.54,5.4,1.67,6.46,4.78.2.59.69,1.42,1.18,1.52,2.05.44,3.05,1.37,2,3.63l2.51.45c-1.15,3.08-3.51,5.61-3.79,8.31a18.9,18.9,0,0,0,3.08-2.16,19.75,19.75,0,0,0,2.16-3.18l.54.36c-.45.77-.89,1.55-1.42,2.47,3.72-2.24,3.72-2.24,4.71-1.36l-1.71,3.93.63.47a4.47,4.47,0,0,1,.42-.94c2.12-2.71,3.47-2.68,5.51,0a2.72,2.72,0,0,0,1.6,1.11c2.41.16,3.53,1.69,4.31,3.68.68,1.71,1.06,3.61,2.05,5.11,1.46,2.22,4.07,3.68,4.11,6.79,0,.41.48.81.75,1.2,1.94,2.75,2.68,6.07,4.82,8.86,1.56,2,1.32,5.46,2,8.24.33,1.41.86,2.76,1.26,4.15.59,2.06,1.26,4.1,1.68,6.19.52,2.54.83,5.13,1.21,7.71.27,1.81.51,3.62.76,5.43.35,2.47.38,5,1.12,7.38,1.05,3.33,2.62,6.51,3.94,9.76a4.32,4.32,0,0,1,.15,1.21c.14,1.48.21,3,.43,4.46.58,3.92,1.38,7.82,1.79,11.76.34,3.36.16,6.78.42,10.16a39.87,39.87,0,0,0,1.12,4.72c.76,3.65,1.47,7.31,2.21,11,.69,3.4,1.52,6.78,2.08,10.21.69,4.21,1.17,8.46,1.71,12.7.13,1,.14,2,.18,3,.12,3.39,0,6.8.41,10.15s1.47,6.69,2.11,10.06c1,5.14,1.8,10.29,2.72,15.43a13.26,13.26,0,0,0,.76,2.54c.4,1,1.13,1.37,1.73.25a32.6,32.6,0,0,0,2.41-5.28c.54-1.64-.19-3.3-.45-5a54,54,0,0,1-.27-8c0-4.18,3.78-9.29,7.78-10.61a1.89,1.89,0,0,0,1-.9c1.3-2.74,2.54-5.51,4-8.77.5.72,1.34,1.38,1.31,2a51.67,51.67,0,0,1-.78,6.9c-1.07,5.89-2.53,11.72-3.3,17.65a103.75,103.75,0,0,0-.6,14.44c.06,4.76.5,9.53.86,14.28.16,2,0,4.32,1,6,2.75,5,1.44,9.66-.21,14.41-.86,2.49-2,4.88-3.05,7.32-1.45,3.52-5.2,6.32-8.45,6.37-1.57,0-2.46-.55-2.42-2.26,0-1.93,0-3.87,0-5.81l-.78-.25c-.37.53-1,1-1.1,1.58-.54,2.45-.9,4.94-1.41,7.4a32.54,32.54,0,0,1-1.16,4.28c-.35,1-1.07,1.84-1.45,2.82-.46,1.2-.53,2.6-1.17,3.68-.48.81-1.59,1.24-2.41,1.84-.24-.84-.48-1.67-.73-2.5,0-.11-.17-.2-.54-.61-.62.7-1.46,1.25-1.73,2-.78,2.13-1.75,4.33.07,6.49a1.83,1.83,0,0,1,.42,1.34c-.75,3.51-2.48,6.57-4.3,10L467,390h-.68q-.45,3.89-.91,7.77l-.43-.06-.89-1.85c-1.65,2.24-3.35,4.37-2.8,6.85,1,4.57-2.9,7.38-3.49,11.31,0,.28-.39.55-.63.78-1.18,1.11-2.4,2.17-3.54,3.32-2.18,2.19-3.52,4.74-2.84,8.38a6.35,6.35,0,0,0-1.67-.75,2.42,2.42,0,0,0-1.63.35A25.67,25.67,0,0,0,445,429c-.45.57-.8,1.22-1.19,1.83l.39.33,3.46-1.83c-1.23,3.1-2.52,3.8-5,2.89-.49,2.12-1,4.16-1.4,6.23,0,.22.29.56.51.79,1.9,2,1.83,2.8-.33,4.61a2.38,2.38,0,0,0-.91,1.32,4.12,4.12,0,0,1-3.38,3.8c-3.05.14-3.22,3.61-5.71,4.08-.05,0,.08.81.06,1.24,0,.61-.13,1.21-.16,1.5a11.44,11.44,0,0,0-2.56-.77c-1.8,0-2.84.92-3.63,2.6-.87,1.83-1.49,4.06-4.51,3.88-1.05-.07-2.27,1.36-3.27,2.27s-2.12,3.22-3.15,3.21c-3.08,0-4.15,2.21-5.72,3.95-.31.33-.28,1-.41,1.45.55.12,1.16.44,1.63.29a18.19,18.19,0,0,0,2.8-1.5c-1.13,4.34-4.53,5.82-7.71,7.79a7.94,7.94,0,0,1,.06-3.54,24,24,0,0,1,1.32-2.76,10.93,10.93,0,0,0,.4-1.84,5.56,5.56,0,0,0-1.86.23c-1,.53-1.9,1.59-3,1.86a4.17,4.17,0,0,0-2.67,6.05,15.91,15.91,0,0,1,2.14-1.5,1.47,1.47,0,0,1,1.36.17,2.5,2.5,0,0,1,.53,1.61c0,.19-.86.5-1.32.49-2.06,0-4.07,0-5.1,2.25-.22.49-.46,1-.69,1.46l-.64-.45-.75-1.55c-2.32-.18-4.23.12-5.22,2.43-.1.23-1.28,0-2,0l-.58-1.19q2.13-1.28,4.25-2.56l-.6-.68-2-.18c1-.46,1.37-.64,1.77-.85s.91-.48,1.36-.72a4.16,4.16,0,0,1,1.24-5.15,18.54,18.54,0,0,0,2.31-3.12c.23-.31.48-.6.83-1l.53,1.23c2-1,1.36-2,0-2.88L398,465a3.5,3.5,0,0,0-2-.17c-2,.34-2.89-.42-2.68-2.43a40.84,40.84,0,0,0,.45-4.25c0-.45-.68-1.13-1.18-1.28a1.74,1.74,0,0,0-1.44.67c-1.32,1.75-2.49,3.6-3.79,5.37a21.91,21.91,0,0,1-2.25,2.57c-1.73,1.7-2.64,4.53-5.68,4.17-.83,3.21-1.74,6.1-5,7.52-1.23.54-2.4,1.21-3.75,1.89-.62-1.23-1.69-.77-2.75,0-.77.56-1.51,1.16-2.25,1.75-1.53,1.23-2.87,2.89-4.61,3.59-2.5,1-5.35,1.18-7.93,2.06-1.68.58-2.71.69-2.9-.8-1.41-.26-2.48-.5-3.56-.63a3.92,3.92,0,0,0-1.33.23c-1.72.45-3.37,2.89-5.22.2,0,0-.13,0-.2,0-2.33-.31-4.66,0-7-.78a86.87,86.87,0,0,0-9.61-2c-3.19,2.28-4.13-2.11-6.68-2.53-1,.76-2.16,1.36-3.22-.32a.81.81,0,0,0-.72-.28c-3.38,1-4.32-2.39-5.94-3.87a8.33,8.33,0,0,0-5.91-2.65,5.65,5.65,0,0,1-1.65-.56l-3.26-1.26-.11.36c-1.27-1.46-2.54-2.93-3.66-4.2l-2.17,2.17c-.18-.77-.37-1.53-.51-2.11L286,465.08c-1.24.88-2.16,2.05-3.11,2.08-1.42,0-2.85-.74-4.3-1.09-.6-.15-1.45-.34-1.85-.05-1.39,1-2.38.66-3.46-.45A5.27,5.27,0,0,0,271,464a2.72,2.72,0,0,0-2.32.73c-1.45,2-1.9,2.15-3.64.43a26.2,26.2,0,0,1-1.73-2.49c-.34-.45-.93-1.14-1.28-1.07-3.2.64-4.31-2.4-6.52-3.3l1.23-3.47,1.78.4c-1-2.72-2.49-3.26-5.11-1.46-1.57,1.07-2.29.61-3.09-.6-.65-1-1.05-2.73-1.86-2.92-3-.72-3.2-3.59-4.79-5.35-.66-.73-1.4-1.4-2-2.17-.79-1-1.28-2.39-2.28-3.07-2.23-1.53-2.67-4.7-5.44-5.68a1.18,1.18,0,0,1-.36-1.08c.89-2.4-.9-3.16-2.37-4.26a22.52,22.52,0,0,1-3.3-3.25c-1.23-1.41-.48-2.91,0-4.41s-1.41-4.18-2.68-4.21c-2.7-.05-4-1.48-3.56-4-3.52-.89-4.29-4.19-5.89-6.93a6.36,6.36,0,0,0-.47,2.37c0,3.82,0,7.65,0,11.47s0,7.51,0,11.26.18,7.66,0,11.47.66,7.47.14,11.22a2,2,0,0,0,.53,1.27c1.6,1.85.77,4.74,2.79,6.42.2.17,0,.79,0,1.2a3,3,0,0,0,.27,1.16c2,3.09,3.89,6.23,6,9.22a23.32,23.32,0,0,0,3.21,3.06c1,1,2,2.05,3.09,3.05.28.27.64.62,1,.64,2.09.09,2.72,1.79,3.71,3.15a71,71,0,0,0,5.17,6.76c2.14,2.31,5.25,3.64,6.75,6.67a2.37,2.37,0,0,0,1.51.94c2.05.51,4.14.87,6.2,1.36a2.37,2.37,0,0,1,1.34.83,12.93,12.93,0,0,0,3.9,4.34,72.34,72.34,0,0,1,6.2,4.89c.42.33,1.18.67,1.18,1,0,2.36,1.9,3.55,3.08,5.15,2.07,2.81,4.26,5.49,7.86,6.51a9.14,9.14,0,0,1,3.1,1.47c2.13,1.69,4.12,3.56,6.19,5.33a1.43,1.43,0,0,0,.76.2c1.62.14,2.09,1.12,2.25,2.61a3.16,3.16,0,0,0,1.27,1.67c.84.67,1.82,1.16,2.71,1.77a12.42,12.42,0,0,0,2.11,1.57c4.19,1.71,8.39,3.43,12.66,4.94a89.48,89.48,0,0,0,23,4.38,19.08,19.08,0,0,0,6.67-.36c3.05-.88,6.36.28,9.23-1.47.23-.13.68.15,1,.1a6.3,6.3,0,0,0,1.32-.41c1-.37,1.89-.83,2.87-1.13,1.23-.37,1.55-1,.79-2.08a7.6,7.6,0,0,0-1.1-1,7.7,7.7,0,0,0,1.37-.39c1.83-.95,3.65-1.93,5.48-2.89.15-.08.5-.09.57,0,1.09,1.59,2.68.89,3.87.54a77,77,0,0,0,7.74-3c.29-.12.49-.64.6-1a1.79,1.79,0,0,1,2.53-1.35c2.64.83,4.08-.92,6-2.47l-2.05-.72-.25-.6c1.14-.72,2.3-1.42,3.43-2.16.76-.5,1.5-1.05,2.25-1.57l-.06.05c2.26-1.12,5.06-1.43,6.26-4.21.13-.3.94-.29,1.42-.45,2.13-.75,4.32-1.37,6.37-2.31a9.68,9.68,0,0,0,2.58-2.27c.61-.62,1.61-1.42,1.55-2-.24-2.18,1.3-2.59,2.7-3.26,3.38-1.63,6.81-3.18,10.14-4.93,1.77-.94,3.57-1.93,4.06-4.29.13-.64,1.22-1.12,1.93-1.6,2.07-1.41,4.29-2.64,6.22-4.22a19.34,19.34,0,0,0,3.39-4c3-4.25,7.93-6.92,10-12,.44-1.11,1.8-1.83,2.62-2.83,2.06-2.5,4-5.07,6.08-7.6,1.53-1.9,2.76-4.3,4.71-5.54,3.15-2,3.49-5.4,5.09-8.12,1.27-2.15,1.83-4.74,2.55-7.19q1.47-5.07,2.69-10.21c.59-2.51.91-5.09,1.5-7.61a13.07,13.07,0,0,1,1.54-2.69,18.9,18.9,0,0,1,1.73,2.93c1.42,4.2,2.92,8.38,4.08,12.65,2.41,8.88,4.67,17.8,6.91,26.73,2.69,10.75,4.61,21.57,3.58,32.75-.59,6.38-.83,12.79-1.12,19.18a10.61,10.61,0,0,0,.82,2.88c.25.89.8,1.88.6,2.68q-3.72,15.28-7.65,30.53-6,23-12.09,45.86c-2.23,8.37-4.57,16.7-6.83,25.06-1.67,6.18-3.29,12.38-4.94,18.57H337.16c.84-.89,1.68-1.78,2.53-2.65,2.48-2.54,5.12-4.94,7.42-7.63a234.31,234.31,0,0,1,25.52-26.15c3.7-3.17,3.8-3.39,0-6.38-4.73-3.69-9.65-7.11-14.6-10.49-.78-.53-2.13-.36-3.2-.29-1.37.08-2.72.39-4.08.6l-.1-.63,2.61-1.54-.16-.51c-1,.06-2.32-.26-2.88.26-1.83,1.71-4,1.22-6,1.27-2.31,0-4.63-.24-6.94-.21-6.94.11-13.87.37-20.8.45a69.16,69.16,0,0,0-20.33,2.78c-.1,0-.23-.07-.45-.15l.9-1.19c-2.91-1.94-3.83-2-6.11-.33-3.43-3.23-5.59-8-10.95-9.28a26.64,26.64,0,0,1,3.35-1.9c1.1-.63,2.1-1.41,3.14-2.13l-.39-.52c-16.12,7.28-31.25,16-43,29.59a28.4,28.4,0,0,0,2.37-2c3.29-2.39,6.76-4.55,9.95-7.05,1.78-1.39,2.89-1.21,4.51.23,5.19,4.62,10.48,9.13,15.82,13.59,3.23,2.7,6.57,5.3,10,7.76a2.86,2.86,0,0,1,1.49,3.17c-1.23,7.11-2.41,14.23-3.61,21.35H196.64a27.39,27.39,0,0,0,.31-2.84c.06-7.44-.11-14.88.16-22.32.35-9.46,1-18.91,1.59-28.37.25-4.08.78-8.14,1-12.22.49-10.49.8-21,1.31-31.49.64-13.15,1.58-26.29,2.05-39.45.55-15.14-.05-30.32,2.22-45.37,1-6.59,1.65-13.26,4.73-19.39.85-1.68-.28-3.4-1.52-5.44-1.4,2.36-2.7,4.18-3.63,6.19a26.09,26.09,0,0,1-11.3,11.74c-4.38,2.51-8.64,5.23-13,7.75a19.22,19.22,0,0,1-4.66,1.94c-8.53,2.19-17.12,4.11-25.62,6.41-13.16,3.58-26.27,7.38-39.39,11.11L63.23,497.44a20,20,0,0,1-3.8.78c-6.8.55-13.59,1.34-20.39,1.47A167.49,167.49,0,0,0,0,505.12Zm284.42-218c0-.41-.14-1,.08-1.21.92-.9,1.95-1.69,2.94-2.51l-.59-.59c-1,.94-2.1,1.81-3,2.82-.78.84-.29,1.31.68,1.45.45.53,1,1-.09,1.54a24.58,24.58,0,0,0-2.73,2l.32.48c.62-.35,1.27-.66,1.84-1.06,1.24-.88,2.32-2.19,3.68-2.64,2.32-.75,1.59-1.79.8-3.18C286.47,287,286.47,287,284.42,287.11Zm57.44,86-1.72-1.62c-.93.38-1.68.74-2.46,1-1.09.34-2.56.26-3.22,1s-.69,2.23-.89,3a15.16,15.16,0,0,0-1.83-.4c-1.06-.1-1.66-.43-1.4-1.68a10.61,10.61,0,0,0,0-2.11,7.6,7.6,0,0,0-1.12,2.78c-.35,1.62-1.12,1.56-2.08.53s-1.72-2.1-2.69-3c-.37-.35-1.05-.38-1.78-.61.3,1.2.47,1.87.63,2.54l-4.39,1.27-1.35-2.06c.46,2.18-.53,2.52-1.85,2.28a21,21,0,0,1-3.47-.95,3.26,3.26,0,0,0-4.3,1.63,3.73,3.73,0,0,1-1.16-.14c-2.09-1-3.7-.17-5.42,1.08a22.26,22.26,0,0,1-4.72,2.32c-4.26,1.72-7.19,4.92-9.8,8.39,4.7,1.27,9.23,2.54,13.79,3.68.73.19,2,.11,2.34-.34,1.66-2.36,4.11-1.67,6.31-1.86.46,0,1,.63,1.69,1.11-2.07,1.21-3,2.64-2.75,4.63l1,.83,1.88-2.49,2.8.81,1,1.35c1.32-1.51,1-2.64-.06-3.75l-2.19.91c.17-.89.86-1.32,1-1.88.42-2,1.93-1.88,3.4-2.15,3.22-.57,6.75.38,9.64-1.89a1.39,1.39,0,0,1,.8-.1,61.84,61.84,0,0,1,8.18.26,14.13,14.13,0,0,0,7.69-.8,13.93,13.93,0,0,1,10.56-.2,9.61,9.61,0,0,0,3.06.71,39.73,39.73,0,0,0,5.23-.15c2.14-.2,2.3,1.11,2.3,2.69a18.2,18.2,0,0,0,.23,2.07l2-.76.44-.18,2.13,2.27c1-.53,1.58-.87,2.18-1.12,3.32-1.37,6.76-2.52,9.94-4.16,2.58-1.32,4.55-3.8,7.79-3.87a2.31,2.31,0,0,0,.47-1.74c-1.68-5-6.73-5-10.5-6.73a20.5,20.5,0,0,0-6.84-1.41c-2.45-.22-5.06-1.17-7.31.9-.37.34-1.64.44-1.75.23-1.21-2.17-2.53-1.75-4.12-.44a8.9,8.9,0,0,1-2.19,1l0-.5h-5.08l.7-3.94L348.8,373c-.14-.67-.3-1.41-.43-2L345,373.7l-1.11-2.93-.59-.24-1.46,2.62Zm40.33-96.23,5.39-.42-.88-2,3.47,1.29-.25.18,1.79,1.56L393,275.1l.5.11.58,2.38-4.89,3,5.54.28c.44-1.74.56-1.77,2.6-.65a4.67,4.67,0,0,0,5.51-.18,3.1,3.1,0,0,1,1.05-.61c3.47-.83,7-1.58,10.43-2.43,3-.74,6.5.46,9.19-1.94,0,0,.13,0,.19-.06,1.26-.69,2.54-1.36,3.78-2.09.85-.5,1.61-1.17,2.48-1.6a2.63,2.63,0,0,0,1.47-3.77,3.1,3.1,0,0,1-.1-1.95c.54-1.74.5-3.18-1.71-4a3.52,3.52,0,0,0,.86-4.85c-.18-.34.06-1,.28-1.44.42-.82,1-1.57,1.46-2.35l-.4-.32,11.07-4.51.2.55,1-2.14c-2.15-.92-3.72-2.19-3.86-4.57-.06-1.05.07-2.11.11-3.16l.05.05c-.7-1.47-1-3.61-2.18-4.28a23,23,0,0,0-7.1-2.18,2.61,2.61,0,0,0-3.08,1.73,1.36,1.36,0,0,1-2.31.65c-2.72-2.13-5.41-4.29-8.19-6.33a2.47,2.47,0,0,0-2-.3c-2.33.95-6.42-1.09-6.86-3.92a26.32,26.32,0,0,1-1.6,2.61,2.11,2.11,0,0,1-1.26.6c-.23,0-.52-.3-.78-.47.32-.59.56-1.06.88-1.67-2,.41-3.16,3.5-5.42,1.12h-4.62l.06,0c-.78.14-1.56.26-2.33.44a22.59,22.59,0,0,1-2.24.62c-1.15.16-2.31.15-3.47.24-1.87.14-3.78,1.74-5.61-.24-.18-.19-.9,0-1.31.17-1,.4-2,1-3,1.33-2,.62-4,1.91-6-.2-1.52,2.21-3.54,2.42-5.89,2a4.35,4.35,0,0,0-2.83.75c-1.84,1.21-3.53,2.65-5.55,4.2.26-1.65.47-3.09.69-4.52l-.24,0L351.9,243l.48.23.64-1.56.29.06v1.36l.5.1c.19-.8.35-1.61.59-2.4s.59-1.66.89-2.49l.48.16c-.24,1-.48,2-.85,3.56,2-3.74,4.41-6.09,5.68-6.14l-5.2,8.42.52.44c.25-.54.5-1.08.74-1.62l.4.3.09,1.55,1.59-2.84.42.26-.78,2.17.31.18,3.84-5.31.42.29L360,244.48l.28.16,1.81-1.08-1.24,1.83.2.21,1.42-.86.11.66a7.75,7.75,0,0,0,2,.09c.64-.14,1.29-.92,1.82-.82,3.07.59,5.81-1,8.73-1.2,3.15-.2,6.33,0,9.22-1.72.74-.45,2.18.12,2.8-.38,1.69-1.37,3.58-1.35,5.44-1.13s3.78-2,5.39.47c.11.18,1-.06,1.5-.26,1.8-.79,3.57-1.65,5.36-2.48l.23.43-.74,1,7.75-2.74c-.59.86-.83,1.22-1,1.51l6.27-.9c-.61,1.74-1,3-1.46,4.14l1.34,1.48,1.37-.77c.28-.83.3-1.61.66-1.81a11,11,0,0,1,2.46-.78l.14.53-.83,1,4.39.24,0,.61-7,1.3.07.44,7.51-.78.05.51-4.53,1.09.07.32h4L423.71,247l.34.4c.66-.47,1.36-.89,2-1.4,2.18-1.76,2.41-1.73,3.95.71l-1.95.68,4.58,2.7a6.48,6.48,0,0,1-.93,1.39c-1.32,1.23-2.68,2.4-4.07,3.54-.47.38-1.32,1-1.57.81-2.42-1.53-4.93-.63-7.45-.66-1.94,0-3.85-1.31-5.79-2a21.21,21.21,0,0,0-4.46-1.25,58.15,58.15,0,0,0-7.47-.17c-4.63.14-9.32,0-13.85.74s-9.14.36-13.37,2.58a73.82,73.82,0,0,1-7.22,2.79c-1.5.6-3,1.31-4.42,2a4,4,0,0,0-1.11,1c-1.45,1.69-.71,3.32.47,4.6l2.25,1.77,1.1-.45c-.47,1.26-.8,2.14-1.14,3a41.41,41.41,0,0,0-1.75,4.73c-.25,1,.09,2.27,1.56,2,2.35-.45,4.68-1.07,7-1.75.63-.19,1.12-.84,1.78-1.36-3.31-1.58-3.22-3.69.1-6.51l.77,2.44c.21-1.35.38-2.39.64-4,.41,1.27.51,2.37.83,2.44,2.38.52,2.14,2.85,3.12,4.3a1.6,1.6,0,0,1,.07,1.29c-.78,2-.59,2.32,1.63,2.65a24.09,24.09,0,0,1,2.93.81c-.66.9-2,2-1.82,2.64.46,1.4,1.87,1.79,3.38,1,.22-.12.66.15,1,.29,1.85.81,4.79-.66,5.37-2.77-.69.27-1.45.87-2,.7a3.21,3.21,0,0,0-3.08.29c-.11.08-.72-.56-1.26-1a6.87,6.87,0,0,1-.55.45c-.3.21-.62.39-1.29.81C382.1,278.27,382.15,277.58,382.19,276.88Zm-167.54-214a9.93,9.93,0,0,0-1.7,1.09q-3.47,3.7-6.88,7.48c-1.14,1.26-2.18,2.61-3.31,3.88-3.07,3.44-6.24,6.79-9.21,10.31-2.4,2.85-4.51,5.92-6.85,8.82-1.84,2.27-3.76,4.5-5.78,6.62-1.67,1.75-3.53,3.32-5.32,5-.56.51-1.19,1-1.79,1.42l.25.33,1.33-.9.47.35c-1.37,2.16-2.69,4.37-4.14,6.48-1.29,1.86-2.76,5.66-2.36,7.56.7-2.85,1.84-4.71,4.6-5,0,.25,0,.55-.13.73-.85,1.15-1.77,2.24-2.59,3.41-.7,1-1.23,2.13-2,3.12-.59.81-1.64,1.38-2,2.26a42.72,42.72,0,0,0-2,6.83c-.94,4.91-1.43,9.93-2.59,14.78-1.08,4.5-3.14,8.76-4.17,13.26-1.29,5.61-1.93,11.36-2.92,17a61.07,61.07,0,0,0-.11,22.71,4.23,4.23,0,0,1-.19,1.6c-.64,2.91-1.29,5.81-2,8.82l.79-.67c0,3.84-.06,7.85.05,11.85,0,.88.9,1.74.94,2.62.09,1.94-.21,3.89-.17,5.84.08,4.58-1.16,9.14.19,13.77,1.25,4.31,1.9,8.79,3,13.15a15.61,15.61,0,0,0,5.19,8.56c.28.22.59.74.51,1a5.82,5.82,0,0,0,1.5,6c.13.12.1.39.16.59,1.08,3.63,2.14,7.27,3.26,10.9.27.89.81,1.71,1.13,2.6a41.1,41.1,0,0,1,2.35,6.91c.48,2.79.19,5.71.5,8.54.44,4.1.72,8.24,2.82,12,1.1,2,1.38,4.38,2.41,6.4,1.83,3.61,3.87,7.12,6,10.59a39.68,39.68,0,0,0,3.19,4.05l.51-.2c0-.62.05-1.26,0-1.88-.21-2.53-1-5-.55-7.61.23-1.47-.31-3.08-.57-4.61-.2-1.19-.67-2.35-.76-3.55-.22-2.89-.12-5.81-.47-8.68-.62-5.19-1.49-10.35-2.24-15.52A10.79,10.79,0,0,1,183,292c0-3.4,0-6.81-.07-10.21-.08-6.86-.19-13.71-.27-20.57,0-3.8,0-7.6-.07-11.4-.1-4.07-.42-8.14-.42-12.21,0-3,.39-6.08.55-9.12.33-6.16.66-12.32,2.67-18.23a3.5,3.5,0,0,0,.34-1.37,25.64,25.64,0,0,1,.76-11.05c0-.08-.12-.22-.24-.45h-2l2.68-3.32c-1.42,1-2,.1-2.45-1.07l-1.68,1c1.28-4.06,2.55-8.07,3.84-12.14-1-.6-.9-.53-.37-1.75.7-1.62,1.14-3.36,1.7-5,.11-.32.14-.73.35-.91,1.78-1.5,2.34-3.76,3.57-5.53,3.93-5.68,8.29-11.06,12.4-16.62a28.22,28.22,0,0,0,3.92-6.33A32.44,32.44,0,0,1,213,137a6.74,6.74,0,0,0,1.44-3.82c.17-11.74.2-23.48.22-35.22C214.67,86.4,214.65,74.86,214.65,62.85Zm30.87,183.87c2.12-.45,4.16-.76,6.11-1.33a9.37,9.37,0,0,1,6.49.33,55.54,55.54,0,0,0,6.79,1.79.62.62,0,0,0,.4,0c2.82-1.25,5.5.36,8.25.51,1.95.1,3.83,1.1,5.77,1.59,1.53.38,3.12.54,4.65.92s3.1,1.34,4.6,1.24c1.26-.08,2.38-.86,3.5.37.86,1,1.89,1.75,2.72,2.72,1.16,1.35,2.17,2.83,3.32,4.19.78.92,1.79,1.65,2.5,2.61,1.68,2.28,3.2,4.69,4.91,7,.23.31,1.64.25,1.68.11.33-1.07.88-2.35.55-3.29a17.74,17.74,0,0,0-2.79-5.08,92.74,92.74,0,0,0-6.28-6.88c-1.34-1.37-2.85-2.57-4.26-3.83l2.4-.56c-.47-.82-.92-1.65-1.43-2.44-.17-.28-.52-.43-.76-.67-.55-.57-1.09-1.16-1.69-1.8l1.53-.17-2.9-3,.33-.42,4.78,3.31-3-5.2-.38.17v1.38c-.87-.76-1.86-2.08-2.31-1.92-1.4.51-1.65-.41-2.21-1.14a3.82,3.82,0,0,0-4.91-1.05,2,2,0,0,1-1.35,0c-4.26-1.28-8.5-2.66-12.78-3.86-1.28-.36-2.56-1.2-4.09,0-.64.48-2.15.08-3.17-.23-3.52-1.05-6.69-.21-9.73,1.56-2.16,1.26-3.17,1.15-4.08-.52-2.28.84-4.59,1.61-6.83,2.53s-4.41,2-6.61,3l-.11-.24,3.59-2.86-4.52-1.75,2.07-1.06c-1.51-.72-4.39.54-5.21,1.86-1.31,2.1-2.78,4.15-5.48,4.69.11,1.49-.53,1.86-3.23,1.82,1.3-1.5,3.19-2.41,4.07-4.11l-.39-.31-1.89,1.74V237l-.51-.24c-.52.92-1,1.85-1.58,2.76a2.42,2.42,0,0,1-.77.9,31.81,31.81,0,0,1-4.14,2.14,2.67,2.67,0,0,0-1.91,3c0,5.11,0,10.23,0,15.35,0,1.58,0,3,1.89,3.58a1.54,1.54,0,0,1,.94,1c.37,3.58,2.52,6.18,4.74,8.74a1.69,1.69,0,0,1,0,2.66,2.21,2.21,0,0,0-.52,1.79c.76,2.59,1.65,5.15,2.56,7.69.34.94.9,1,1.92.59,1.7-.76,3.6-1.52,4.84.68,1.8-.69,3.23-1.51,5.32-.54s4.62,1.1,7,1.49c1.26.21,2.65-.08,3.84.31,2.28.76,4.86-.77,7,1,.09.08.38-.13.58-.14,1,0,2.11-.09,3.16,0a45.86,45.86,0,0,0,5.2.4,65.2,65.2,0,0,0,6.49-1l-.36-1a16.56,16.56,0,0,0,2.13,0c.73-.1,1.47-.57,2.16-.48,3,.4,3.67,0,4.14-3.35l-3.82,2.87c-.15-1.25-.25-2.07-.39-3.18-.72.67-1,1.17-1.37,1.24-2.67.55-5.51-.61-8.11.84,0,0-.25-.27-.43-.46.68-1.29,1.44-2.14,3.16-2,1,.09,2-.57,3.05-.89a11.88,11.88,0,0,1,2.13-.86,12.77,12.77,0,0,1,2-.19c1.52-.15,3-.23,4.55-.47.87-.14,1.75-.85,2.55-.74,3,.4,5.63-.71,8.33-1.48,1.54-.45,2.86-1.19,4.14.19,3.4-2.6,3.14-4.54-.87-7.46l1.63-.89c-.27-.76-.48-1.37-.72-2.06.76-.16,1.35-.33,1.95-.4,1.44-.17,1.85-1,1.54-2.3-.41-1.7-.84-3.39-1.4-5-.11-.3-.9-.56-1.35-.53-2.75.19-5.49.38-8.07-.89-.3-.15-.7-.33-.81-.6a2.42,2.42,0,0,0-3.46-1.26c-1.83,1.45-3.72,1.05-5.59,1-5.54-.22-11.06-1-16.64-.2-3.71.52-7.48.6-11.18,1.11-2.27.31-4.48,1.09-6.72,1.61-2.91.69-5.46.44-7.69-2-1.12-1.25-3.35-1.32-4.11-3.28-.08-.22-.88-.2-1.35-.23-.71-.06-1.42-.07-2.13-.1l0-.47c1.82-.3,3.65-.59,5.4-.86l-1.75-.83c1.45-.52,3.33-.3,2.21-2.44,1.75-.37,3.39-.74,5-1.05.92-.16,1.86-.21,2.79-.31v-.37l-4.24-.44v-.86l9.41-.75C245.66,247,245.51,246.69,245.52,246.72Zm54.4,88.64-.64.33c1.07,2.08,1.85,4.37,3.27,6.16a12.29,12.29,0,0,0,5,3.92,19.28,19.28,0,0,1,6.61,4.45c1.21,1.13,3,1.62,3.65,3.45,0,.08.42,0,.58.08,2,1,3.24-.56,4.8-1.22l-1.3-1.67,3.58-1.58,1,2.77a5.27,5.27,0,0,0,1.64-1.07c.23-.29-.07-1.07-.28-1.57A8,8,0,0,0,327,348c.62-.13,1.23-.32,1.85-.39,2.69-.3,5.52-.14,8-1,2.76-.91,5.2-2.75,7.82-4.12,1-.51,1.38-1,.69-2a1.58,1.58,0,0,1,.4-1.46c2-.71,4.1-1.3,6.18-1.83,1.35-.35,2.77-.41,4.1-.8a2.24,2.24,0,0,1,3.14,1.53c-2.41,1.25-4.31,3.3-7.35,3.1-1.25-.08-2.91.79-2.37,2.11s-.2,2-.63,2.86-1.23,1.8-1.68,2.77a2.2,2.2,0,0,0,.05,1.67c.09.21,1,.27,1.39.08,1.35-.66,2.18-.18,2.89,1a12.49,12.49,0,0,0,1.22,1.5c1.93-1.49,2.35-2.14,1.7-3.68a2.85,2.85,0,0,1,1.19-3.73A40,40,0,0,1,363,341a15.26,15.26,0,0,0,5.16-3.4c1.59-1.6,1.84-3,.43-5-.26.22-.51.44-.75.67-2.46,2.39-3.74,2.53-6.59.79a11.78,11.78,0,0,0-1.69-.64c-1.12-.48-2.22-1-3.35-1.47-1.59-.65-3.18-1.3-4.8-1.88a12.48,12.48,0,0,0-2.35-.52c-1.81-.26-3.45-.83-5.22.81-2.4,2.21-3.83,5.86-7.86,6-.15,0-.29.27-.44.4-1.9,1.73-7.17,2.09-9.06.33a20.83,20.83,0,0,0-10.89-5.84c-4.32-.76-7.3.15-9.27,4.24-.89,1.85-2.17,2.28-4,1.3C301.53,336.34,300.73,335.84,299.92,335.36ZM200,400.92c2.86.39,2.84.39,3.16,1.66,1.72,6.83,3.47,13.65,5.15,20.48.35,1.44.41,2.95.71,4.41.79,3.7,1.6,7.39,2.48,11.07.71,3,1.54,6,2.31,9l.61-.16V405.83c-1.11-1-2.54-1.63-2.53-2.28,0-2.61-1.93-2.6-3.5-2.95-1.78-.38-2-1.42-1.6-2.86a18.21,18.21,0,0,1,.71-1.79c-1.47-.27-3.05-.24-2.6-2.28-1.65-.1-2.4-.86-3.21-2.33s-.7-4.09-2.94-4.12c-.72-2-1.35-3.85-2.07-5.65-.06-.14-.74-.05-1.13,0-2.17.12-4.33.34-6.5.36a35.23,35.23,0,0,1-4.07-.39c.82,1.35,2.07,2.09,2.73,3.18a3.38,3.38,0,0,0,3.83,1.59c1.15-.17,2.27-.52,3.42-.61.46,0,1.27.29,1.39.63a19.85,19.85,0,0,1,1.48,5.28,8.69,8.69,0,0,0,4,7.21Zm11-141.3-2.71-.89-.19.54,6.29,2.36V249.88l-2.12.44c2.54-2.15,2.54-2.15,1.85-4.94-2.35,2.41-5.17,4.29-5.14,8.34l-2.55-1.62-1.33,1.59a7.86,7.86,0,0,1,1.37.45c1,.53,3.05.27,2,2.5a3.33,3.33,0,0,0,1.39.73c1.16.11,2.33,0,4,0l-3.33,1ZM349.07,272.2c1.4-2.88,2.29-5.47.48-8.32C347.24,267.53,347.21,268.53,349.07,272.2Zm-8,128.08c-.88,2.78-.65,4.46-.06,4.62l1.74-3.37,1.94.73-.8-2.24-2.41,1.78C341.27,401.11,341.15,400.7,341,400.28ZM484,64.06l-.52.63,5.87,4.85.47-.56ZM279.49,293.13l-.21-.74c-1,.28-1.95.58-2.94.83a5.44,5.44,0,0,1-1.15.06c0,.26,0,.67.11.74.38.2.9.48,1.25.36A30.14,30.14,0,0,0,279.49,293.13ZM235.77,614.5l.68.67,4.7-4.41-.58-.58Z"/><path d="M385.5,523.14c-.75.52-1.49,1.07-2.25,1.57-1.13.74-2.29,1.44-3.43,2.16l.25.6,2.05.72c-1.89,1.55-3.33,3.3-6,2.47a1.79,1.79,0,0,0-2.53,1.35c-.11.38-.31.9-.6,1a77,77,0,0,1-7.74,3c-1.19.35-2.78,1.05-3.87-.54-.07-.1-.42-.09-.57,0-1.83,1-3.65,1.94-5.48,2.89a7.7,7.7,0,0,1-1.37.39,7.6,7.6,0,0,1,1.1,1c.76,1.06.44,1.71-.79,2.08-1,.3-1.91.76-2.87,1.13a6.3,6.3,0,0,1-1.32.41c-.32.05-.77-.23-1-.1-2.87,1.75-6.18.59-9.23,1.47a19.08,19.08,0,0,1-6.67.36,89.48,89.48,0,0,1-23-4.38c-4.27-1.51-8.47-3.23-12.66-4.94a12.42,12.42,0,0,1-2.11-1.57c-.89-.61-1.87-1.1-2.71-1.77a3.16,3.16,0,0,1-1.27-1.67c-.16-1.49-.63-2.47-2.25-2.61a1.43,1.43,0,0,1-.76-.2c-2.07-1.77-4.06-3.64-6.19-5.33a9.14,9.14,0,0,0-3.1-1.47c-3.6-1-5.79-3.7-7.86-6.51-1.18-1.6-3.06-2.79-3.08-5.15,0-.33-.76-.67-1.18-1a72.34,72.34,0,0,0-6.2-4.89,12.93,12.93,0,0,1-3.9-4.34,2.37,2.37,0,0,0-1.34-.83c-2.06-.49-4.15-.85-6.2-1.36a2.37,2.37,0,0,1-1.51-.94c-1.5-3-4.61-4.36-6.75-6.67a71,71,0,0,1-5.17-6.76c-1-1.36-1.62-3.06-3.71-3.15-.34,0-.7-.37-1-.64-1-1-2.05-2.05-3.09-3.05a23.32,23.32,0,0,1-3.21-3.06c-2.12-3-4-6.13-6-9.22a3,3,0,0,1-.27-1.16c0-.41.16-1,0-1.2-2-1.68-1.19-4.57-2.79-6.42a2,2,0,0,1-.53-1.27c.52-3.75-.34-7.47-.14-11.22s0-7.64,0-11.47,0-7.51,0-11.26,0-7.65,0-11.47a6.36,6.36,0,0,1,.47-2.37c1.6,2.74,2.37,6,5.89,6.93-.45,2.53.86,4,3.56,4,1.27,0,3.1,2.78,2.68,4.21s-1.2,3,0,4.41a22.52,22.52,0,0,0,3.3,3.25c1.47,1.1,3.26,1.86,2.37,4.26a1.18,1.18,0,0,0,.36,1.08c2.77,1,3.21,4.15,5.44,5.68,1,.68,1.49,2.07,2.28,3.07.62.77,1.36,1.44,2,2.17,1.59,1.76,1.82,4.63,4.79,5.35.81.19,1.21,1.93,1.86,2.92.8,1.21,1.52,1.67,3.09.6,2.62-1.8,4.07-1.26,5.11,1.46l-1.78-.4-1.23,3.47c2.21.9,3.32,3.94,6.52,3.3.35-.07.94.62,1.28,1.07a26.2,26.2,0,0,0,1.73,2.49c1.74,1.72,2.19,1.53,3.64-.43A2.72,2.72,0,0,1,271,464a5.27,5.27,0,0,1,2.29,1.6c1.08,1.11,2.07,1.47,3.46.45.4-.29,1.25-.1,1.85.05,1.45.35,2.88,1.14,4.3,1.09.95,0,1.87-1.2,3.11-2.08l3.41,2.33c.14.58.33,1.34.51,2.11l2.17-2.17c1.12,1.27,2.39,2.74,3.66,4.2l.11-.36,3.26,1.26a5.65,5.65,0,0,0,1.65.56,8.33,8.33,0,0,1,5.91,2.65c1.62,1.48,2.56,4.84,5.94,3.87a.81.81,0,0,1,.72.28c1.06,1.68,2.25,1.08,3.22.32,2.55.42,3.49,4.81,6.68,2.53a86.87,86.87,0,0,1,9.61,2c2.37.78,4.7.47,7,.78.07,0,.17,0,.2,0,1.85,2.69,3.5.25,5.22-.2a3.92,3.92,0,0,1,1.33-.23c1.08.13,2.15.37,3.56.63.19,1.49,1.22,1.38,2.9.8,2.58-.88,5.43-1,7.93-2.06,1.74-.7,3.08-2.36,4.61-3.59.74-.59,1.48-1.19,2.25-1.75,1.06-.79,2.13-1.25,2.75,0,1.35-.68,2.52-1.35,3.75-1.89,3.22-1.42,4.13-4.31,5-7.52,3,.36,3.95-2.47,5.68-4.17a21.91,21.91,0,0,0,2.25-2.57c1.3-1.77,2.47-3.62,3.79-5.37a1.74,1.74,0,0,1,1.44-.67c.5.15,1.18.83,1.18,1.28a40.84,40.84,0,0,1-.45,4.25c-.21,2,.64,2.77,2.68,2.43a3.5,3.5,0,0,1,2,.17l-1.35,1.68c1.32.9,2,1.91,0,2.88l-.53-1.23c-.35.44-.6.73-.83,1a18.54,18.54,0,0,1-2.31,3.12,4.16,4.16,0,0,0-1.24,5.15c-.45.24-.9.49-1.36.72s-.81.39-1.77.85l2,.18.6.68q-2.11,1.29-4.25,2.56l.58,1.19c.69,0,1.87.27,2,0,1-2.31,2.9-2.61,5.22-2.43l.75,1.55.64.45c.23-.49.47-1,.69-1.46,1-2.28,3-2.29,5.1-2.25.46,0,1.31-.3,1.32-.49a2.5,2.5,0,0,0-.53-1.61,1.47,1.47,0,0,0-1.36-.17,15.91,15.91,0,0,0-2.14,1.5,4.17,4.17,0,0,1,2.67-6.05c1.07-.27,1.93-1.33,3-1.86a5.56,5.56,0,0,1,1.86-.23,10.93,10.93,0,0,1-.4,1.84,24,24,0,0,0-1.32,2.76,7.94,7.94,0,0,0-.06,3.54c3.18-2,6.58-3.45,7.71-7.79a18.19,18.19,0,0,1-2.8,1.5c-.47.15-1.08-.17-1.63-.29.13-.49.1-1.12.41-1.45,1.57-1.74,2.64-4,5.72-3.95,1,0,2-2.17,3.15-3.21s2.22-2.34,3.27-2.27c3,.18,3.64-2,4.51-3.88.79-1.68,1.83-2.62,3.63-2.6a11.44,11.44,0,0,1,2.56.77c0-.29.13-.89.16-1.5,0-.43-.11-1.23-.06-1.24,2.49-.47,2.66-3.94,5.71-4.08a4.12,4.12,0,0,0,3.38-3.8,2.38,2.38,0,0,1,.91-1.32c2.16-1.81,2.23-2.58.33-4.61-.22-.23-.55-.57-.51-.79.42-2.07.91-4.11,1.4-6.23,2.48.91,3.77.21,5-2.89l-3.46,1.83-.39-.33c.39-.61.74-1.26,1.19-1.83a25.67,25.67,0,0,1,2.48-2.92,2.42,2.42,0,0,1,1.63-.35,6.35,6.35,0,0,1,1.67.75c-.68-3.64.66-6.19,2.84-8.38,1.14-1.15,2.36-2.21,3.54-3.32.24-.23.59-.5.63-.78.59-3.93,4.5-6.74,3.49-11.31-.55-2.48,1.15-4.61,2.8-6.85l.89,1.85.43.06q.47-3.88.91-7.77H467l1.38,1.72c1.82-3.41,3.55-6.47,4.3-10a1.83,1.83,0,0,0-.42-1.34c-1.82-2.16-.85-4.36-.07-6.49.27-.76,1.11-1.31,1.73-2,.37.41.51.5.54.61.25.83.49,1.66.73,2.5.82-.6,1.93-1,2.41-1.84.64-1.08.71-2.48,1.17-3.68.38-1,1.1-1.83,1.45-2.82a32.54,32.54,0,0,0,1.16-4.28c.51-2.46.87-4.95,1.41-7.4.13-.58.73-1.05,1.1-1.58l.78.25c0,1.94,0,3.88,0,5.81,0,1.71.85,2.28,2.42,2.26,3.25-.05,7-2.85,8.45-6.37,1-2.44,2.19-4.83,3.05-7.32,1.65-4.75,3-9.45.21-14.41-.92-1.66-.8-4-1-6-.36-4.75-.8-9.52-.86-14.28a103.75,103.75,0,0,1,.6-14.44c.77-5.93,2.23-11.76,3.3-17.65a51.67,51.67,0,0,0,.78-6.9c0-.61-.81-1.27-1.31-2-1.49,3.26-2.73,6-4,8.77a1.89,1.89,0,0,1-1,.9c-4,1.32-7.81,6.43-7.78,10.61a54,54,0,0,0,.27,8c.26,1.67,1,3.33.45,5a32.6,32.6,0,0,1-2.41,5.28c-.6,1.12-1.33.74-1.73-.25a13.26,13.26,0,0,1-.76-2.54c-.92-5.14-1.76-10.29-2.72-15.43-.64-3.37-1.68-6.67-2.11-10.06s-.29-6.76-.41-10.15c0-1-.05-2-.18-3-.54-4.24-1-8.49-1.71-12.7-.56-3.43-1.39-6.81-2.08-10.21-.74-3.65-1.45-7.31-2.21-11a39.87,39.87,0,0,1-1.12-4.72c-.26-3.38-.08-6.8-.42-10.16-.41-3.94-1.21-7.84-1.79-11.76-.22-1.48-.29-3-.43-4.46a4.32,4.32,0,0,0-.15-1.21c-1.32-3.25-2.89-6.43-3.94-9.76-.74-2.35-.77-4.91-1.12-7.38-.25-1.81-.49-3.62-.76-5.43-.38-2.58-.69-5.17-1.21-7.71-.42-2.09-1.09-4.13-1.68-6.19-.4-1.39-.93-2.74-1.26-4.15-.64-2.78-.4-6.2-2-8.24-2.14-2.79-2.88-6.11-4.82-8.86-.27-.39-.74-.79-.75-1.2,0-3.11-2.65-4.57-4.11-6.79-1-1.5-1.37-3.4-2.05-5.11-.78-2-1.9-3.52-4.31-3.68a2.72,2.72,0,0,1-1.6-1.11c-2-2.68-3.39-2.71-5.51,0a4.47,4.47,0,0,0-.42.94l-.63-.47,1.71-3.93c-1-.88-1-.88-4.71,1.36.53-.92,1-1.7,1.42-2.47l-.54-.36a19.75,19.75,0,0,1-2.16,3.18A18.9,18.9,0,0,1,424.5,128c.28-2.7,2.64-5.23,3.79-8.31l-2.51-.45c1-2.26,0-3.19-2-3.63-.49-.1-1-.93-1.18-1.52-1.06-3.11-3.52-4.24-6.46-4.78-1.15-.21-2.3-.46-3.45-.69l0-.54,2.16-.87c-2.52-1.52-4.38-3.73-7.62-2.37v-2.26h-5.9a22.18,22.18,0,0,0-2.95-2.27c-1.14-.6-1.78.19-2.41,1.18a9,9,0,0,1-2.18,1.77c-.3-.23-.62-.34-.7-.55-.81-2.06-2.24-1.7-3.85-1.14a5.86,5.86,0,0,1-2.65.12c-3.4,2.35-3.4,2.35-6.36-.12-.68.56-1.72.81-1.1,2.21.15.33-.88,1.68-1.37,1.68-.73,0-1.47-.77-2.49-1.38l-1.63,1.18-1.16-1.46a12.64,12.64,0,0,1-1.69,1.55c-.46.29-1.28.6-1.61.39-2-1.29-2.93-.11-3.75,1.86l-1.79-3.17c-1.65,2.57-3.74,3.21-6.42,1.91l-1,1.75-3.83-4.76-.75.31.56,2.91-4.34-2.13-.27.36,2,2.52-.34.43-3.75-1.94.84,1.76-1.92-.82v.61a9.33,9.33,0,0,0-3.06.18c-1.64.68-2.6-.07-3.57-1.12l-2.58-2.81-2.14.9,2.06,1.87a15.83,15.83,0,0,0-2.75.91,14.48,14.48,0,0,0-2.09,1.71c-1.33,1.11-2.58.82-3.85-.17a7.28,7.28,0,0,0-1.71-.61c.44,1.52.8,2.74,1.11,3.79-3.19,0-6.17,0-9.16,0a20.25,20.25,0,0,1-2.51-.66c-1.08-.18-2.18-.22-3.28-.3-.53,0-1.06,0-1.59,0s-1.07-.41-1.37-.23c-3.2,1.93-7,0-10.07,1.44s-6.14-.36-9,1.22c-.89.49-2.24.09-3.35.28-1.47.25-2.91.69-4.61,1.11-.15-.28-.5-.9-1-1.73l-2.16,1.17-5.52-2.11-.1,1.81a28.61,28.61,0,0,1-5.29-1c-1.77-.68-3.07-2.77-5.43-1.43-.28.16-1.16-.4-1.55-.83-1.18-1.3-2.36-.9-3.86-.55a16.06,16.06,0,0,0-7.9,4.29C245,117.65,241,120,239,124.25c-1.3,2.82-3.3,5.31-4.57,8.14-1.51,3.32-3.61,6.47-3.66,10.35,0,.67-.79,1.33-1.21,2l-.64,0c-.36-2.12-.75-4.24-1.07-6.37-.11-.75.69-1.8-.82-2-.1,0-.17-.73-.15-1.12.07-1.22.24-2.44.28-3.67.05-1.78-1.14-2.71-2.73-1.92a31.41,31.41,0,0,0-3.54,2.49,15.57,15.57,0,0,1-3.59,2.22c-1.55.52-2.09-.47-2.09-2,0-12.49-.11-25-.14-37.48,0-9.9.07-19.8,0-29.69,0-2.14.39-3.83,2.29-5.08a19.92,19.92,0,0,0,2.69-2.54l-1.18-1.54c1-.91,2-1.77,2.9-2.65.34-.32.81-.68.88-1.08.72-4,4.53-5.37,6.76-8.06,2.78-3.36,7.44-4.75,9.19-9.28.5-1.28,2.7-1.87,4.07-2.84.93-.65,2.24-1.24,2.57-2.15.82-2.29,2.59-2.44,4.49-2.82A23,23,0,0,0,255.88,25l-1.4.28c0-.54,0-1-.09-1.8l-2.72.46c1.37-.73,2.51-2.21,4.35-1.11.39.24,1.28-.2,1.87-.48,1.45-.69,2.8-1.63,4.29-2.19,5.89-2.24,11.81-4.23,18.3-3.82,3.5.22,7-.34,10.55-.12a93.43,93.43,0,0,1,9.64,1.63l-2-1.45c2.66.4,5,.21,6.69,1.13,2.71,1.43,5,0,7.52-.07,3.15-.05,6.31.09,9.47.19A12.79,12.79,0,0,1,324,18c1.38.23,2.7.31,2.64-1,2.09-.79,3.87-1.37,5.57-2.14a6.4,6.4,0,0,1,3.66-.42c3.33.39,6.74.17,10.11.27a16.74,16.74,0,0,1,2.95.52c2.65.57,5.29,1.22,8,1.69.92.17,1.95-.29,2.87-.13,2.26.38,4.48,1,6.75,1.41a28.66,28.66,0,0,0,4.2,0c-.82-1.4-3.55-1-1.57-3.21,4.84,4.37,11.25,2.95,17.06,4.36l-3.64-2.56c3.6,0,6.65,3.27,10.44.76-1.42-.45-2.84-.88-4.25-1.34-1-.34-2.5-.15-2.19-2,0-.18-.67-.5-1-.72-.63-.36-1.28-.69-1.92-1l.3-.63,10.67,3.62.24-.17-2.59-1.82.51-.59,5.8,4.46V14.76l7.07,4.86c2.39-.85,4.66,1.13,6.67,2.66,2.71,2.07,5.56,4,8.82,3.8s4.27,2.18,6.42,3.14,4.22,2,6.66,3.14c-.23-1.08-.37-1.75-.51-2.42l.33-.18a21.54,21.54,0,0,0,2.52,3,6.53,6.53,0,0,0,2.49.69c0-.72.06-1.45,0-2.17-.09-1.3-.23-2.6-.36-3.9l.49-.11a6.79,6.79,0,0,1,.44.9c.71,2.26,1.45,4.5,2.05,6.79.18.69,1.27,1.71-.33,2.25a1.4,1.4,0,0,0,.12,1,5,5,0,0,0,1.41.64c1,1.84,2,3.89,3.17,5.88.27.46,1.08,1.07,1.39,1,3.07-1.12,5.62,1,8.44,1.25,6.83.71,12.24,5.11,18.52,7.25.35.12.79,1.1.64,1.36-.89,1.5.25,1.88,1.16,2.49s2,1.45,3,2.18l-.39.59L476,59c-1.37-.9-2.63-1.21-3.19.1.93,2.75,1.72,5.05,2.47,7.37.95,3,1.87,5.93,2.82,9l3-.69c-.38,3.22,1.51,4.94,3.61,6.64.53.43.57,1.47.87,2.32-.36,2.65-.74,5.47-1.12,8.3l.65.31,2.26-1.73c-2.23,3.41-1.73,6.36.57,9.69,2.51,3.64,2.3,8.23,2.93,12.49.31,2.06-.52,4.38,1.77,6.14.95.74.73,2.88,1.25,4.3.31.86,1.57,1.56-.19,2.23l2,1.8-.15.32-2.3-.7,1.81,4.9c1.17,3.15,2.31,6.32,3.53,9.45.74,1.88,1.61,3.72,2.44,5.57,1.56,3.46,3.27,6.85,4.66,10.38q2.65,6.7,4.84,13.6a49.34,49.34,0,0,1,1.95,8.89c.47,3.95.37,8,.77,11.93.55,5.38,1.23,10.76,2.09,16.1.73,4.55,1.74,9.07,2.72,13.58.56,2.58,1.44,5.09,1.9,7.69,1.09,6.19,2.16,12.39,3,18.62.38,2.94,0,6,.21,8.94a14.49,14.49,0,0,0,1.37,4.84c1.38,3,1.62,6.14-.55,8.45-4.43,4.73-5.79,10.71-7.35,16.53-1.18,4.4-1.15,9.11-1.77,13.67s-1.31,9.25-2.13,13.85c-.68,3.86-1.88,7.65-2.35,11.53a91,91,0,0,0-.56,12.89c.07,3,.91,5.88,1.28,8.84.49,4,.7,8.07,1.33,12.06s1.54,7.7,2.43,11.53c.79,3.41,1,6.42-1.51,9.55s-4,7.15-6.28,10.5c-1.51,2.17-3.72,3.86-5.62,5.76-2.46,2.45-5.6,4.39-5.17,8.7.17,1.75-.57,3.58-.85,5.39-.35,2.29.58,3.4,2.8,3.78,4.44.75,8.77-.19,13.13-.63,3.05-.31,6.1-.58,9.15-.77,4.4-.27,8.82-.34,13.21-.69,4-.32,7.92-1,11.89-1.37,2.2-.23,4.41-.26,6.62-.4,2.48-.15,5-.29,7.44-.47,3.24-.25,6.46-.6,9.69-.78,6.38-.36,12.76-.61,19.14-.95,3.92-.21,7.83-.47,11.73-.75,4.27-.31,8.52-.75,12.79-1,4-.23,8-.2,12-.42,1.75-.09,3.47-.6,5.22-.77,3.24-.3,6.49-.47,9.73-.73,1.57-.13,2.24.51,2.22,2.11-.05,4.5-.06,9,0,13.51,0,1.53-.62,1.92-2.07,2.05-6.11.52-12.21,1.29-18.33,1.78-2.68.21-5.41-.25-8.09,0-6.1.46-12.17,1.22-18.27,1.7-2.89.24-5.8.09-8.7.19-1.27,0-2.54.26-3.82.37-5.78.5-11.56,1.08-17.35,1.46-5.13.34-10.28.47-15.42.68a2.77,2.77,0,0,0-.41,0c-6.22,1.78-12.68,1.07-19,1.8-4,.47-8.15.29-12.22.55-5.7.37-11.38.86-17.07,1.31-3.09.25-6.17.62-9.27.76-1.93.09-2.64,1.16-2.83,2.83-.13,1.15-.12,2.32-.25,3.47-.21,1.87-.4,3.76-.76,5.61-.49,2.58.23,4.4,2.26,6.28,2.32,2.15,3.81,5.19,6,7.5,4.16,4.35,8.54,8.5,12.9,12.65,3.32,3.15,6.67,6.27,10.16,9.23,2,1.73,4.39,3.07,6.56,4.64,1,.75,1.93,1.71,3,2.42,3.53,2.39,7.11,4.72,10.67,7.07,1.52,1,5.26,1.1,6.1-.25a8.7,8.7,0,0,0,1.08-4.62c-.13-6-.49-11.93-.75-17.9-.11-2.4-2.89-5.25-5.72-5.63a36.35,36.35,0,0,0-4.89-.27c-3.23,0-6.32-2.49-5.44-5,.59-1.7,2.37-3.24,4-4.22,1.2-.71,3-.42,4.56-.53,1.95-.14,3.9-.37,5.85-.33,8.79.18,17.42-1.45,26.12-2.24a22.7,22.7,0,0,1,6.89.27c1.55.34,2.88,1.66,4.26,2.62a1.5,1.5,0,0,1,.39,1.1c-.05,1.8-2.48,4.09-4.3,4.66-2.74.85-5.83,1.43-7,4.63a10.73,10.73,0,0,0-.43,3.36c0,1.31.19,2.63.21,3.94.07,3.86,0,7.73.18,11.58.18,3.24.78,6.45,1.09,9.68a20.78,20.78,0,0,1,0,4.39c-.26,2.28,1.44,4.61,3.45,5.72,3.39,1.87,7,2,10.69,2.25a9.08,9.08,0,0,0,2.92-.76c.71-.22,1.41-.48,2.32-.79-.74,3.47-.39,4,3,4.21,4.61.21,8.47,2.16,12.3,4.49,2.26,1.38,4.68,3.07,7.57,1.57a2.5,2.5,0,0,0,.91-1.74c.12-.89-.24-1.84-.1-2.72.24-1.46.89-2.87,1-4.33.06-.84-.63-1.73-.89-2.62s-.8-1.9-.55-2.62a9.43,9.43,0,0,0-.47-8.21,1.65,1.65,0,0,1,0-1.34c2.34-4.77.92-9.77,1-14.67,0-2.47,0-4.94-.09-7.41a29.54,29.54,0,0,0-.63-5.23c-.95-4-4.31-4.16-7.52-4.47a21,21,0,0,1-4.23-.5,5.22,5.22,0,0,1-3.28-4.77c.22-2.12,1.9-3.14,3.56-3.85a12.91,12.91,0,0,1,4.38-.84c3.11-.18,6.24,0,9.33-.29,3.31-.28,6.59-1,9.9-1.3,4.7-.42,9.43-.64,14.15-.84a1.84,1.84,0,0,1,1.3,1.22c.12,3.61.15,7.23,0,10.85a2.43,2.43,0,0,1-1.51,1.62c-1.62.49-2.47,1.36-2.37,3.08.22,4.13.48,8.26.65,12.4.14,3.15.1,6.31.29,9.46.22,3.87.6,7.74.89,11.61,0,.54-.15,1.09-.08,1.62.19,1.4.07,3,.76,4.13a8.75,8.75,0,0,1,.69,8.52,1.24,1.24,0,0,0-.12.79c1.74,5.18.88,10.55.9,15.79.16,37.9.09,75.79.1,113.69,0,.68,0,1.36,0,2H453.91c1.65-6.19,3.27-12.39,4.94-18.57,2.26-8.36,4.6-16.69,6.83-25.06q6.1-22.92,12.09-45.86,4-15.23,7.65-30.53c.2-.8-.35-1.79-.6-2.68a10.61,10.61,0,0,1-.82-2.88c.29-6.39.53-12.8,1.12-19.18,1-11.18-.89-22-3.58-32.75-2.24-8.93-4.5-17.85-6.91-26.73-1.16-4.27-2.66-8.45-4.08-12.65a18.9,18.9,0,0,0-1.73-2.93,13.07,13.07,0,0,0-1.54,2.69c-.59,2.52-.91,5.1-1.5,7.61q-1.21,5.14-2.69,10.21c-.72,2.45-1.28,5-2.55,7.19-1.6,2.72-1.94,6.13-5.09,8.12-1.95,1.24-3.18,3.64-4.71,5.54-2,2.53-4,5.1-6.08,7.6-.82,1-2.18,1.72-2.62,2.83-2.05,5.11-7,7.78-10,12a19.34,19.34,0,0,1-3.39,4c-1.93,1.58-4.15,2.81-6.22,4.22-.71.48-1.8,1-1.93,1.6-.49,2.36-2.29,3.35-4.06,4.29-3.33,1.75-6.76,3.3-10.14,4.93-1.4.67-2.94,1.08-2.7,3.26.06.62-.94,1.42-1.55,2a9.68,9.68,0,0,1-2.58,2.27c-2.05.94-4.24,1.56-6.37,2.31-.48.16-1.29.15-1.42.45-1.2,2.78-4,3.09-6.26,4.21.74-.76,2-1.47,2.08-2.3s-.94-1.86-1.48-2.8L391,516l-.17-.59a2.52,2.52,0,0,1-.69-.21c-.65-.45-1.86-1.05-1.79-1.39a9,9,0,0,1,1.43-3.13c.47-.7,1.56-1.09,1.8-1.82,1.2-3.48,3.86-5.57,6.89-7.79a10,10,0,0,0,.69,1.79,1.77,1.77,0,0,0,1,.7c.16,0,.7-.69.62-.87-.87-1.88.57-2.66,1.6-3.69a3.82,3.82,0,0,0,.64-1.45c.51-1.53,1-3.05,1.48-4.59.22-.72.37-1.46.65-2.6L402,493c1.12,1.7.08,2.68-1.68,3-2.12.36-3.35,1.31-3.45,3.57a1.64,1.64,0,0,1-.9,1.18,1.52,1.52,0,0,1-1.29-.63c-.61-1.05-1.25-1-2.19-.46-1.93,1.15-2.82.7-3-1.57a6.07,6.07,0,0,1,.45-2.13c.56-1.84,0-2.73-2-2.79a11.83,11.83,0,0,0-1.56.18l.53-.37c-.94-2-1.44-4.55-2.95-6s-4.2-2-6.36-2.88l-.77.19c2,1.48.83,2.32,0,3a16,16,0,0,1-2.56,1.45,9.2,9.2,0,0,0-2,1.21c-1,1-1.84,2.1-2.39,2.73-1.24-.56-2.35-1.36-2.64-1.14-1.66,1.32-4.31,1.81-4.25,4.81-2.72-.34-5.63.62-7.35-2.52-.25-.47-1.53-.38-2.77-.64.62,1.09.9,1.58,1.2,2.09-4.24,1.43-4.24,1.43-3.21,4-1.59,1.56-1.64,1.56-5.32-.26-.09,1-.16,1.77-.23,2.57l-.12,1.28c-.4-.14-1-.15-1.16-.42-.68-1.22-1.43-.83-2.4-.41-1.38.61-2.88,1-4.27,1.54a15.93,15.93,0,0,0-2.33,1.59c2.38-.15,4-.33,5.69-.3.4,0,1.15.7,1.14,1.06a14.24,14.24,0,0,1-.58,3.56c-.55,1.83.39,1.94,1.94,1.82-.8-1.87,0-2.88,2.23-3.71a15.36,15.36,0,0,1-.21,3.1c-.54,1.77-.77,3.38.89,4.73,1.32,1.06,4.63,1.17,4.89,0,.89-4.05,4.65-3.22,7.34-4.9.46,2,.83,3.54,1.29,5.49a16.43,16.43,0,0,0-2.78,0,13.4,13.4,0,0,0-3.62,1.07c-.68.36-1.17,1.49.16,1.8,2.56.58,5.15.85,7.21-1.42s4.75-2.85,7.49-3.43c.44-.09,1.27.14,1.38.43a1.83,1.83,0,0,1-.23,1.6c-.75.76-1.77,1.26-2.53,2-.48.47-1.07,1.3-.95,1.79s1.07.81,1.71,1.09a3.27,3.27,0,0,0,1.17,0c.22.67.39,1.21.56,1.74l3.62-1.33-.85,2.24c2.28.27,2.3-1.08,2.08-2.38a28.84,28.84,0,0,0,2.7-1.11c1.9-1,3.73-2.17,5.66-3.12.5-.25,1.59-.23,1.81.09a2.58,2.58,0,0,1,.24,2.07c-.13.4-1,.66-1.6.74-1.44.21-2.55.7-2.84,2.11C381.66,524.1,383.57,523.69,385.5,523.14ZM484.21,109c-.29,1.14-.25,2.12,1.12,2.52,1.38-1.85,1.44-2.77.1-4l-1.27,1.5c0-.72.06-1.45.1-2.19l-1.13-.21c.37-1.28.7-2.45,1-3.62l-.37-.13-1.19,1.82-.57-.29,1.76-4.5a1.29,1.29,0,0,1-.48-.59c-.72-2.07-1.82-2-3.34-.79-.88.7-2.42,1-2.76,1.86s.52,2.11.77,3.22c.61,2.75,1.37,3.41,3.32,3.37ZM466.61,64.7c1.89-1.77,2.05-2.54.27-4.3-2.7-2.66-5.53-5.21-8.4-7.69-1.68-1.45-5.49-.84-6.85,1.24l1.94-.52c-.74,2.44-.68,2.41.46,5.1a5.7,5.7,0,0,1,0,2.26c0,.51-.33,1.22-.1,1.47s1,.28,1.48.23c.74-.07,1.46-.43,2.2-.44,3.28,0,6.48.28,9,2.71a14.69,14.69,0,0,0-1.9-.65,54,54,0,0,0-5.76-.94,2,2,0,0,0-1.5,1.25c-.18,1.31,2.08,3.31,3.44,2.92a47.89,47.89,0,0,0,5.53-2.26C466.56,65,466.57,64.83,466.61,64.7ZM471.56,66l-1.81-1.27c-.23.81-.41,1.42-.58,2a2.88,2.88,0,0,0-4.08,1.52,8.12,8.12,0,0,1-1.36,1.84,5.12,5.12,0,0,0-1.5,4.46L464.4,73c.94,2-3.7,4.31,1.1,5.93l-1.94,4.23a22.41,22.41,0,0,1,.87,3.61,7.09,7.09,0,0,0,4.15,6.1,3.29,3.29,0,0,0,3.1-.42A11,11,0,0,0,474.41,84c-.23-3-3.27-5.68-1.31-9.06,0,0,0-.13,0-.19L471.32,69l2.05,1.51.34-.23L471.5,65.9l2.1,1.65.41-.36-3.46-4.9-.53.31ZM311.06,503.16c1.12.95,1.95,2.08,3.05,2.49a17,17,0,0,0,4.65.64c.3,0,.88-.54.9-.86a1.31,1.31,0,0,0-.73-1.05C316.41,503.91,314.07,502.16,311.06,503.16ZM285,493.48c.19,0,1.13.12,1.31-.19a16.24,16.24,0,0,0,1.09-3c-.59-.19-1.17-.4-1.75-.57s-1.06-.3-1.59-.41-.94-.15-1.41-.22a4.48,4.48,0,0,0,.31,1.4C283.42,491.41,284.06,492.21,285,493.48Zm10.16.51c-.94,1-2.09,2-2,2.16a27.47,27.47,0,0,0,2.68,3.05c.45-.92,1.24-1.84,1.24-2.75C297,495.76,296,495.07,295.11,494ZM479.18,94.41c-1.1,1.27-2,2.24-2.79,3.27a4.78,4.78,0,0,0-.48,1.18c.3.1.66.36.89.28,1.68-.62,3.5-1.1,4.24-3.18C480.26,95.32,479.52,94.69,479.18,94.41ZM336.55,506.79l-.91-.41-2.25,3.52c1.05.28,2.37,1.11,3.1.75C338.89,509.45,335.3,508.19,336.55,506.79ZM280,472.5c.13-1.43.67-2.82.21-3.33-.72-.8-2.1-1-3.2-1.45-.14.51-.56,1.25-.37,1.48A44.78,44.78,0,0,0,280,472.5Zm126-452-.44.88,2.81,1.51-1.5.44.08.62a18.68,18.68,0,0,0,2.9-.05,1.73,1.73,0,0,0,1.06-1c.08-.23-.39-.88-.74-1C408.78,21.33,407.37,20.93,406,20.49ZM392.13,510.66c2.18,1.16,4.82.75,5.59-.45a1.82,1.82,0,0,0,.26-1.13.93.93,0,0,0-.75-.45C395.68,509.2,394.16,509.84,392.13,510.66ZM327.8,502.8l.24-.67c-.63-.3-1.26-.62-1.9-.9s-1.21-.52-1.83-.72-1.25-.28-1.87-.42c.31.66.48,1.74.95,1.89A29.32,29.32,0,0,0,327.8,502.8Zm-21.63-4.62.36-.74a8.85,8.85,0,0,0-1.63-1.71,5.56,5.56,0,0,0-2-.31c.22.6.27,1.43.7,1.74A10.31,10.31,0,0,0,306.17,498.18Zm-29.49-18,1.74-1.57-1.66-1.54c-.45.5-1.1,1-1.29,1.54C275.38,478.93,276.11,479.49,276.68,480.2Zm132,9.48v5.23C410.57,493.45,410.64,490.87,408.66,489.68ZM465.24,56.41l-.38.55c1.66,2.4,2.25,2.78,3.92,2.16ZM329.56,505.72l.37.49a8.16,8.16,0,0,0,2.07-.95c.31-.26.22-1,.3-1.53-.51.07-1.17,0-1.51.27A7.53,7.53,0,0,0,329.56,505.72ZM454.82,50.58a31.08,31.08,0,0,0-3.46-1.12c-.35-.07-.81.46-1.23.72.4.24.78.67,1.18.68A34.34,34.34,0,0,0,454.82,50.58Zm-86.9,479.17,1.1.51c.35-.88.7-1.75,1.06-2.63a4.64,4.64,0,0,0-1-.32C368.65,528.1,368.29,528.93,367.92,529.75Zm32.58-39.22,2.84-2.21C401.32,487.53,400.64,488.33,400.5,490.53Zm-5,2.9-.66-.38c-.17,1.51-2.75,1.67-1.61,3.93Zm-103.87,2.09c-.62-.41-1.07-.88-1.27-.79a5.05,5.05,0,0,0-1.25,1c.36.32.76.94,1.07.9S291,496.07,291.62,495.52Z"/><path d="M0,505.12a167.49,167.49,0,0,1,39-5.43c6.8-.13,13.59-.92,20.39-1.47a20,20,0,0,0,3.8-.78l47.62-13.55c13.12-3.73,26.23-7.53,39.39-11.11,8.5-2.3,17.09-4.22,25.62-6.41a19.22,19.22,0,0,0,4.66-1.94c4.37-2.52,8.63-5.24,13-7.75a26.09,26.09,0,0,0,11.3-11.74c.93-2,2.23-3.83,3.63-6.19,1.24,2,2.37,3.76,1.52,5.44-3.08,6.13-3.74,12.8-4.73,19.39C203,478.63,203.58,493.81,203,509c-.47,13.16-1.41,26.3-2.05,39.45-.51,10.49-.82,21-1.31,31.49-.19,4.08-.72,8.14-1,12.22-.58,9.46-1.24,18.91-1.59,28.37-.27,7.44-.1,14.88-.16,22.32a27.39,27.39,0,0,1-.31,2.84H0Z"/><path d="M283.08,645.64c1.2-7.12,2.38-14.24,3.61-21.35a2.86,2.86,0,0,0-1.49-3.17c-3.42-2.46-6.76-5.06-10-7.76-5.34-4.46-10.63-9-15.82-13.59-1.62-1.44-2.73-1.62-4.51-.23-3.19,2.5-6.66,4.66-9.95,7.05a28.4,28.4,0,0,1-2.37,2c11.78-13.58,26.91-22.31,43-29.59l.39.52c-1,.72-2,1.5-3.14,2.13a26.64,26.64,0,0,0-3.35,1.9c5.36,1.26,7.52,6,10.95,9.28,2.28-1.67,3.2-1.61,6.11.33l-.9,1.19c.22.08.35.18.45.15a69.16,69.16,0,0,1,20.33-2.78c6.93-.08,13.86-.34,20.8-.45,2.31,0,4.63.26,6.94.21,2,0,4.18.44,6-1.27.56-.52,1.9-.2,2.88-.26l.16.51L350.61,592l.1.63c1.36-.21,2.71-.52,4.08-.6,1.07-.07,2.42-.24,3.2.29,4.95,3.38,9.87,6.8,14.6,10.49,3.84,3,3.74,3.21,0,6.38a234.31,234.31,0,0,0-25.52,26.15c-2.3,2.69-4.94,5.09-7.42,7.63-.85.87-1.69,1.76-2.53,2.65Z"/><path d="M214.65,62.85c0,12,0,23.55,0,35.08,0,11.74,0,23.48-.22,35.22A6.74,6.74,0,0,1,213,137a32.44,32.44,0,0,0-4.78,8.69,28.22,28.22,0,0,1-3.92,6.33c-4.11,5.56-8.47,10.94-12.4,16.62-1.23,1.77-1.79,4-3.57,5.53-.21.18-.24.59-.35.91-.56,1.68-1,3.42-1.7,5-.53,1.22-.67,1.15.37,1.75-1.29,4.07-2.56,8.08-3.84,12.14l1.68-1c.43,1.17,1,2.07,2.45,1.07l-2.68,3.32h2c.12.23.27.37.24.45a25.64,25.64,0,0,0-.76,11.05,3.5,3.5,0,0,1-.34,1.37c-2,5.91-2.34,12.07-2.67,18.23-.16,3-.55,6.08-.55,9.12,0,4.07.32,8.14.42,12.21.08,3.8,0,7.6.07,11.4.08,6.86.19,13.71.27,20.57,0,3.4,0,6.81.07,10.21a10.79,10.79,0,0,0,.09,1.61c.75,5.17,1.62,10.33,2.24,15.52.35,2.87.25,5.79.47,8.68.09,1.2.56,2.36.76,3.55.26,1.53.8,3.14.57,4.61-.42,2.63.34,5.08.55,7.61.05.62,0,1.26,0,1.88l-.51.2a39.68,39.68,0,0,1-3.19-4.05c-2.09-3.47-4.13-7-6-10.59-1-2-1.31-4.43-2.41-6.4-2.1-3.78-2.38-7.92-2.82-12-.31-2.83,0-5.75-.5-8.54a41.1,41.1,0,0,0-2.35-6.91c-.32-.89-.86-1.71-1.13-2.6-1.12-3.63-2.18-7.27-3.26-10.9-.06-.2,0-.47-.16-.59a5.82,5.82,0,0,1-1.5-6c.08-.28-.23-.8-.51-1a15.61,15.61,0,0,1-5.19-8.56c-1.11-4.36-1.76-8.84-3-13.15-1.35-4.63-.11-9.19-.19-13.77,0-1.95.26-3.9.17-5.84,0-.88-.91-1.74-.94-2.62-.11-4-.05-8-.05-11.85l-.79.67c.68-3,1.33-5.91,2-8.82a4.23,4.23,0,0,0,.19-1.6,61.07,61.07,0,0,1,.11-22.71c1-5.68,1.63-11.43,2.92-17,1-4.5,3.09-8.76,4.17-13.26,1.16-4.85,1.65-9.87,2.59-14.78a42.72,42.72,0,0,1,2-6.83c.33-.88,1.38-1.45,2-2.26.73-1,1.26-2.12,2-3.12.82-1.17,1.74-2.26,2.59-3.41.13-.18.09-.48.13-.73-2.76.26-3.9,2.12-4.6,5-.4-1.9,1.07-5.7,2.36-7.56,1.45-2.11,2.77-4.32,4.14-6.48l-.47-.35-1.33.9-.25-.33c.6-.47,1.23-.91,1.79-1.42,1.79-1.63,3.65-3.2,5.32-5,2-2.12,3.94-4.35,5.78-6.62,2.34-2.9,4.45-6,6.85-8.82,3-3.52,6.14-6.87,9.21-10.31,1.13-1.27,2.17-2.62,3.31-3.88q3.41-3.77,6.88-7.48A9.93,9.93,0,0,1,214.65,62.85ZM172,115l.82.46,2.19-4-.72-.41Z"/><path d="M245.52,246.72s.14.24.26.47l-9.41.75v.86l4.24.44v.37c-.93.1-1.87.15-2.79.31-1.64.31-3.28.68-5,1.05,1.12,2.14-.76,1.92-2.21,2.44l1.75.83c-1.75.27-3.58.56-5.4.86l0,.47c.71,0,1.42,0,2.13.1.47,0,1.27,0,1.35.23.76,2,3,2,4.11,3.28,2.23,2.47,4.78,2.72,7.69,2,2.24-.52,4.45-1.3,6.72-1.61,3.7-.51,7.47-.59,11.18-1.11,5.58-.8,11.1,0,16.64.2,1.87.07,3.76.47,5.59-1a2.42,2.42,0,0,1,3.46,1.26c.11.27.51.45.81.6,2.58,1.27,5.32,1.08,8.07.89.45,0,1.24.23,1.35.53.56,1.65,1,3.34,1.4,5,.31,1.28-.1,2.13-1.54,2.3-.6.07-1.19.24-1.95.4.24.69.45,1.3.72,2.06l-1.63.89c4,2.92,4.27,4.86.87,7.46-1.28-1.38-2.6-.64-4.14-.19-2.7.77-5.37,1.88-8.33,1.48-.8-.11-1.68.6-2.55.74-1.51.24-3,.32-4.55.47a12.77,12.77,0,0,0-2,.19,11.88,11.88,0,0,0-2.13.86c-1,.32-2.07,1-3.05.89-1.72-.15-2.48.7-3.16,2,.18.19.39.48.43.46,2.6-1.45,5.44-.29,8.11-.84.37-.07.65-.57,1.37-1.24.14,1.11.24,1.93.39,3.18l3.82-2.87c-.47,3.35-1.1,3.75-4.14,3.35-.69-.09-1.43.38-2.16.48a16.56,16.56,0,0,1-2.13,0l.36,1a65.2,65.2,0,0,1-6.49,1,45.86,45.86,0,0,1-5.2-.4c-1.05-.06-2.11,0-3.16,0-.2,0-.49.22-.58.14-2.1-1.79-4.68-.26-7-1-1.19-.39-2.58-.1-3.84-.31-2.36-.39-4.88-.52-7-1.49s-3.52-.15-5.32.54c-1.24-2.2-3.14-1.44-4.84-.68-1,.45-1.58.35-1.92-.59-.91-2.54-1.8-5.1-2.56-7.69a2.21,2.21,0,0,1,.52-1.79,1.69,1.69,0,0,0,0-2.66c-2.22-2.56-4.37-5.16-4.74-8.74a1.54,1.54,0,0,0-.94-1c-1.88-.57-1.9-2-1.89-3.58,0-5.12,0-10.24,0-15.35a2.67,2.67,0,0,1,1.91-3,31.81,31.81,0,0,0,4.14-2.14,2.42,2.42,0,0,0,.77-.9c.55-.91,1.06-1.84,1.58-2.76l.51.24v1.3l1.89-1.74.39.31c-.88,1.7-2.77,2.61-4.07,4.11,2.7,0,3.34-.33,3.23-1.82,2.7-.54,4.17-2.59,5.48-4.69.82-1.32,3.7-2.58,5.21-1.86l-2.07,1.06,4.52,1.75-3.59,2.86.11.24c2.2-1,4.37-2.07,6.61-3s4.55-1.69,6.83-2.53c.91,1.67,1.92,1.78,4.08.52,3-1.77,6.21-2.61,9.73-1.56,1,.31,2.53.71,3.17.23,1.53-1.17,2.81-.33,4.09,0,4.28,1.2,8.52,2.58,12.78,3.86a2,2,0,0,0,1.35,0,3.82,3.82,0,0,1,4.91,1.05c.56.73.81,1.65,2.21,1.14.45-.16,1.44,1.16,2.31,1.92V238.8l.38-.17,3,5.2-4.78-3.31-.33.42,2.9,3-1.53.17c.6.64,1.14,1.23,1.69,1.8.24.24.59.39.76.67.51.79,1,1.62,1.43,2.44l-2.4.56c1.41,1.26,2.92,2.46,4.26,3.83a92.74,92.74,0,0,1,6.28,6.88,17.74,17.74,0,0,1,2.79,5.08c.33.94-.22,2.22-.55,3.29,0,.14-1.45.2-1.68-.11-1.71-2.27-3.23-4.68-4.91-7-.71-1-1.72-1.69-2.5-2.61-1.15-1.36-2.16-2.84-3.32-4.19-.83-1-1.86-1.77-2.72-2.72-1.12-1.23-2.24-.45-3.5-.37-1.5.1-3.05-.86-4.6-1.24s-3.12-.54-4.65-.92c-1.94-.49-3.82-1.49-5.77-1.59-2.75-.15-5.43-1.76-8.25-.51a.62.62,0,0,1-.4,0,55.54,55.54,0,0,1-6.79-1.79,9.37,9.37,0,0,0-6.49-.33C249.68,246,247.64,246.27,245.52,246.72Zm12.41,23.1-.59-.05a20.51,20.51,0,0,0-3.94,2.4c-1.16,1.11-2.68,2.68-2.63,4a6.06,6.06,0,0,0,2.61,4.48c1.88,1,4.35.84,6.57,1.17l.34-.61C257.75,277.79,255.65,274.28,257.93,269.82Zm23.36-.35c-.55,2.67-1.16,5.37-1.61,8.1a1.92,1.92,0,0,0,.85,1.6,21.28,21.28,0,0,0,3.7.57c-1.72-1.88-.44-2.3.79-3a5.91,5.91,0,0,0,2.5-2.31c.38-.81-2.95-4.06-4.26-4.39v1.79C282.31,271.12,283.3,269,281.29,269.47Zm-27.73,14.2,6.79.59C258.76,282,257.3,281.86,253.56,283.67Zm17.38-21a6.27,6.27,0,0,1-2.36-.32c-1.37-.88-1.88-.11-2.49.88C268.21,264.38,270.49,264,270.94,262.63Zm-39.75-26,.19.79,4.36-.88-.18-.82A5.08,5.08,0,0,0,231.19,236.67Zm38.53,34.76-.68.17c.16.55.16,1.39.51,1.59,1.18.66,2.67-.57,3.17-2.9-.53.82-1.05,1.65-1.64,2.57Zm-48.94-27.56.58.91,2.46-1.7-.5-.78C222.48,242.83,221.63,243.35,220.78,243.87Z"/><path d="M395.87,226.42h4.62c2.26,2.38,3.46-.71,5.42-1.12-.32.61-.56,1.08-.88,1.67.26.17.55.51.78.47a2.11,2.11,0,0,0,1.26-.6,26.32,26.32,0,0,0,1.6-2.61c.44,2.83,4.53,4.87,6.86,3.92a2.47,2.47,0,0,1,2,.3c2.78,2,5.47,4.2,8.19,6.33a1.36,1.36,0,0,0,2.31-.65,2.61,2.61,0,0,1,3.08-1.73,23,23,0,0,1,7.1,2.18c1.16.67,1.48,2.81,2.18,4.28l-3.28,1.47c2.3.89,2.89.52,3.23-1.52,0,1.05-.17,2.11-.11,3.16.14,2.38,1.71,3.65,3.86,4.57l-1,2.14-.2-.55-11.07,4.51.4.32c-.5.78-1,1.53-1.46,2.35-.22.43-.46,1.1-.28,1.44a3.52,3.52,0,0,1-.86,4.85c2.21.85,2.25,2.29,1.71,4a3.1,3.1,0,0,0,.1,1.95,2.63,2.63,0,0,1-1.47,3.77c-.87.43-1.63,1.1-2.48,1.6-1.24.73-2.52,1.4-3.78,2.09-.06,0-.15,0-.19.06-2.69,2.4-6.15,1.2-9.19,1.94-3.47.85-7,1.6-10.43,2.43a3.1,3.1,0,0,0-1.05.61,4.67,4.67,0,0,1-5.51.18c-2-1.12-2.16-1.09-2.6.65l-5.54-.28,4.89-3-.58-2.38-.5-.11-1.31,2.34-1.79-1.56.25-.18-3.47-1.29.88,2-5.39.42.06.05a24.09,24.09,0,0,0-2.93-.81c-2.22-.33-2.41-.62-1.63-2.65a1.6,1.6,0,0,0-.07-1.29c-1-1.45-.74-3.78-3.12-4.3-.32-.07-.42-1.17-.83-2.44-.26,1.6-.43,2.64-.64,4l-.77-2.44c-3.32,2.82-3.41,4.93-.1,6.51-.66.52-1.15,1.17-1.78,1.36-2.3.68-4.63,1.3-7,1.75-1.47.27-1.81-1-1.56-2a41.41,41.41,0,0,1,1.75-4.73c.34-.88.67-1.76,1.14-3l-1.1.45-2.25-1.77c-1.18-1.28-1.92-2.91-.47-4.6a4,4,0,0,1,1.11-1c1.45-.73,2.92-1.44,4.42-2a73.82,73.82,0,0,0,7.22-2.79c4.23-2.22,8.91-1.84,13.37-2.58s9.22-.6,13.85-.74a58.15,58.15,0,0,1,7.47.17,21.21,21.21,0,0,1,4.46,1.25c1.94.65,3.85,1.94,5.79,2,2.52,0,5-.87,7.45.66.25.16,1.1-.43,1.57-.81,1.39-1.14,2.75-2.31,4.07-3.54a6.48,6.48,0,0,0,.93-1.39L428,247.4l1.95-.68c-1.54-2.44-1.77-2.47-3.95-.71-.63.51-1.33.93-2,1.4l-.34-.4,1.89-2.24h-4l-.07-.32,4.53-1.09-.05-.51-7.51.78-.07-.44,7-1.3,0-.61L421,241l.83-1-.14-.53a11,11,0,0,0-2.46.78c-.36.2-.38,1-.66,1.81l-1.37.77-1.34-1.48c.42-1.18.85-2.4,1.46-4.14l-6.27.9c.19-.29.43-.65,1-1.51l-7.75,2.74.74-1-.23-.43c-1.79.83-3.56,1.69-5.36,2.48-.47.2-1.39.44-1.5.26-1.61-2.44-3.61-.26-5.39-.47s-3.75-.24-5.44,1.13c-.62.5-2.06-.07-2.8.38-2.89,1.76-6.07,1.52-9.22,1.72-2.92.18-5.66,1.79-8.73,1.2-.53-.1-1.18.68-1.82.82a7.75,7.75,0,0,1-2-.09l-.11-.66-1.42.86-.2-.21,1.24-1.83-1.81,1.08-.28-.16,2.91-4.73-.42-.29-3.84,5.31-.31-.18.78-2.17-.42-.26L357.15,245l-.09-1.55-.4-.3c-.24.54-.49,1.08-.74,1.62l-.52-.44,5.2-8.42c-1.27.05-3.65,2.4-5.68,6.14.37-1.58.61-2.57.85-3.56l-.48-.16c-.3.83-.63,1.65-.89,2.49s-.4,1.6-.59,2.4l-.5-.1v-1.36l-.29-.06-.64,1.56-.48-.23,6.24-11.75.24,0c-.22,1.43-.43,2.87-.69,4.52,2-1.55,3.71-3,5.55-4.2a4.35,4.35,0,0,1,2.83-.75c2.35.41,4.37.2,5.89-2,2,2.11,4,.82,6,.2,1-.32,2-.93,3-1.33.41-.17,1.13-.36,1.31-.17,1.83,2,3.74.38,5.61.24,1.16-.09,2.32-.08,3.47-.24a22.59,22.59,0,0,0,2.24-.62c.77-.18,1.55-.3,2.33-.44-.63.47-1.27.93-1.91,1.39.69,2.18,2.45,1.06,3.67,1.24.52.08,1.17-.74,2-1.31Zm2.36,47.16c2.15-.91,4.38-1.44,6-2.73.75-.6.88-3.12.24-4-.8-1.12-2.68-1.47-4.14-2.18C399.64,267.59,399,270.29,398.23,273.58ZM384.47,257.8c3,1.45,4.49,1.25,5.19-.54l-1.74-1.5Zm57.12-11.4-.62-.8c-1.89-.16-2.43,1.26-3,2.69l.47.58Zm-54.74-17.21.25.7,3.49-1.31-.28-.74Z"/><path d="M341.8,373.15l1.46-2.62.59.24L345,373.7l3.41-2.73c.13.63.29,1.37.43,2l3.76-1.75-.7,3.94h5.08l0,.5a8.9,8.9,0,0,0,2.19-1c1.59-1.31,2.91-1.73,4.12.44.11.21,1.38.11,1.75-.23,2.25-2.07,4.86-1.12,7.31-.9a20.5,20.5,0,0,1,6.84,1.41c3.77,1.77,8.82,1.75,10.5,6.73a2.31,2.31,0,0,1-.47,1.74c-3.24.07-5.21,2.55-7.79,3.87-3.18,1.64-6.62,2.79-9.94,4.16-.6.25-1.16.59-2.18,1.12l-2.13-2.27-.44.18-2,.76a18.2,18.2,0,0,1-.23-2.07c0-1.58-.16-2.89-2.3-2.69a39.73,39.73,0,0,1-5.23.15,9.61,9.61,0,0,1-3.06-.71,13.93,13.93,0,0,0-10.56.2,14.13,14.13,0,0,1-7.69.8,61.84,61.84,0,0,0-8.18-.26,1.39,1.39,0,0,0-.8.1c-2.89,2.27-6.42,1.32-9.64,1.89-1.47.27-3,.18-3.4,2.15-.11.56-.8,1-1,1.88l2.19-.91c1.07,1.11,1.38,2.24.06,3.75l-1-1.35-2.8-.81-1.88,2.49-1-.83c-.28-2,.68-3.42,2.75-4.63-.7-.48-1.23-1.15-1.69-1.11-2.2.19-4.65-.5-6.31,1.86-.32.45-1.61.53-2.34.34-4.56-1.14-9.09-2.41-13.79-3.68,2.61-3.47,5.54-6.67,9.8-8.39a22.26,22.26,0,0,0,4.72-2.32c1.72-1.25,3.33-2.05,5.42-1.08a3.73,3.73,0,0,0,1.16.14,3.26,3.26,0,0,1,4.3-1.63,21,21,0,0,0,3.47.95c1.32.24,2.31-.1,1.85-2.28l1.35,2.06,4.39-1.27c-.16-.67-.33-1.34-.63-2.54.73.23,1.41.26,1.78.61,1,.95,1.76,2.06,2.69,3s1.73,1.09,2.08-.53a7.6,7.6,0,0,1,1.12-2.78,10.61,10.61,0,0,1,0,2.11c-.26,1.25.34,1.58,1.4,1.68a15.16,15.16,0,0,1,1.83.4c.2-.8.17-2.26.89-3s2.13-.62,3.22-1c.78-.25,1.53-.61,2.46-1l1.72,1.63c-1.51.85-2.33,2-1.3,4.3.36-2.38,1.41-1,2.12-.93C344.34,374.77,343.11,374,341.8,373.15Zm-7,11.89c1.63,1.6,3.76,1.8,6,.22l-4.52-2.54ZM339.14,373l-3.55.61c.4,3.13.9,3.69,2.42,3.43C338.36,375.77,338.66,374.68,339.14,373Z"/><path d="M299.92,335.36c.81.48,1.61,1,2.44,1.43,1.79,1,3.07.55,4-1.3,2-4.09,4.95-5,9.27-4.24a20.83,20.83,0,0,1,10.89,5.84c1.89,1.76,7.16,1.4,9.06-.33.15-.13.29-.4.44-.4,4-.11,5.46-3.76,7.86-6,1.77-1.64,3.41-1.07,5.22-.81a12.48,12.48,0,0,1,2.35.52c1.62.58,3.21,1.23,4.8,1.88,1.13.46,2.23,1,3.35,1.47a11.78,11.78,0,0,1,1.69.64c2.85,1.74,4.13,1.6,6.59-.79.24-.23.49-.45.75-.67,1.41,2,1.16,3.4-.43,5A15.26,15.26,0,0,1,363,341a40,40,0,0,0-7.41,4.55,2.85,2.85,0,0,0-1.19,3.73c.65,1.54.23,2.19-1.7,3.68a12.49,12.49,0,0,1-1.22-1.5c-.71-1.16-1.54-1.64-2.89-1-.39.19-1.3.13-1.39-.08a2.2,2.2,0,0,1-.05-1.67c.45-1,1.19-1.81,1.68-2.77s1.22-1.45.63-2.86,1.12-2.19,2.37-2.11c3,.2,4.94-1.85,7.35-3.1a2.24,2.24,0,0,0-3.14-1.53c-1.33.39-2.75.45-4.1.8-2.08.53-4.16,1.12-6.18,1.83a1.58,1.58,0,0,0-.4,1.46c.69,1.09.27,1.54-.69,2-2.62,1.37-5.06,3.21-7.82,4.12-2.51.83-5.34.67-8,1-.62.07-1.23.26-1.85.39a8,8,0,0,1,.89,1.4c.21.5.51,1.28.28,1.57a5.27,5.27,0,0,1-1.64,1.07l-1-2.77-3.58,1.58,1.3,1.67c-1.56.66-2.84,2.26-4.8,1.22-.16-.09-.55,0-.58-.08-.62-1.83-2.44-2.32-3.65-3.45a19.28,19.28,0,0,0-6.61-4.45,12.29,12.29,0,0,1-5-3.92c-1.42-1.79-2.2-4.08-3.27-6.16Zm12.17,4.38L311,339.4c-.23.72-.45,1.44-.68,2.17.36.07,1,.27,1,.19A19.42,19.42,0,0,0,312.09,339.74Z"/><path d="M200,400.92l1.87-2.13a8.69,8.69,0,0,1-4-7.21,19.85,19.85,0,0,0-1.48-5.28c-.12-.34-.93-.67-1.39-.63-1.15.09-2.27.44-3.42.61a3.38,3.38,0,0,1-3.83-1.59c-.66-1.09-1.91-1.83-2.73-3.18a35.23,35.23,0,0,0,4.07.39c2.17,0,4.33-.24,6.5-.36.39,0,1.07-.11,1.13,0,.72,1.8,1.35,3.63,2.07,5.65,2.24,0,2.13,2.65,2.94,4.12s1.56,2.23,3.21,2.33c-.45,2,1.13,2,2.6,2.28a18.21,18.21,0,0,0-.71,1.79c-.39,1.44-.18,2.48,1.6,2.86,1.57.35,3.52.34,3.5,2.95,0,.65,1.42,1.32,2.53,2.28v41.55l-.61.16c-.77-3-1.6-6-2.31-9-.88-3.68-1.69-7.37-2.48-11.07-.3-1.46-.36-3-.71-4.41-1.68-6.83-3.43-13.65-5.15-20.48C202.8,401.31,202.82,401.31,200,400.92Z"/><path d="M211,259.62l-.42-1.19,3.33-1c-1.69,0-2.86.08-4,0a3.33,3.33,0,0,1-1.39-.73c1-2.23-1-2-2-2.5a7.86,7.86,0,0,0-1.37-.45l1.33-1.59,2.55,1.62c0-4.05,2.79-5.93,5.14-8.34.69,2.79.69,2.79-1.85,4.94l2.12-.44v11.75l-6.29-2.36.19-.54Z"/><path d="M382.19,276.88c0,.7-.09,1.39-.16,2.47.67-.42,1-.6,1.29-.81a6.87,6.87,0,0,0,.55-.45c.54.44,1.15,1.08,1.26,1a3.21,3.21,0,0,1,3.08-.29c.51.17,1.27-.43,2-.7-.58,2.11-3.52,3.58-5.37,2.77-.33-.14-.77-.41-1-.29-1.51.78-2.92.39-3.38-1-.21-.61,1.16-1.74,1.82-2.64Z"/><path d="M349.07,272.2c-1.86-3.67-1.83-4.67.48-8.32C351.36,266.73,350.47,269.32,349.07,272.2Z"/><path d="M284.43,287.1c2-.09,2-.09,3.88-2.91.79,1.39,1.52,2.43-.8,3.18-1.36.45-2.44,1.76-3.68,2.64-.57.4-1.22.71-1.84,1.06l-.32-.48a24.58,24.58,0,0,1,2.73-2c1.05-.57.54-1,.09-1.54Z"/><path d="M341,400.28c.11.42.23.83.41,1.52l2.41-1.78.8,2.24-1.94-.73L341,404.9C340.39,404.74,340.16,403.06,341,400.28Z"/><path d="M484,64.06,489.81,69l-.47.56-5.87-4.85Z"/><path d="M279.49,293.13a30.14,30.14,0,0,1-2.94,1.25c-.35.12-.87-.16-1.25-.36-.13-.07-.08-.48-.11-.74a5.44,5.44,0,0,0,1.15-.06c1-.25,2-.55,2.94-.83Z"/><path d="M235.77,614.5l4.8-4.32.58.58-4.7,4.41Z"/><path d="M284.49,287.07c-1-.14-1.46-.61-.68-1.45.94-1,2-1.88,3-2.82l.59.59c-1,.82-2,1.61-2.94,2.51-.22.21-.06.8-.07,1.21Z"/><path class="cls-3" d="M385.5,523.14c-1.93.55-3.84,1-5.5-1,.29-1.41,1.4-1.9,2.84-2.11.58-.08,1.47-.34,1.6-.74a2.58,2.58,0,0,0-.24-2.07c-.22-.32-1.31-.34-1.81-.09-1.93.95-3.76,2.1-5.66,3.12a28.84,28.84,0,0,1-2.7,1.11c.22,1.3.2,2.65-2.08,2.38l.85-2.24-3.62,1.33c-.17-.53-.34-1.07-.56-1.74a3.27,3.27,0,0,1-1.17,0c-.64-.28-1.58-.6-1.71-1.09s.47-1.32.95-1.79c.76-.75,1.78-1.25,2.53-2a1.83,1.83,0,0,0,.23-1.6c-.11-.29-.94-.52-1.38-.43-2.74.58-5.49,1.23-7.49,3.43s-4.65,2-7.21,1.42c-1.33-.31-.84-1.44-.16-1.8a13.4,13.4,0,0,1,3.62-1.07,16.43,16.43,0,0,1,2.78,0c-.46-2-.83-3.51-1.29-5.49-2.69,1.68-6.45.85-7.34,4.9-.26,1.17-3.57,1.06-4.89,0-1.66-1.35-1.43-3-.89-4.73a15.36,15.36,0,0,0,.21-3.1c-2.27.83-3,1.84-2.23,3.71-1.55.12-2.49,0-1.94-1.82a14.24,14.24,0,0,0,.58-3.56c0-.36-.74-1.05-1.14-1.06-1.65,0-3.31.15-5.69.3a15.93,15.93,0,0,1,2.33-1.59c1.39-.58,2.89-.93,4.27-1.54,1-.42,1.72-.81,2.4.41.15.27.76.28,1.16.42l.12-1.28c.07-.8.14-1.59.23-2.57,3.68,1.82,3.73,1.82,5.32.26-1-2.56-1-2.56,3.21-4-.3-.51-.58-1-1.2-2.09,1.24.26,2.52.17,2.77.64,1.72,3.14,4.63,2.18,7.35,2.52-.06-3,2.59-3.49,4.25-4.81.29-.22,1.4.58,2.64,1.14.55-.63,1.4-1.75,2.39-2.73a9.2,9.2,0,0,1,2-1.21,16,16,0,0,0,2.56-1.45c.86-.72,2-1.56,0-3l.77-.19c2.16.91,4.75,1.38,6.36,2.88s2,3.94,2.95,6l-.53.37a11.83,11.83,0,0,1,1.56-.18c1.93.06,2.53.95,2,2.79a6.07,6.07,0,0,0-.45,2.13c.2,2.27,1.09,2.72,3,1.57.94-.55,1.58-.59,2.19.46a1.52,1.52,0,0,0,1.29.63,1.64,1.64,0,0,0,.9-1.18c.1-2.26,1.33-3.21,3.45-3.57,1.76-.29,2.8-1.27,1.68-3l3.21-2.63c-.28,1.14-.43,1.88-.65,2.6-.47,1.54-1,3.06-1.48,4.59a3.82,3.82,0,0,1-.64,1.45c-1,1-2.47,1.81-1.6,3.69.08.18-.46.89-.62.87a1.77,1.77,0,0,1-1-.7,10,10,0,0,1-.69-1.79c-3,2.22-5.69,4.31-6.89,7.79-.24.73-1.33,1.12-1.8,1.82a9,9,0,0,0-1.43,3.13c-.07.34,1.14.94,1.79,1.39a2.52,2.52,0,0,0,.69.21l.17.59L386,518.09c.54.94,1.57,1.92,1.48,2.8s-1.34,1.54-2.08,2.3Zm-38.12-17.42c.84,1.71,1.25,3.07,3.19,2.8,1.4-.19,2.62-.76,2.79-2.19.1-.84-.56-1.77-.88-2.66l-.56.23-.27,1.82Zm24.51-7c.5-.63,1.06-1.13,1-1.26a3.52,3.52,0,0,0-1.19-1.11c-.08-.05-.76.52-.72.68A8.54,8.54,0,0,0,371.89,498.68Z"/><path class="cls-3" d="M471.5,65.9l2.21,4.42-.34.23L471.32,69l1.76,5.72c0,.06.05.15,0,.19-2,3.38,1.08,6,1.31,9.06a11,11,0,0,1-2.73,8.44,3.29,3.29,0,0,1-3.1.42,7.09,7.09,0,0,1-4.15-6.1,22.41,22.41,0,0,0-.87-3.61l1.94-4.23c-4.8-1.62-.16-3.91-1.1-5.93l-2.17,1.55a5.12,5.12,0,0,1,1.5-4.46,8.12,8.12,0,0,0,1.36-1.84,2.88,2.88,0,0,1,4.08-1.52c.17-.61.35-1.22.58-2L471.56,66Zm-.4,9.68.52-.45c-.71-.44-1.56-1.36-2.08-1.2-.8.24-1.37,1.23-2,1.9l.42.25Z"/><path class="cls-3" d="M466.67,64.76c-2.56-2.43-5.76-2.75-9-2.71-.74,0-1.46.37-2.2.44-.5,0-1.22.06-1.48-.23s.08-1,.1-1.47a5.7,5.7,0,0,0,0-2.26c-1.14-2.69-1.2-2.66-.47-5.1l-1.93.52c1.36-2.08,5.17-2.69,6.85-1.24,2.87,2.48,5.7,5,8.4,7.69,1.78,1.76,1.62,2.53-.27,4.3Z"/><path class="cls-3" d="M484.21,109l-2.91-2c-1.95,0-2.71-.62-3.32-3.37-.25-1.11-1.11-2.39-.77-3.22s1.88-1.16,2.76-1.86c1.52-1.21,2.62-1.28,3.34.79a1.29,1.29,0,0,0,.48.59l-1.76,4.5.57.29,1.19-1.82.37.13c-.33,1.17-.66,2.34-1,3.62l1.13.21c0,.74-.07,1.47-.1,2.19Z"/><path class="cls-3" d="M466.61,64.7c0,.13-.05.34-.14.38a47.89,47.89,0,0,1-5.53,2.26c-1.36.39-3.62-1.61-3.44-2.92a2,2,0,0,1,1.5-1.25,54,54,0,0,1,5.76.94,15.36,15.36,0,0,1,1.91.65Z"/><path class="cls-3" d="M311.06,503.16c3-1,5.35.75,7.87,1.22a1.31,1.31,0,0,1,.73,1.05c0,.32-.6.88-.9.86a17,17,0,0,1-4.65-.64C313,505.24,312.18,504.11,311.06,503.16Z"/><path class="cls-3" d="M285,493.48c-.89-1.27-1.53-2.07-2-2.94a4.48,4.48,0,0,1-.31-1.4c.47.07.94.12,1.41.22s1.06.25,1.59.41,1.16.38,1.75.57a16.24,16.24,0,0,1-1.09,3C286.08,493.6,285.14,493.46,285,493.48Z"/><path class="cls-3" d="M295.11,494c.9,1.08,1.92,1.77,1.93,2.46,0,.91-.79,1.83-1.24,2.75a27.47,27.47,0,0,1-2.68-3.05C293,496,294.17,495,295.11,494Z"/><path class="cls-3" d="M479.18,94.41c.34.28,1.08.91,1.86,1.55-.74,2.08-2.56,2.56-4.24,3.18-.23.08-.59-.18-.89-.28a4.78,4.78,0,0,1,.48-1.18C477.2,96.65,478.08,95.68,479.18,94.41Z"/><path class="cls-3" d="M336.55,506.79c-1.25,1.4,2.34,2.66-.06,3.86-.73.36-2.05-.47-3.1-.75l2.25-3.52Z"/><path class="cls-3" d="M280,472.5a44.78,44.78,0,0,1-3.36-3.3c-.19-.23.23-1,.37-1.48,1.1.45,2.48.65,3.2,1.45C280.62,469.68,280.08,471.07,280,472.5Z"/><path class="cls-3" d="M406,20.49c1.4.44,2.81.84,4.17,1.37.35.14.82.79.74,1a1.73,1.73,0,0,1-1.06,1,18.68,18.68,0,0,1-2.9.05l-.08-.62,1.5-.44-2.81-1.51Z"/><path class="cls-3" d="M392.13,510.66c2-.82,3.55-1.46,5.1-2a.93.93,0,0,1,.75.45,1.82,1.82,0,0,1-.26,1.13C397,511.41,394.31,511.82,392.13,510.66Z"/><path class="cls-3" d="M327.8,502.8a29.32,29.32,0,0,1-4.41-.82c-.47-.15-.64-1.23-.95-1.89.62.14,1.26.24,1.87.42s1.23.46,1.83.72,1.27.6,1.9.9Z"/><path class="cls-3" d="M306.17,498.18a10.31,10.31,0,0,1-2.53-1c-.43-.31-.48-1.14-.7-1.74a5.56,5.56,0,0,1,2,.31,8.85,8.85,0,0,1,1.63,1.71Z"/><path class="cls-3" d="M276.68,480.2c-.57-.71-1.3-1.27-1.21-1.57.19-.59.84-1,1.29-1.54l1.66,1.54Z"/><path class="cls-3" d="M484.16,109.1l1.27-1.5c1.34,1.18,1.28,2.1-.1,4-1.37-.4-1.41-1.38-1.12-2.52Z"/><path class="cls-3" d="M408.66,489.68c2,1.19,1.91,3.77,0,5.23Z"/><path class="cls-3" d="M471.56,66,470,62.6l.53-.31,3.46,4.9-.41.36-2.1-1.65Z"/><path class="cls-3" d="M465.24,56.41l3.54,2.71c-1.67.62-2.26.24-3.92-2.16Z"/><path class="cls-3" d="M329.56,505.72a7.53,7.53,0,0,1,1.23-1.72c.34-.29,1-.2,1.51-.27-.08.52,0,1.27-.3,1.53a8.16,8.16,0,0,1-2.07.95Z"/><path class="cls-3" d="M454.82,50.58a34.34,34.34,0,0,1-3.51.28c-.4,0-.78-.44-1.18-.68.42-.26.88-.79,1.23-.72A31.08,31.08,0,0,1,454.82,50.58Z"/><path class="cls-3" d="M367.92,529.75c.37-.82.73-1.65,1.17-2.44a4.64,4.64,0,0,1,1,.32c-.36.88-.71,1.75-1.06,2.63Z"/><path class="cls-3" d="M400.5,490.53c.14-2.2.82-3,2.84-2.21Z"/><path class="cls-3" d="M395.49,493.43,393.22,497c-1.14-2.26,1.44-2.42,1.61-3.93Z"/><path class="cls-3" d="M291.62,495.52c-.64.55-1,1.1-1.45,1.15s-.71-.58-1.07-.9a5.05,5.05,0,0,1,1.25-1C290.55,494.64,291,495.11,291.62,495.52Z"/><path class="cls-3" d="M172,115l2.29-4,.72.41-2.19,4Z"/><path class="cls-3" d="M257.93,269.82c-2.28,4.46-.18,8,2.36,11.38l-.34.61c-2.22-.33-4.69-.19-6.57-1.17a6.06,6.06,0,0,1-2.61-4.48c-.05-1.31,1.47-2.88,2.63-4a20.51,20.51,0,0,1,3.94-2.4Z"/><path class="cls-3" d="M281.29,269.47c2-.46,1,1.65,2,2.37v-1.79c1.31.33,4.64,3.58,4.26,4.39a5.91,5.91,0,0,1-2.5,2.31c-1.23.69-2.51,1.11-.79,3a21.28,21.28,0,0,1-3.7-.57,1.92,1.92,0,0,1-.85-1.6C280.13,274.84,280.74,272.14,281.29,269.47Z"/><path class="cls-3" d="M253.56,283.67c3.74-1.81,5.2-1.71,6.79.59Z"/><path class="cls-3" d="M270.94,262.63c-.45,1.36-2.73,1.75-4.85.56.61-1,1.12-1.76,2.49-.88A6.27,6.27,0,0,0,270.94,262.63Z"/><path class="cls-3" d="M231.19,236.67a5.08,5.08,0,0,1,4.37-.91l.18.82-4.36.88Z"/><path class="cls-3" d="M269.72,271.43l1.36,1.43c.59-.92,1.11-1.75,1.64-2.57-.5,2.33-2,3.56-3.17,2.9-.35-.2-.35-1-.51-1.59Z"/><path class="cls-3" d="M220.78,243.87c.85-.52,1.7-1,2.54-1.57l.5.78-2.46,1.7Z"/><path class="cls-3" d="M398.23,273.58c.77-3.29,1.41-6,2.1-8.93,1.46.71,3.34,1.06,4.14,2.18.64.9.51,3.42-.24,4C402.61,272.14,400.38,272.67,398.23,273.58Z"/><path class="cls-3" d="M395.87,226.42l3.81,1.34c-.82.57-1.47,1.39-2,1.31-1.22-.18-3,.94-3.67-1.24.64-.46,1.28-.92,1.91-1.39Z"/><path class="cls-3" d="M384.47,257.8l3.45-2,1.74,1.5C389,259.05,387.47,259.25,384.47,257.8Z"/><path class="cls-3" d="M441.59,246.4l-3.11,2.47-.47-.58c.53-1.43,1.07-2.85,3-2.69Z"/><path class="cls-3" d="M386.85,229.19l3.46-1.35.28.74-3.49,1.31Z"/><path class="cls-3" d="M440.38,238.81c-.34,2-.93,2.41-3.23,1.52l3.28-1.47Z"/><path class="cls-3" d="M334.8,385l1.5-2.32,4.52,2.54C338.56,386.84,336.43,386.64,334.8,385Z"/><path class="cls-3" d="M339.14,373c-.48,1.71-.78,2.8-1.13,4-1.52.26-2-.3-2.42-3.43Z"/><path class="cls-3" d="M341.8,373.15c1.31.8,2.54,1.62.88,3.34-.71-.05-1.76-1.45-2.12.93-1-2.34-.21-3.45,1.3-4.3Z"/><path class="cls-3" d="M312.09,339.74a19.42,19.42,0,0,1-.74,2c0,.08-.66-.12-1-.19.23-.73.45-1.45.68-2.17Z"/><path d="M347.38,505.72h4.27l.27-1.82.56-.23c.32.89,1,1.82.88,2.66-.17,1.43-1.39,2-2.79,2.19C348.63,508.79,348.22,507.43,347.38,505.72Z"/><path d="M371.89,498.68A8.54,8.54,0,0,1,371,497c0-.16.64-.73.72-.68a3.52,3.52,0,0,1,1.19,1.11C373,497.55,372.39,498.05,371.89,498.68Z"/><path d="M471.1,75.58l-3.17.5-.42-.25c.66-.67,1.23-1.66,2-1.9.52-.16,1.37.76,2.08,1.2Z"/></g></g><circle class="cls-4" cx="323.5" cy="322.91" r="322.5"/></g></g></svg>